<svg width="151" height="151" viewBox="0 0 151 151" fill="none" xmlns="http://www.w3.org/2000/svg">
<g filter="url(#filter0_i_86_3732)">
<path d="M78.6073 83.985C78.2191 84.3616 78 84.8795 78 85.4204V132C78 133.105 78.8954 134 80 134H98C100.209 134 102 135.791 102 138C102 138.552 101.552 139 101 139H51C50.4477 139 50 138.552 50 138C50 135.791 51.7909 134 54 134H71C72.1046 134 73 133.105 73 132V85.4204C73 84.8795 72.7809 84.3616 72.3927 83.985L28.5405 41.4354C27.2513 40.1844 28.1369 38 29.9333 38H121.067C122.863 38 123.749 40.1844 122.459 41.4354L78.6073 83.985Z" fill="white"/>
</g>
<defs>
<filter id="filter0_i_86_3732" x="27.9293" y="38" width="95.1415" height="101" filterUnits="userSpaceOnUse" color-interpolation-filters="sRGB">
<feFlood flood-opacity="0" result="BackgroundImageFix"/>
<feBlend mode="normal" in="SourceGraphic" in2="BackgroundImageFix" result="shape"/>
<feColorMatrix in="SourceAlpha" type="matrix" values="0 0 0 0 0 0 0 0 0 0 0 0 0 0 0 0 0 0 127 0" result="hardAlpha"/>
<feOffset/>
<feGaussianBlur stdDeviation="6"/>
<feComposite in2="hardAlpha" operator="arithmetic" k2="-1" k3="1"/>
<feColorMatrix type="matrix" values="0 0 0 0 0.749005 0 0 0 0 0.966534 0 0 0 0 1 0 0 0 1 0"/>
<feBlend mode="normal" in2="shape" result="effect1_innerShadow_86_3732"/>
</filter>
</defs>
</svg>
