<svg width="151" height="151" viewBox="0 0 151 151" fill="none" xmlns="http://www.w3.org/2000/svg">
<g filter="url(#filter0_i_86_3049)">
<path d="M110.819 12C111.992 12 112.913 13.0043 112.812 14.1726L102.158 137.173C102.069 138.206 101.203 139 100.166 139H50.8342C49.7966 139 48.9312 138.206 48.8417 137.173L38.1882 14.1726C38.087 13.0043 39.008 12 40.1807 12H110.819Z" fill="white"/>
</g>
<g filter="url(#filter1_i_86_3049)">
<path d="M99.3333 134.164C99.2477 135.201 98.3809 136 97.3401 136H53.6604C52.6196 136 51.7529 135.201 51.6673 134.164L44.1784 43.164C44.0825 41.9987 45.0024 41 46.1716 41H104.829C105.998 41 106.918 41.9987 106.822 43.164L99.3333 134.164Z" fill="#9EF3FF"/>
</g>
<mask id="mask0_86_3049" style="mask-type:alpha" maskUnits="userSpaceOnUse" x="44" y="41" width="63" height="95">
<path d="M99.3333 134.164C99.2477 135.201 98.381 136 97.3401 136H53.6604C52.6196 136 51.7528 135.201 51.6673 134.164L44.1784 43.164C44.0825 41.9987 45.0024 41 46.1716 41H104.829C105.998 41 106.918 41.9987 106.822 43.164L99.3333 134.164Z" fill="#BDF6FF"/>
</mask>
<g mask="url(#mask0_86_3049)">
<path d="M95 126V141M95 126L82 133.5M95 126L82 118.5M95 126V111M95 126L108 118.5M95 126L108 133.5M93.9385 130.811L95 129.75L96.0615 130.811M91.8157 136.682L95 133.5L98.1843 136.682M92.8771 139.371L95 137.25L97.1229 139.371M90.3 127.487L91.75 127.875L91.3615 129.324M84.1501 128.585L88.5 129.75L87.3345 134.097M82.3501 130.849L85.25 131.625L84.473 134.523M91.3615 122.676L91.75 124.125L90.3 124.513M87.3345 117.903L88.5 122.25L84.1501 123.415M84.473 117.477L85.25 120.375L82.3501 121.151M96.0615 121.189L95 122.25L93.9385 121.189M98.1843 115.318L95 118.5L91.8157 115.318M97.1229 112.629L95 114.75L92.8771 112.629M99.7 124.513L98.25 124.125L98.6385 122.676M105.85 123.415L101.5 122.25L102.666 117.903M107.65 121.151L104.75 120.375L105.527 117.477M98.6385 129.324L98.25 127.875L99.7 127.487M102.666 134.097L101.5 129.75L105.85 128.585M105.527 134.523L104.75 131.625L107.65 130.849" stroke="url(#paint0_linear_86_3049)"/>
<path d="M51 75V90M51 75L38 82.5M51 75L38 67.5M51 75V60M51 75L64 67.5M51 75L64 82.5M49.9385 79.8107L51 78.75L52.0615 79.8107M47.8157 85.682L51 82.5L54.1843 85.682M48.8771 88.3713L51 86.25L53.1229 88.3713M46.3 76.4868L47.75 76.875L47.3615 78.3239M40.1501 77.5853L44.5 78.75L43.3345 83.0967M38.3501 79.8485L41.25 80.625L40.473 83.5228M47.3615 71.6761L47.75 73.125L46.3 73.5132M43.3345 66.9033L44.5 71.25L40.1501 72.4147M40.473 66.4772L41.25 69.375L38.3501 70.1515M52.0615 70.1893L51 71.25L49.9385 70.1893M54.1843 64.318L51 67.5L47.8157 64.318M53.1229 61.6287L51 63.75L48.8771 61.6287M55.7 73.5132L54.25 73.125L54.6385 71.6761M61.8499 72.4147L57.5 71.25L58.6655 66.9033M63.6499 70.1515L60.75 69.375L61.527 66.4772M54.6385 78.3239L54.25 76.875L55.7 76.4868M58.6655 83.0967L57.5 78.75L61.8499 77.5853M61.527 83.5228L60.75 80.625L63.6499 79.8485" stroke="url(#paint1_linear_86_3049)"/>
</g>
<rect x="59.9461" y="34" width="18.4643" height="18.4643" rx="2" transform="rotate(18.786 59.9461 34)" fill="url(#paint2_linear_86_3049)"/>
<path d="M59.3018 35.8933C59.6575 34.8476 60.7941 34.2885 61.8398 34.6442L75.5332 39.3024C76.2999 39.5632 76.804 40.2432 76.8789 40.9997H57.5654L59.3018 35.8933Z" fill="url(#paint3_linear_86_3049)"/>
<rect x="75" y="50.7227" width="18.4643" height="18.4643" rx="2" transform="rotate(-21.3517 75 50.7227)" fill="url(#paint4_linear_86_3049)"/>
<rect x="71" y="72.6643" width="18.4643" height="18.4643" rx="2" transform="rotate(-11.4466 71 72.6643)" fill="url(#paint5_linear_86_3049)"/>
<rect x="57.0167" y="90" width="18.4643" height="18.4643" rx="2" transform="rotate(9.40333 57.0167 90)" fill="url(#paint6_linear_86_3049)"/>
<circle cx="98" cy="48" r="2" transform="rotate(7.51001 98 48)" fill="url(#paint7_radial_86_3049)"/>
<circle cx="92.603" cy="94.6029" r="3.21081" transform="rotate(13.9127 92.603 94.6029)" fill="url(#paint8_radial_86_3049)"/>
<circle cx="70.2442" cy="68.2443" r="2" transform="rotate(-12.5063 70.2442 68.2443)" fill="url(#paint9_radial_86_3049)"/>
<circle cx="65.514" cy="73.514" r="1.26925" transform="rotate(-12.5063 65.514 73.514)" fill="url(#paint10_radial_86_3049)"/>
<circle cx="65.514" cy="109.514" r="1.26925" transform="rotate(-11.4791 65.514 109.514)" fill="url(#paint11_radial_86_3049)"/>
<circle cx="78.4965" cy="94.4964" r="1.26925" transform="rotate(-11.4791 78.4965 94.4964)" fill="url(#paint12_radial_86_3049)"/>
<defs>
<filter id="filter0_i_86_3049" x="38.1805" y="12" width="74.6389" height="127" filterUnits="userSpaceOnUse" color-interpolation-filters="sRGB">
<feFlood flood-opacity="0" result="BackgroundImageFix"/>
<feBlend mode="normal" in="SourceGraphic" in2="BackgroundImageFix" result="shape"/>
<feColorMatrix in="SourceAlpha" type="matrix" values="0 0 0 0 0 0 0 0 0 0 0 0 0 0 0 0 0 0 127 0" result="hardAlpha"/>
<feOffset/>
<feGaussianBlur stdDeviation="6"/>
<feComposite in2="hardAlpha" operator="arithmetic" k2="-1" k3="1"/>
<feColorMatrix type="matrix" values="0 0 0 0 0.749005 0 0 0 0 0.966534 0 0 0 0 1 0 0 0 1 0"/>
<feBlend mode="normal" in2="shape" result="effect1_innerShadow_86_3049"/>
</filter>
<filter id="filter1_i_86_3049" x="44.1715" y="41" width="62.6576" height="95" filterUnits="userSpaceOnUse" color-interpolation-filters="sRGB">
<feFlood flood-opacity="0" result="BackgroundImageFix"/>
<feBlend mode="normal" in="SourceGraphic" in2="BackgroundImageFix" result="shape"/>
<feColorMatrix in="SourceAlpha" type="matrix" values="0 0 0 0 0 0 0 0 0 0 0 0 0 0 0 0 0 0 127 0" result="hardAlpha"/>
<feOffset/>
<feGaussianBlur stdDeviation="16"/>
<feComposite in2="hardAlpha" operator="arithmetic" k2="-1" k3="1"/>
<feColorMatrix type="matrix" values="0 0 0 0 1 0 0 0 0 1 0 0 0 0 1 0 0 0 1 0"/>
<feBlend mode="normal" in2="shape" result="effect1_innerShadow_86_3049"/>
</filter>
<linearGradient id="paint0_linear_86_3049" x1="95" y1="111" x2="95" y2="141" gradientUnits="userSpaceOnUse">
<stop stop-color="white"/>
<stop offset="1" stop-color="white" stop-opacity="0.25"/>
</linearGradient>
<linearGradient id="paint1_linear_86_3049" x1="51" y1="60" x2="51" y2="90" gradientUnits="userSpaceOnUse">
<stop stop-color="white"/>
<stop offset="1" stop-color="white" stop-opacity="0.25"/>
</linearGradient>
<linearGradient id="paint2_linear_86_3049" x1="69.4837" y1="33.9245" x2="76.7198" y2="53.6448" gradientUnits="userSpaceOnUse">
<stop stop-color="white"/>
<stop offset="1" stop-color="white" stop-opacity="0.2"/>
</linearGradient>
<linearGradient id="paint3_linear_86_3049" x1="71.5" y1="35.4997" x2="72.027" y2="57.6123" gradientUnits="userSpaceOnUse">
<stop stop-color="#B2F5FF"/>
<stop offset="1" stop-color="white" stop-opacity="0.2"/>
</linearGradient>
<linearGradient id="paint4_linear_86_3049" x1="92.1674" y1="50.7525" x2="83.9754" y2="71.7082" gradientUnits="userSpaceOnUse">
<stop stop-color="white"/>
<stop offset="1" stop-color="white" stop-opacity="0.2"/>
</linearGradient>
<linearGradient id="paint5_linear_86_3049" x1="80.1513" y1="72.8192" x2="80.0095" y2="91.1558" gradientUnits="userSpaceOnUse">
<stop stop-color="white"/>
<stop offset="1" stop-color="white" stop-opacity="0.2"/>
</linearGradient>
<linearGradient id="paint6_linear_86_3049" x1="66.168" y1="90.1549" x2="66.0262" y2="108.491" gradientUnits="userSpaceOnUse">
<stop stop-color="white"/>
<stop offset="1" stop-color="white" stop-opacity="0.2"/>
</linearGradient>
<radialGradient id="paint7_radial_86_3049" cx="0" cy="0" r="1" gradientUnits="userSpaceOnUse" gradientTransform="translate(98 46) rotate(90) scale(4)">
<stop stop-color="white"/>
<stop offset="1" stop-color="white" stop-opacity="0"/>
</radialGradient>
<radialGradient id="paint8_radial_86_3049" cx="0" cy="0" r="1" gradientUnits="userSpaceOnUse" gradientTransform="translate(92.603 91.3921) rotate(90) scale(6.42161)">
<stop stop-color="white"/>
<stop offset="1" stop-color="white" stop-opacity="0"/>
</radialGradient>
<radialGradient id="paint9_radial_86_3049" cx="0" cy="0" r="1" gradientUnits="userSpaceOnUse" gradientTransform="translate(70.2442 66.2443) rotate(90) scale(4)">
<stop stop-color="white"/>
<stop offset="1" stop-color="white" stop-opacity="0"/>
</radialGradient>
<radialGradient id="paint10_radial_86_3049" cx="0" cy="0" r="1" gradientUnits="userSpaceOnUse" gradientTransform="translate(65.514 72.2447) rotate(90) scale(2.53851)">
<stop stop-color="white"/>
<stop offset="1" stop-color="white" stop-opacity="0"/>
</radialGradient>
<radialGradient id="paint11_radial_86_3049" cx="0" cy="0" r="1" gradientUnits="userSpaceOnUse" gradientTransform="translate(65.514 108.245) rotate(90) scale(2.53851)">
<stop stop-color="white"/>
<stop offset="1" stop-color="white" stop-opacity="0"/>
</radialGradient>
<radialGradient id="paint12_radial_86_3049" cx="0" cy="0" r="1" gradientUnits="userSpaceOnUse" gradientTransform="translate(78.4965 93.2271) rotate(90) scale(2.53851)">
<stop stop-color="white"/>
<stop offset="1" stop-color="white" stop-opacity="0"/>
</radialGradient>
</defs>
</svg>
