<svg width="151" height="151" viewBox="0 0 151 151" fill="none" xmlns="http://www.w3.org/2000/svg">
<path d="M77.5464 29.734C78.7997 28.0873 79.0995 21.4243 79.0995 18.4162L79.0721 17.8942C79.0237 16.9728 79.1133 16.0473 79.4913 15.2057C79.7154 14.7067 80.0324 14.2442 80.4132 13.8515C81.2933 12.944 82.3119 12.1927 83.5639 11.9078C85.2142 11.5322 86.795 10.2404 95.2129 10.9689C98.2012 11.2276 99.8809 11.4608 102.315 12.4763C104.567 13.416 106.061 14.1675 107.059 15.3516C108.388 16.9309 111.036 19.6085 109.862 24.6809C108.966 28.549 108.222 32.2291 103.888 34.9695C99.531 37.7244 95.8548 38.7413 89.8646 40.4815C86.7019 41.4003 80.7049 43.2806 78.1022 45.2913C74.9707 47.7106 70.7403 50.8047 70.7392 52.8822C70.7375 55.9209 71.0858 58.4478 72.7055 59.3881C74.35 60.3428 75.8744 60.8853 77.8249 61.0987L77.8449 61.1009C81.7761 61.5308 85.4004 61.9273 91.5469 62.0395C95.3027 62.108 101.831 62.1555 106.119 62.1695C112.395 62.1899 114.825 62.3121 116.404 62.3265C119.356 62.3535 124.403 62.3545 129.142 63.4886C132.503 64.2926 136.331 65.3128 137.921 67.5601C138.567 68.4732 139.199 69.4828 138.941 70.4222C138.405 72.3789 136.768 74.4338 134.929 75.901C132.085 78.1709 126.039 82.6066 119.934 84.2675C117.161 85.0219 113.29 85.6011 108.738 86.1137C101.174 86.9656 94.6348 87.7516 92.3878 88.5969C90.7861 89.1994 88.532 90.3341 87.1279 91.9857C85.9424 93.3801 82.2864 97.5698 80.2279 102.275C79.1864 104.656 78.0539 108.463 79.0496 110.895C79.4024 111.756 79.7036 113 80.9789 113.545C85.1996 115.348 90.8006 115.066 96.6662 114.186C104.24 113.049 108.704 122.058 104.369 128.372L101.05 133.206C98.6697 136.673 94.7412 138.768 90.5362 138.741C89.5264 138.735 88.6007 138.725 87.8028 138.711C82.9069 138.624 78.9252 138.808 70.6777 138.212C65.7691 137.857 59.4839 137.25 56.1356 136.768L55.7411 136.712C51.3725 136.084 49.6698 135.84 47.7873 135.465C46.0051 135.111 44.2341 134.992 41.6228 134.311C36.0998 132.871 33.7606 132.448 30.5218 130.443C26.7411 128.103 24.3764 126.939 22.9268 124.414C22.3342 123.381 21.6983 121.442 22.1567 119.157C22.6476 116.711 23.1598 114.539 25.8382 112.046C27.482 110.515 29.1513 108.752 35.4936 106.542C38.9099 105.351 44.4927 103.631 47.8503 102.499C53.8557 100.476 58.7743 100.045 60.7973 97.2063C61.7705 95.8408 63.0858 91.6545 61.4413 88.3628C60.9131 87.3054 60.3564 86.5566 59.6678 86.0528C58.0927 84.9006 56.1762 84.0158 54.2712 83.3355C53.397 83.0234 47.1118 81.9785 38.0162 79.7383C33.0371 78.512 30.5809 77.8848 29.2378 76.7543C26.5036 74.4527 23.5485 71.8776 23.3254 69.9622C22.8795 66.1331 22.5583 60.233 23.6842 58.0933C24.6193 56.3162 25.5475 54.4438 27.7626 52.89C33.8733 48.6037 38.0309 46.3946 42.9743 44.788C46.559 43.623 53.1016 41.5774 56.9047 40.3708C61.7487 38.8341 64.0096 38.0127 66.8756 36.5062C70.0727 34.8255 74.8521 33.2738 77.5464 29.734Z" fill="url(#paint0_linear_86_3712)"/>
<path d="M49.4676 62.6411C56.6649 78.1961 84.3415 119.862 97.2801 138.75C112.062 134.704 119.252 125.151 121 120.881L118.004 115.355L111.583 106.571C104.145 98.3957 100.468 88.2739 99.5585 84.235C97.8135 77.5659 98.3027 55.0395 98.7654 44.61L103.438 24.7729L102.742 22.9287C101.744 21.5643 99.2977 20.1207 98.199 19.5694C96.2989 17.3984 94.8996 17.6135 94.4375 17.9924L88.0653 35.1477L84.3668 28.3041L77.9823 27.0647C76.057 27.0003 75.8845 28.2393 76.0389 28.8669L83.997 43.3214C82.3054 49.1436 79.7987 71.7769 78.7569 82.3657L67.2865 66.6753L58.4129 44.0098L58.2935 34.5683C57.3959 33.3404 56.2998 34.1011 55.864 34.635L55.4813 36.6095L49.7578 18.9668L48.5442 18.0204L45.6736 21.4091C44.7722 23.3164 48.7339 35.1115 50.8275 40.7706L54.5333 55.8317L47.8521 51.1531C46.1501 50.4307 35.2448 36.9406 34.5985 36.2349C34.0815 35.6705 32.9712 36.3284 32.4806 36.728L30.3518 41.6667L33.2194 45.5893L30 46.3598L30.247 48.6604L38.055 50.955C40.996 52.266 46.8888 59.292 49.4676 62.6411Z" fill="url(#paint1_linear_86_3712)"/>
<path d="M80 92.75L58.5 63.25L73.5 99.25L98.5 134.25L110.5 125.25L80 92.75Z" fill="url(#paint2_linear_86_3712)"/>
<path d="M60 76.25L51 59.25H54L60 76.25Z" fill="url(#paint3_linear_86_3712)"/>
<path d="M82 90.25L84.5 65.75L86 90.25L117.5 118.25C116.7 121.45 112.833 123.25 111 123.75L82 90.25Z" fill="url(#paint4_linear_86_3712)"/>
<path d="M89 86.25L91 48.25L100.5 27.75L96 47.75L95.5 83.75L99.5 96.75L89 86.25Z" fill="url(#paint5_linear_86_3712)"/>
<path d="M96.75 138.5C89.25 134 73.85 122.8 72.25 114C79.0833 117.5 93.55 127.3 96.75 138.5Z" fill="url(#paint6_linear_86_3712)"/>
<path d="M94.4871 136.54C89.9089 129.087 81.4125 112.046 84.0526 103.5C88.5007 109.758 96.8149 125.126 94.4871 136.54Z" fill="url(#paint7_linear_86_3712)"/>
<path d="M60.84 52.7116C60.1613 46.8415 59.8175 33.9811 63.8716 29.5C64.8113 34.6012 65.5206 46.3852 60.84 52.7116Z" fill="url(#paint8_linear_86_3712)"/>
<path d="M52.3023 45.9671C48.0981 41.8146 39.7786 32.0016 40.1345 25.9692C44.0609 29.3587 51.9914 38.1036 52.3023 45.9671Z" fill="url(#paint9_linear_86_3712)"/>
<circle cx="73.1104" cy="101.421" r="1" transform="rotate(-32.0385 73.1104 101.421)" fill="white"/>
<circle cx="73.8542" cy="104.495" r="1" transform="rotate(-32.0385 73.8542 104.495)" fill="white"/>
<circle cx="76.2933" cy="106.508" r="1" transform="rotate(-32.0385 76.2933 106.508)" fill="white"/>
<circle cx="77.0371" cy="109.581" r="1" transform="rotate(-32.0385 77.0371 109.581)" fill="white"/>
<circle cx="70.5673" cy="103.013" r="1" transform="rotate(-32.0385 70.5673 103.013)" fill="white"/>
<circle cx="71.3111" cy="106.086" r="1" transform="rotate(-32.0385 71.3111 106.086)" fill="white"/>
<circle cx="73.7503" cy="108.099" r="1" transform="rotate(-32.0385 73.7503 108.099)" fill="white"/>
<circle cx="74.494" cy="111.173" r="1" transform="rotate(-32.0385 74.494 111.173)" fill="white"/>
<circle cx="69.8236" cy="99.9393" r="1" transform="rotate(-32.0385 69.8236 99.9393)" fill="white"/>
<circle cx="70.9617" cy="123.719" r="1" transform="rotate(-52.7068 70.9617 123.719)" fill="white"/>
<circle cx="72.7424" cy="126.333" r="1" transform="rotate(-52.7068 72.7424 126.333)" fill="white"/>
<circle cx="75.7349" cy="127.355" r="1" transform="rotate(-52.7068 75.7349 127.355)" fill="white"/>
<circle cx="77.5157" cy="129.968" r="1" transform="rotate(-52.7068 77.5157 129.968)" fill="white"/>
<circle cx="69.144" cy="126.106" r="1" transform="rotate(-52.7068 69.144 126.106)" fill="white"/>
<circle cx="70.9247" cy="128.719" r="1" transform="rotate(-52.7068 70.9247 128.719)" fill="white"/>
<circle cx="73.9172" cy="129.741" r="1" transform="rotate(-52.7068 73.9172 129.741)" fill="white"/>
<circle cx="75.698" cy="132.355" r="1" transform="rotate(-52.7068 75.698 132.355)" fill="white"/>
<circle cx="67.3632" cy="123.493" r="1" transform="rotate(-52.7068 67.3632 123.493)" fill="white"/>
<defs>
<linearGradient id="paint0_linear_86_3712" x1="80.5" y1="10.75" x2="80.5" y2="138.75" gradientUnits="userSpaceOnUse">
<stop stop-color="#FFE8C9" stop-opacity="0"/>
<stop offset="1" stop-color="#FFE8C9"/>
</linearGradient>
<linearGradient id="paint1_linear_86_3712" x1="52.5" y1="17.75" x2="112" y2="138.75" gradientUnits="userSpaceOnUse">
<stop stop-color="#BD8586"/>
<stop offset="1" stop-color="#674849"/>
</linearGradient>
<linearGradient id="paint2_linear_86_3712" x1="89.5" y1="93.75" x2="85.5" y2="129.75" gradientUnits="userSpaceOnUse">
<stop stop-color="#BD8586"/>
<stop offset="1" stop-color="#BD8586" stop-opacity="0"/>
</linearGradient>
<linearGradient id="paint3_linear_86_3712" x1="56.3654" y1="66.5528" x2="55.055" y2="75.0775" gradientUnits="userSpaceOnUse">
<stop stop-color="#BD8586"/>
<stop offset="1" stop-color="#BD8586" stop-opacity="0"/>
</linearGradient>
<linearGradient id="paint4_linear_86_3712" x1="103.163" y1="90.6655" x2="99.274" y2="119.92" gradientUnits="userSpaceOnUse">
<stop stop-color="#BD8586"/>
<stop offset="1" stop-color="#BD8586" stop-opacity="0"/>
</linearGradient>
<linearGradient id="paint5_linear_86_3712" x1="95.8558" y1="57.3908" x2="81.8916" y2="85.9905" gradientUnits="userSpaceOnUse">
<stop stop-color="#BD8586"/>
<stop offset="1" stop-color="#BD8586" stop-opacity="0"/>
</linearGradient>
<linearGradient id="paint6_linear_86_3712" x1="84.5" y1="114" x2="84.5" y2="138.5" gradientUnits="userSpaceOnUse">
<stop stop-color="#AE7B7C"/>
<stop offset="1" stop-color="#02120D"/>
</linearGradient>
<linearGradient id="paint7_linear_86_3712" x1="94.9212" y1="109.151" x2="83.6185" y2="130.888" gradientUnits="userSpaceOnUse">
<stop stop-color="#AE7B7C"/>
<stop offset="1" stop-color="#02120D"/>
</linearGradient>
<linearGradient id="paint8_linear_86_3712" x1="68.9166" y1="36.0608" x2="55.795" y2="46.1508" gradientUnits="userSpaceOnUse">
<stop stop-color="#AE7B7C"/>
<stop offset="1" stop-color="#02120D"/>
</linearGradient>
<linearGradient id="paint9_linear_86_3712" x1="48.1759" y1="27.9267" x2="44.2609" y2="44.0096" gradientUnits="userSpaceOnUse">
<stop stop-color="#AE7B7C"/>
<stop offset="1" stop-color="#02120D"/>
</linearGradient>
</defs>
</svg>
