<svg width="151" height="151" viewBox="0 0 151 151" fill="none" xmlns="http://www.w3.org/2000/svg">
<g filter="url(#filter0_i_86_3737)">
<path fill-rule="evenodd" clip-rule="evenodd" d="M107 38C109.209 38 111 39.7909 111 42V58.2766C111 59.3141 111.796 60.1718 112.822 60.3278C126.511 62.4102 137 74.2292 137 88.5C137 102.771 126.511 114.589 112.822 116.671C111.796 116.827 111 117.685 111 118.722V135C111 137.209 109.209 139 107 139H40C37.7909 139 36 137.209 36 135V42C36 39.7909 37.7909 38 40 38H107ZM111 103.102C111 104.322 112.088 105.265 113.26 104.926C120.388 102.865 125.601 96.292 125.601 88.5C125.601 80.7079 120.388 74.1343 113.26 72.0729C112.088 71.7339 111 72.6774 111 73.8973V103.102Z" fill="#FF7E7E"/>
</g>
<mask id="mask0_86_3737" style="mask-type:alpha" maskUnits="userSpaceOnUse" x="36" y="38" width="101" height="101">
<path d="M107 38C109.209 38 111 39.7909 111 42V58.2766C111 59.3141 111.796 60.1718 112.822 60.3278C126.511 62.4102 137 74.2292 137 88.5C137 102.771 126.511 114.589 112.822 116.671C111.796 116.827 111 117.685 111 118.722V135C111 137.209 109.209 139 107 139H40C37.7909 139 36 137.209 36 135V42C36 39.7909 37.7909 38 40 38H107ZM111 103.102C111 104.322 112.088 105.265 113.26 104.926C120.388 102.865 125.601 96.292 125.601 88.5C125.601 80.7079 120.388 74.1343 113.26 72.0729C112.088 71.7339 111 72.6774 111 73.8973V103.102Z" fill="#FF7E7E"/>
</mask>
<g mask="url(#mask0_86_3737)">
<path d="M35.9704 139.557C36.4288 139.411 39.328 137.061 44.3395 131.581C47.2477 128.401 52.4137 122.525 55.9583 118.264C56.678 117.399 57.3225 116.606 57.905 115.868M57.905 115.868C60.1912 112.974 61.5223 110.933 62.6988 108.73C64.1751 105.966 65.3557 103.023 66.2668 100.258C67.9808 95.0578 68.508 91.6665 68.6605 89.8324C68.8634 87.392 68.3274 83.5142 67.6422 79.4929C66.9967 75.7047 64.7149 72.5049 63.4518 70.9177C62.8693 70.1856 61.9353 69.8284 60.6803 69.6809C56.6558 69.2079 54.7304 71.298 53.1414 72.617C51.133 74.2841 50.1164 76.3398 48.9815 79.5563C48.3722 81.2831 48.3048 83.0219 48.1038 84.5445C47.948 85.7244 48.0416 87.5133 48.4937 91.7733C48.8133 94.785 49.639 99.54 50.1296 102.365L50.1617 102.55C50.9133 106.879 51.8828 108.111 52.5723 109.502C53.2898 110.95 54.7293 112.775 57.905 115.868ZM57.905 115.868C57.941 115.903 57.9773 115.939 58.0137 115.974C59.2445 117.169 61.784 118.459 65.1867 120.187L65.4009 120.296C70.0669 122.666 74.2801 122.537 78.5736 122.519C80.2834 122.512 83.8919 121.868 88.7326 120.864C91.9552 120.195 93.2868 119.139 94.4047 118.235C96.7284 116.356 100.062 112.518 103.538 107.956C105.107 105.897 106.056 104.19 107.219 101.698C111.122 91.9851 111.596 89.9659 111.865 88.8181L111.871 88.7933C111.981 88.2921 112.038 87.9515 112.071 87.3823M48.9293 144.362C48.9635 144.242 49.1054 143.505 49.7966 141.886C50.9178 139.26 51.7098 138.362 52.0879 137.629C52.9268 136.002 54.4487 133.112 55.8856 130.999C56.4991 130.097 57.3262 129.082 58.3712 127.675C59.375 126.324 61.1708 124.305 62.9451 122.383C64.1377 121.09 66.2557 119.317 67.4529 118.268C68.0043 117.785 70.313 116.118 71.8474 115.042C72.1713 114.814 73.1018 114.183 74.6119 113.281C75.9392 112.487 77.6128 111.796 79.3765 111.042C81.7195 110.041 84.5936 109.485 86.1431 109.133C86.3355 109.079 86.5251 109.026 87.6164 108.824C88.7076 108.623 90.6947 108.275 92.7354 107.879M76.9792 91.7809C76.7419 90.4264 76.1404 85.1156 76.1202 81.5212C76.1026 78.378 76.4285 76.9688 76.7249 75.5088C76.9511 74.3947 77.2593 73.1096 77.4844 71.9349C77.7147 70.7326 78.2202 69.4599 78.8359 68.1412C79.4513 66.8231 80.4808 65.6435 81.64 64.9559C82.9434 64.1828 84.9294 64.3155 85.9583 64.6867C86.9026 65.0273 87.4302 66.3455 87.996 67.5287C88.43 68.436 88.7016 70.737 88.8138 72.5194C88.8795 73.5628 88.4012 74.6279 88.1215 75.6277C87.7958 76.7918 87.2528 78.2087 86.7525 79.2736C86.0188 80.8354 85.1569 82.5712 84.6176 83.5624C84.1936 84.3419 83.2883 85.7003 81.8232 87.8803C81.0171 89.0797 80.431 89.8749 79.5036 90.8817C79.2845 91.1149 79.1321 91.2818 78.9358 91.4594C78.7395 91.6371 78.5039 91.8205 77.8083 91.9681M85.3277 97.705C85.4647 97.48 86.2995 96.4173 87.8313 94.9744C91.1993 91.8018 94.0273 89.9637 95.0917 89.3469C96.163 88.7261 98.2553 88.3749 100.381 88.6496C100.998 88.7293 101.308 89.2444 101.606 89.599C102.394 90.5373 102.192 92.262 101.932 93.2484C101.683 94.1935 100.947 94.9546 100.299 95.6251L100.267 95.6585C99.5464 96.4036 98.6672 96.9325 95.7628 98.376C94.4302 99.0382 93.409 99.3224 92.4641 99.6109C90.4237 100.234 87.6053 100.459 86.6963 100.402C86.2237 100.393 85.7342 100.341 85.2715 100.207C85.053 100.126 84.8674 100.019 84.6762 99.9081M29.9995 66.779C30.1845 66.7686 31.4448 67.1663 32.5756 67.8439C34.0979 68.756 36.0541 70.1262 37.8757 71.4122C39.5654 72.605 41.1101 74.0963 43.0525 75.8463C45.235 77.8126 46.9035 79.8069 48.0168 81.3115C49.5523 83.3869 49.9892 84.7957 50.6771 86.1818C51.3362 87.51 52.7452 91.2313 53.5324 93.5945C54.2334 95.699 54.4435 100.437 54.2824 102.123C54.1425 103.585 53.6733 104.699 53.3689 105.812C53.0322 107.044 52.3015 108.257 50.9825 110.29C49.8189 112.083 48.7512 113.077 47.4951 114.427C44.1809 117.99 42.1764 119.783 41.0313 120.899C40.2064 121.703 38.1039 123.579 36.6181 124.785C35.7241 125.51 34.7306 126.421 33.9612 127.138C33.2333 127.816 32.4885 128.472 31.8409 129.174C31.6944 129.344 31.5492 129.5 31.398 129.655C31.2467 129.811 31.0939 129.961 30.7623 129.824" stroke="#FFDDCA" stroke-width="2" stroke-linecap="round" stroke-linejoin="round"/>
</g>
<defs>
<filter id="filter0_i_86_3737" x="36" y="38" width="101" height="101" filterUnits="userSpaceOnUse" color-interpolation-filters="sRGB">
<feFlood flood-opacity="0" result="BackgroundImageFix"/>
<feBlend mode="normal" in="SourceGraphic" in2="BackgroundImageFix" result="shape"/>
<feColorMatrix in="SourceAlpha" type="matrix" values="0 0 0 0 0 0 0 0 0 0 0 0 0 0 0 0 0 0 127 0" result="hardAlpha"/>
<feOffset/>
<feGaussianBlur stdDeviation="2"/>
<feComposite in2="hardAlpha" operator="arithmetic" k2="-1" k3="1"/>
<feColorMatrix type="matrix" values="0 0 0 0 1 0 0 0 0 1 0 0 0 0 1 0 0 0 0.7 0"/>
<feBlend mode="normal" in2="shape" result="effect1_innerShadow_86_3737"/>
</filter>
</defs>
</svg>
