<svg width="200" height="200" viewBox="0 0 200 200" fill="none" xmlns="http://www.w3.org/2000/svg">
<path d="M62.017 96.3698C61.4122 94.1353 61.3369 91.7918 61.797 89.5234C62.2571 87.255 63.24 85.1234 64.6687 83.2961C66.0974 81.4688 67.9329 79.9954 70.031 78.9917C72.1292 77.988 74.433 77.4813 76.7614 77.5113C75.4 75.2777 74.7558 72.6849 74.9147 70.0783C75.0736 67.4717 76.0281 64.9752 77.6509 62.9212C79.2738 60.8673 81.488 59.3536 83.9984 58.5818C86.5089 57.81 89.1965 57.8167 91.703 58.6011C90.904 49.3935 99.651 40.5571 108.938 41.1963C108.788 37.8528 109.494 34.5261 110.99 31.5276C112.486 28.5291 114.723 25.9566 117.492 24.051C120.261 22.1453 123.471 20.9687 126.822 20.6312C130.173 20.2937 133.555 20.8064 136.652 22.1212C137.228 20.0403 138.405 18.1726 140.037 16.7483C141.669 15.3241 143.684 14.4058 145.835 14.1067C147.986 13.8076 150.178 14.1407 152.141 15.065C154.103 15.9893 155.751 17.4644 156.879 19.3082C158.008 21.152 158.569 23.2838 158.493 25.4407C158.417 27.5976 157.707 29.6852 156.451 31.4458C155.195 33.2065 153.448 34.5632 151.425 35.3486C149.402 36.1341 147.192 36.3138 145.067 35.8656C146.088 38.3911 146.259 41.1773 145.554 43.8073C144.849 46.4373 143.306 48.7697 141.155 50.4555C148.242 57.2504 149.207 69.4069 143.293 77.2638C137.378 85.1207 125.342 87.5747 116.803 82.6358C116.993 84.772 116.625 86.9207 115.734 88.874C114.843 90.8273 113.46 92.519 111.718 93.7852C109.976 95.0514 107.935 95.8493 105.792 96.1016C103.649 96.3539 101.476 96.0521 99.485 95.2253C100.266 97.128 100.513 99.2058 100.198 101.237C99.8828 103.268 99.0186 105.176 97.6973 106.756C96.3761 108.337 94.6475 109.532 92.6962 110.212C90.7449 110.892 88.6443 111.033 86.6187 110.619C86.5409 112.926 85.7826 115.159 84.4382 117.041C83.0938 118.923 81.2225 120.371 79.0568 121.205C76.8911 122.039 74.5266 122.221 72.2572 121.731C69.9877 121.24 67.9134 120.098 66.292 118.445" fill="url(#paint0_linear_94_6516)"/>
<path d="M68.1337 62.1933L72.9494 95.6992L103.213 80.0464L82.7016 107.074L115.31 117.217L81.4876 121.934L97.3399 151.932L70.0186 131.575L59.8285 163.855L55.0128 130.349L24.7497 146.002L45.2606 118.974L12.6521 108.831L46.4746 104.114L30.6223 74.1161L57.9436 94.4733L68.1337 62.1933Z" fill="url(#paint1_linear_94_6516)"/>
<path d="M79.5 126.5L58.5 33.5L64 32L82 126.5H79.5Z" fill="url(#paint2_linear_94_6516)"/>
<path d="M90.3486 52.0814C90.3486 47.0659 94.4145 43 99.43 43V43C104.446 43 108.511 47.0659 108.511 52.0814V57.0349H90.3486V52.0814Z" fill="url(#paint3_linear_94_6516)"/>
<path d="M72.1855 65.2908C72.1855 57.9956 78.0996 52.0815 85.3948 52.0815H113.465C120.76 52.0815 126.674 57.9956 126.674 65.2908V66.1164H72.1855V65.2908Z" fill="url(#paint4_linear_94_6516)"/>
<rect x="89.5166" y="54.2227" width="1.65116" height="0.825581" rx="0.412791" transform="rotate(126.415 89.5166 54.2227)" fill="url(#paint5_linear_94_6516)"/>
<rect x="100.165" y="53.7324" width="1.65116" height="0.825581" rx="0.412791" transform="rotate(62.862 100.165 53.7324)" fill="url(#paint6_linear_94_6516)"/>
<rect x="113.374" y="57.8604" width="1.65116" height="0.825581" rx="0.412791" transform="rotate(62.862 113.374 57.8604)" fill="url(#paint7_linear_94_6516)"/>
<path d="M59.8027 76.0233C59.8027 68.728 65.7167 62.814 73.012 62.814H125.849C133.145 62.814 139.059 68.728 139.059 76.0233V76.8488H59.8027V76.0233Z" fill="url(#paint8_linear_94_6516)"/>
<path fill-rule="evenodd" clip-rule="evenodd" d="M142.36 77.6743C164.246 77.6743 181.988 95.4164 181.988 117.302C181.988 139.188 164.246 156.93 142.36 156.93C120.475 156.93 102.732 139.188 102.732 117.302C102.732 95.4164 120.475 77.6744 142.36 77.6743ZM142.36 89.4155C126.959 89.4158 114.475 101.901 114.475 117.302C114.475 132.703 126.959 145.189 142.36 145.189C157.762 145.189 170.247 132.703 170.247 117.302C170.247 101.901 157.762 89.4155 142.36 89.4155Z" fill="url(#paint9_linear_94_6516)"/>
<path d="M56.5 158.582H142.36V165.186C142.36 176.129 133.489 185 122.547 185H76.314C65.371 185 56.5 176.129 56.5 165.186V158.582Z" fill="url(#paint10_linear_94_6516)"/>
<g filter="url(#filter0_i_94_6516)">
<path d="M56.5 76.0233C56.5 74.1995 57.9785 72.7209 59.8023 72.7209H139.058C140.882 72.7209 142.36 74.1994 142.36 76.0233V158.581H56.5V76.0233Z" fill="#FFF8F4"/>
</g>
<circle cx="87.0463" cy="64.4652" r="0.825581" fill="url(#paint11_linear_94_6516)"/>
<circle cx="96.1283" cy="74.372" r="0.825581" fill="url(#paint12_linear_94_6516)"/>
<circle cx="72.1859" cy="66.9418" r="0.825581" fill="url(#paint13_linear_94_6516)"/>
<circle cx="72.1859" cy="76.8488" r="0.825581" fill="url(#paint14_linear_94_6516)"/>
<circle cx="135.756" cy="75.1977" r="0.825581" fill="url(#paint15_linear_94_6516)"/>
<circle cx="96.9535" cy="54.558" r="0.825581" fill="url(#paint16_linear_94_6516)"/>
<circle cx="106.035" cy="56.2094" r="0.825581" fill="url(#paint17_linear_94_6516)"/>
<circle cx="119.245" cy="66.1161" r="0.825581" fill="url(#paint18_linear_94_6516)"/>
<circle cx="119.245" cy="76.0233" r="0.825581" fill="url(#paint19_linear_94_6516)"/>
<circle cx="83.7445" cy="54.558" r="0.825581" fill="url(#paint20_linear_94_6516)"/>
<circle cx="89.9362" cy="66.529" r="0.412791" fill="url(#paint21_linear_94_6516)"/>
<circle cx="89.9362" cy="76.436" r="0.412791" fill="url(#paint22_linear_94_6516)"/>
<circle cx="75.9011" cy="64.0524" r="0.412791" fill="url(#paint23_linear_94_6516)"/>
<circle cx="75.9011" cy="73.9592" r="0.412791" fill="url(#paint24_linear_94_6516)"/>
<circle cx="80.029" cy="77.2617" r="0.412791" fill="url(#paint25_linear_94_6516)"/>
<circle cx="67.6452" cy="66.529" r="0.412791" fill="url(#paint26_linear_94_6516)"/>
<circle cx="67.6452" cy="76.436" r="0.412791" fill="url(#paint27_linear_94_6516)"/>
<circle cx="84.1569" cy="61.5756" r="0.412791" fill="url(#paint28_linear_94_6516)"/>
<circle cx="93.238" cy="53.3198" r="0.412791" fill="url(#paint29_linear_94_6516)"/>
<circle cx="98.1921" cy="45.0639" r="0.412791" fill="url(#paint30_linear_94_6516)"/>
<circle cx="102.32" cy="46.715" r="0.412791" fill="url(#paint31_linear_94_6516)"/>
<circle cx="80.8542" cy="54.9709" r="0.412791" fill="url(#paint32_linear_94_6516)"/>
<circle cx="85.8083" cy="53.3198" r="0.412791" fill="url(#paint33_linear_94_6516)"/>
<circle cx="108.098" cy="53.3198" r="0.412791" fill="url(#paint34_linear_94_6516)"/>
<circle cx="85.8083" cy="53.3198" r="0.412791" fill="url(#paint35_linear_94_6516)"/>
<circle cx="113.878" cy="64.0524" r="0.412791" fill="url(#paint36_linear_94_6516)"/>
<circle cx="113.878" cy="73.9592" r="0.412791" fill="url(#paint37_linear_94_6516)"/>
<circle cx="113.052" cy="54.9709" r="0.412791" fill="url(#paint38_linear_94_6516)"/>
<circle cx="116.354" cy="57.4477" r="0.412791" fill="url(#paint39_linear_94_6516)"/>
<circle cx="118.006" cy="54.9709" r="0.412791" fill="url(#paint40_linear_94_6516)"/>
<circle cx="122.96" cy="64.0524" r="0.412791" fill="url(#paint41_linear_94_6516)"/>
<circle cx="122.96" cy="73.9592" r="0.412791" fill="url(#paint42_linear_94_6516)"/>
<circle cx="103.97" cy="64.0524" r="0.412791" fill="url(#paint43_linear_94_6516)"/>
<circle cx="103.97" cy="73.9592" r="0.412791" fill="url(#paint44_linear_94_6516)"/>
<circle cx="105.622" cy="75.6105" r="0.412791" fill="url(#paint45_linear_94_6516)"/>
<circle cx="115.529" cy="78.0871" r="0.412791" fill="url(#paint46_linear_94_6516)"/>
<circle cx="130.389" cy="76.436" r="0.412791" fill="url(#paint47_linear_94_6516)"/>
<circle cx="61.0407" cy="76.436" r="0.412791" fill="url(#paint48_linear_94_6516)"/>
<rect x="77.9619" y="66.9353" width="1.65116" height="0.825581" rx="0.412791" transform="rotate(126.415 77.9619 66.9353)" fill="url(#paint49_linear_94_6516)"/>
<rect x="71.3535" y="64.1296" width="1.65116" height="0.825581" rx="0.412791" transform="rotate(126.415 71.3535 64.1296)" fill="url(#paint50_linear_94_6516)"/>
<rect x="89.5166" y="54.2227" width="1.65116" height="0.825581" rx="0.412791" transform="rotate(126.415 89.5166 54.2227)" fill="url(#paint51_linear_94_6516)"/>
<rect x="96.6914" y="63.9521" width="1.65116" height="0.825581" rx="0.412791" transform="rotate(112.249 96.6914 63.9521)" fill="url(#paint52_linear_94_6516)"/>
<rect x="124.761" y="64.7778" width="1.65116" height="0.825581" rx="0.412791" transform="rotate(112.249 124.761 64.7778)" fill="url(#paint53_linear_94_6516)"/>
<path d="M144.545 58L141.465 52.7958L138.28 58L135.83 56.0576L139.575 51.5864L134.5 50.4136L135.445 47.4817L140.38 49.5707L139.925 44H143.075L142.62 49.5707L147.625 47.555L148.5 50.4503L143.355 51.5864L147.065 56.0942L144.545 58Z" fill="#F76513"/>
<mask id="path-57-outside-1_94_6516" maskUnits="userSpaceOnUse" x="28.0419" y="137.542" width="67.1797" height="35.0737" fill="black">
<rect fill="white" x="28.0419" y="137.542" width="67.1797" height="35.0737"/>
<path d="M43.5432 147.564C43.5897 147.513 43.7008 147.481 43.8765 147.467C43.9267 147.463 44.002 147.457 44.1024 147.449C44.2047 147.464 44.2935 147.469 44.3688 147.463L45.1624 147.435L45.2354 148.35C45.2384 148.703 45.2121 149.166 45.1566 149.737C45.1029 150.331 45.0182 151.011 44.9023 151.775C44.7865 152.54 44.7197 152.97 44.7021 153.066C44.6957 153.302 44.6577 153.459 44.588 153.535C44.5183 153.612 44.3598 153.683 44.1125 153.75C43.8401 153.819 43.6536 153.858 43.5532 153.866C42.9256 153.916 42.5875 153.636 42.5388 153.026C42.5145 152.721 42.5687 152.292 42.7014 151.738C42.8555 151.136 42.9287 150.788 42.9213 150.694L42.8347 150.559C42.7268 150.473 42.1796 150.423 41.193 150.407C40.6872 150.4 40.3841 150.401 40.2837 150.409C39.9071 150.439 39.6017 150.569 39.3675 150.8C39.1333 151.032 38.8639 151.454 38.5592 152.069C38.2796 152.681 38.0967 153.239 38.0105 153.741C37.7072 155.323 37.6009 157.633 37.6916 160.671C37.6983 161.072 37.7223 161.53 37.7634 162.046C37.8083 162.609 37.955 163.022 38.2034 163.285C38.5383 163.684 39.0317 164.01 39.6837 164.265C40.3086 164.498 40.9098 164.592 41.4872 164.546C41.7383 164.526 41.9739 164.472 42.1943 164.383C42.4397 164.293 42.6042 164.138 42.6878 163.919C42.7751 163.747 42.8512 163.434 42.9161 162.98C43.0087 162.241 43.1354 161.771 43.2961 161.569C43.4337 161.393 43.7284 161.287 44.1803 161.251C44.5819 161.219 44.8609 161.232 45.0171 161.29C45.1231 161.353 45.1874 161.525 45.2098 161.806C45.2304 162.064 45.1642 162.659 45.0113 163.592C44.9213 164.048 44.8201 164.363 44.7077 164.537C44.5701 164.713 44.309 164.923 43.9241 165.166C43.4156 165.443 42.7221 165.616 41.8434 165.686C39.7598 165.852 38.2891 165.627 37.4315 165.011C37.1925 164.865 36.839 164.551 36.3711 164.069C35.932 163.632 35.6947 163.191 35.6591 162.745C35.6554 162.698 35.6469 162.592 35.6338 162.428C35.6459 162.262 35.6472 162.12 35.6378 162.003C35.5784 160.308 35.5604 158.657 35.5838 157.051C35.6091 155.467 35.677 154.576 35.7875 154.379C35.8749 154.207 35.9472 153.847 36.0046 153.299C36.023 152.897 36.1613 152.413 36.4195 151.85C36.6759 151.263 36.9658 150.78 37.2891 150.4C37.7231 149.822 38.7434 149.469 40.3501 149.341C40.6262 149.319 40.9786 149.303 41.4073 149.292C41.8861 149.278 42.1883 149.265 42.3138 149.255C42.8661 149.211 43.1329 149.072 43.1142 148.837C43.1086 148.767 43.1759 148.502 43.3161 148.042C43.421 147.774 43.4967 147.615 43.5432 147.564Z"/>
<path d="M53.8407 147.911C53.5897 147.931 53.229 148.16 52.7587 148.599C52.2634 149.04 52.0241 149.366 52.0409 149.577C52.0484 149.671 51.9877 150.018 51.8587 150.618C51.4486 152.445 51.3206 154.957 51.4746 158.155C51.5019 158.814 51.5502 159.577 51.6194 160.445C51.6943 161.383 51.8075 162.011 51.9593 162.33L52.3655 163.147L53.5301 163.019C54.3064 162.933 54.9298 162.671 55.4 162.232C55.8666 161.747 56.1932 161.249 56.3798 160.738C56.767 159.574 56.8317 156.902 56.574 152.721L56.4344 149.545L55.307 148.715C54.6056 148.157 54.1169 147.889 53.8407 147.911ZM53.9072 146.843C55.0871 146.749 56.1086 147.046 56.9718 147.732C57.6174 148.223 58.0304 148.651 58.211 149.014C58.3916 149.377 58.5249 150.098 58.6109 151.177L58.6699 151.916C59.0107 156.822 58.9207 159.969 58.3997 161.356C58.2753 161.696 57.9198 162.149 57.3334 162.715C56.7469 163.281 56.3068 163.623 56.0131 163.741C55.6923 163.838 55.4274 164 55.2183 164.23C55.1003 164.333 54.7776 164.406 54.2504 164.448C53.1207 164.539 52.1546 164.462 51.3521 164.219C50.8331 164.048 50.4276 163.715 50.1354 163.219C49.9046 162.86 49.7626 162.505 49.7094 162.155C49.6293 161.784 49.5271 160.978 49.4028 159.737C49.2157 157.391 49.141 155.662 49.1785 154.55C49.2412 153.435 49.4525 151.967 49.8124 150.144C50.0137 149.184 50.2867 148.49 50.6315 148.061C50.953 147.657 51.5224 147.352 52.3396 147.146C52.9579 146.978 53.4804 146.878 53.9072 146.843Z"/>
<path d="M66.4148 145.917L68.4106 145.757C70.7471 145.595 72.233 145.535 72.8681 145.579C73.4278 145.629 73.718 145.782 73.7386 146.04C73.7536 146.228 73.6119 146.511 73.3136 146.889C72.3918 148.001 71.4598 149.303 70.5177 150.794C70.3801 150.97 70.2124 151.243 70.0146 151.613C69.7897 151.961 69.5988 152.26 69.4418 152.508C69.2829 152.734 69.1579 152.909 69.0668 153.034C68.6404 153.705 68.2176 154.424 67.7987 155.189C67.3834 156.001 67.1823 156.489 67.1954 156.653C67.2048 156.77 67.1621 156.868 67.0673 156.947C66.8544 157.129 66.5149 157.781 66.0487 158.904C65.5555 160.006 65.3173 160.662 65.3341 160.873C65.351 161.084 66.8057 161.11 69.6983 160.95L73.4696 160.72L73.5786 161.136C73.5823 161.183 73.587 161.242 73.5926 161.312C73.6233 161.381 73.6387 161.415 73.6387 161.415C73.6443 161.485 73.5718 161.526 73.4212 161.538C73.3226 161.57 73.1613 161.606 72.9372 161.648L72.8619 161.654C72.4389 161.735 71.6123 161.824 70.3822 161.922C70.106 161.944 69.6416 161.981 68.9889 162.033C68.3594 162.06 67.869 162.087 67.5175 162.115C65.3817 162.262 64.0359 162.334 63.4798 162.331C63.0223 162.297 62.7861 162.186 62.7711 161.998C62.7655 161.928 62.7813 161.809 62.8184 161.641C62.8656 161.283 62.971 160.861 63.1344 160.376C63.3499 159.91 63.4511 159.596 63.438 159.431C63.438 159.431 63.4603 159.394 63.5049 159.32C63.5708 159.197 63.6688 159 63.7989 158.73C63.9057 158.485 64.0153 158.276 64.1277 158.102C65.3371 155.527 66.1996 153.829 66.7153 153.009C67.2811 152.185 67.63 151.65 67.762 151.403C68.049 150.885 68.8969 149.637 70.3055 147.66C70.4217 147.532 70.5002 147.408 70.5411 147.287C70.6284 147.115 70.619 146.997 70.513 146.935C70.4572 146.869 69.293 146.844 67.0205 146.86C64.7731 146.874 63.662 146.88 63.6871 146.878C63.6099 146.86 63.5657 146.781 63.5545 146.64C63.5339 146.382 63.5971 146.224 63.7439 146.165C63.8174 146.136 64.7077 146.053 66.4148 145.917Z"/>
<path d="M80.5554 147.409C80.667 147.541 80.7303 147.701 80.7453 147.889C80.7771 148.288 80.8846 148.527 81.0678 148.607C81.1218 148.65 81.2023 148.868 81.3094 149.26C81.384 149.561 81.5059 149.823 81.6752 150.046C81.8734 150.313 82.0729 150.439 82.2738 150.423C82.3491 150.417 82.41 150.388 82.4564 150.337C82.5261 150.261 82.855 149.633 83.443 148.453C84.1509 147.193 84.5504 146.5 84.6415 146.375C84.8217 146.1 84.9062 145.893 84.895 145.752C84.8931 145.729 85.0162 145.53 85.2643 145.156C85.3749 144.959 85.491 144.831 85.6128 144.775C85.7578 144.692 86.0186 144.636 86.3952 144.606C86.7467 144.578 86.9745 144.583 87.0786 144.622C87.1828 144.661 87.2646 144.737 87.3242 144.85C87.3838 144.964 87.4154 145.044 87.4192 145.091C87.4323 145.255 87.2563 145.741 86.8913 146.549C86.4101 147.484 86.1016 148.052 85.966 148.252C85.8536 148.426 85.5985 148.871 85.2009 149.587C84.7819 150.352 84.5753 150.77 84.5809 150.841C84.5809 150.841 84.383 151.21 83.9872 151.95C82.6467 154.465 81.7812 156.599 81.3906 158.353C80.9572 160.205 80.6523 161.292 80.4758 161.613C80.2974 161.91 79.9195 162.082 79.3421 162.128C78.7145 162.178 78.397 162.156 78.3895 162.063C78.3726 161.851 78.4844 161.193 78.7247 160.088C78.9882 158.958 79.1181 158.369 79.1143 158.322C79.1012 158.158 79.1393 158.002 79.2285 157.853C79.2926 157.706 79.4179 157.378 79.6046 156.867C79.7931 156.38 79.9904 155.845 80.1966 155.262C80.3776 154.681 80.4895 154.342 80.5322 154.244C80.7282 153.851 80.7522 153.518 80.6042 153.247C80.3353 152.725 79.8959 151.651 79.286 150.024C78.6511 148.398 78.255 147.391 78.0976 147.003C77.7365 146.276 77.5391 145.702 77.5054 145.28C77.4886 145.069 77.5285 144.936 77.6252 144.881C77.6252 144.881 77.688 144.876 77.8135 144.866C78.5164 144.81 79.0232 144.828 79.3338 144.921C79.4379 144.96 79.6101 145.218 79.8502 145.695C80.1173 146.193 80.2593 146.547 80.2761 146.758C80.2948 146.993 80.3879 147.21 80.5554 147.409Z"/>
</mask>
<path d="M43.5432 147.564C43.5897 147.513 43.7008 147.481 43.8765 147.467C43.9267 147.463 44.002 147.457 44.1024 147.449C44.2047 147.464 44.2935 147.469 44.3688 147.463L45.1624 147.435L45.2354 148.35C45.2384 148.703 45.2121 149.166 45.1566 149.737C45.1029 150.331 45.0182 151.011 44.9023 151.775C44.7865 152.54 44.7197 152.97 44.7021 153.066C44.6957 153.302 44.6577 153.459 44.588 153.535C44.5183 153.612 44.3598 153.683 44.1125 153.75C43.8401 153.819 43.6536 153.858 43.5532 153.866C42.9256 153.916 42.5875 153.636 42.5388 153.026C42.5145 152.721 42.5687 152.292 42.7014 151.738C42.8555 151.136 42.9287 150.788 42.9213 150.694L42.8347 150.559C42.7268 150.473 42.1796 150.423 41.193 150.407C40.6872 150.4 40.3841 150.401 40.2837 150.409C39.9071 150.439 39.6017 150.569 39.3675 150.8C39.1333 151.032 38.8639 151.454 38.5592 152.069C38.2796 152.681 38.0967 153.239 38.0105 153.741C37.7072 155.323 37.6009 157.633 37.6916 160.671C37.6983 161.072 37.7223 161.53 37.7634 162.046C37.8083 162.609 37.955 163.022 38.2034 163.285C38.5383 163.684 39.0317 164.01 39.6837 164.265C40.3086 164.498 40.9098 164.592 41.4872 164.546C41.7383 164.526 41.9739 164.472 42.1943 164.383C42.4397 164.293 42.6042 164.138 42.6878 163.919C42.7751 163.747 42.8512 163.434 42.9161 162.98C43.0087 162.241 43.1354 161.771 43.2961 161.569C43.4337 161.393 43.7284 161.287 44.1803 161.251C44.5819 161.219 44.8609 161.232 45.0171 161.29C45.1231 161.353 45.1874 161.525 45.2098 161.806C45.2304 162.064 45.1642 162.659 45.0113 163.592C44.9213 164.048 44.8201 164.363 44.7077 164.537C44.5701 164.713 44.309 164.923 43.9241 165.166C43.4156 165.443 42.7221 165.616 41.8434 165.686C39.7598 165.852 38.2891 165.627 37.4315 165.011C37.1925 164.865 36.839 164.551 36.3711 164.069C35.932 163.632 35.6947 163.191 35.6591 162.745C35.6554 162.698 35.6469 162.592 35.6338 162.428C35.6459 162.262 35.6472 162.12 35.6378 162.003C35.5784 160.308 35.5604 158.657 35.5838 157.051C35.6091 155.467 35.677 154.576 35.7875 154.379C35.8749 154.207 35.9472 153.847 36.0046 153.299C36.023 152.897 36.1613 152.413 36.4195 151.85C36.6759 151.263 36.9658 150.78 37.2891 150.4C37.7231 149.822 38.7434 149.469 40.3501 149.341C40.6262 149.319 40.9786 149.303 41.4073 149.292C41.8861 149.278 42.1883 149.265 42.3138 149.255C42.8661 149.211 43.1329 149.072 43.1142 148.837C43.1086 148.767 43.1759 148.502 43.3161 148.042C43.421 147.774 43.4967 147.615 43.5432 147.564Z" fill="#F76513"/>
<path d="M53.8407 147.911C53.5897 147.931 53.229 148.16 52.7587 148.599C52.2634 149.04 52.0241 149.366 52.0409 149.577C52.0484 149.671 51.9877 150.018 51.8587 150.618C51.4486 152.445 51.3206 154.957 51.4746 158.155C51.5019 158.814 51.5502 159.577 51.6194 160.445C51.6943 161.383 51.8075 162.011 51.9593 162.33L52.3655 163.147L53.5301 163.019C54.3064 162.933 54.9298 162.671 55.4 162.232C55.8666 161.747 56.1932 161.249 56.3798 160.738C56.767 159.574 56.8317 156.902 56.574 152.721L56.4344 149.545L55.307 148.715C54.6056 148.157 54.1169 147.889 53.8407 147.911ZM53.9072 146.843C55.0871 146.749 56.1086 147.046 56.9718 147.732C57.6174 148.223 58.0304 148.651 58.211 149.014C58.3916 149.377 58.5249 150.098 58.6109 151.177L58.6699 151.916C59.0107 156.822 58.9207 159.969 58.3997 161.356C58.2753 161.696 57.9198 162.149 57.3334 162.715C56.7469 163.281 56.3068 163.623 56.0131 163.741C55.6923 163.838 55.4274 164 55.2183 164.23C55.1003 164.333 54.7776 164.406 54.2504 164.448C53.1207 164.539 52.1546 164.462 51.3521 164.219C50.8331 164.048 50.4276 163.715 50.1354 163.219C49.9046 162.86 49.7626 162.505 49.7094 162.155C49.6293 161.784 49.5271 160.978 49.4028 159.737C49.2157 157.391 49.141 155.662 49.1785 154.55C49.2412 153.435 49.4525 151.967 49.8124 150.144C50.0137 149.184 50.2867 148.49 50.6315 148.061C50.953 147.657 51.5224 147.352 52.3396 147.146C52.9579 146.978 53.4804 146.878 53.9072 146.843Z" fill="#F76513"/>
<path d="M66.4148 145.917L68.4106 145.757C70.7471 145.595 72.233 145.535 72.8681 145.579C73.4278 145.629 73.718 145.782 73.7386 146.04C73.7536 146.228 73.6119 146.511 73.3136 146.889C72.3918 148.001 71.4598 149.303 70.5177 150.794C70.3801 150.97 70.2124 151.243 70.0146 151.613C69.7897 151.961 69.5988 152.26 69.4418 152.508C69.2829 152.734 69.1579 152.909 69.0668 153.034C68.6404 153.705 68.2176 154.424 67.7987 155.189C67.3834 156.001 67.1823 156.489 67.1954 156.653C67.2048 156.77 67.1621 156.868 67.0673 156.947C66.8544 157.129 66.5149 157.781 66.0487 158.904C65.5555 160.006 65.3173 160.662 65.3341 160.873C65.351 161.084 66.8057 161.11 69.6983 160.95L73.4696 160.72L73.5786 161.136C73.5823 161.183 73.587 161.242 73.5926 161.312C73.6233 161.381 73.6387 161.415 73.6387 161.415C73.6443 161.485 73.5718 161.526 73.4212 161.538C73.3226 161.57 73.1613 161.606 72.9372 161.648L72.8619 161.654C72.4389 161.735 71.6123 161.824 70.3822 161.922C70.106 161.944 69.6416 161.981 68.9889 162.033C68.3594 162.06 67.869 162.087 67.5175 162.115C65.3817 162.262 64.0359 162.334 63.4798 162.331C63.0223 162.297 62.7861 162.186 62.7711 161.998C62.7655 161.928 62.7813 161.809 62.8184 161.641C62.8656 161.283 62.971 160.861 63.1344 160.376C63.3499 159.91 63.4511 159.596 63.438 159.431C63.438 159.431 63.4603 159.394 63.5049 159.32C63.5708 159.197 63.6688 159 63.7989 158.73C63.9057 158.485 64.0153 158.276 64.1277 158.102C65.3371 155.527 66.1996 153.829 66.7153 153.009C67.2811 152.185 67.63 151.65 67.762 151.403C68.049 150.885 68.8969 149.637 70.3055 147.66C70.4217 147.532 70.5002 147.408 70.5411 147.287C70.6284 147.115 70.619 146.997 70.513 146.935C70.4572 146.869 69.293 146.844 67.0205 146.86C64.7731 146.874 63.662 146.88 63.6871 146.878C63.6099 146.86 63.5657 146.781 63.5545 146.64C63.5339 146.382 63.5971 146.224 63.7439 146.165C63.8174 146.136 64.7077 146.053 66.4148 145.917Z" fill="#F76513"/>
<path d="M80.5554 147.409C80.667 147.541 80.7303 147.701 80.7453 147.889C80.7771 148.288 80.8846 148.527 81.0678 148.607C81.1218 148.65 81.2023 148.868 81.3094 149.26C81.384 149.561 81.5059 149.823 81.6752 150.046C81.8734 150.313 82.0729 150.439 82.2738 150.423C82.3491 150.417 82.41 150.388 82.4564 150.337C82.5261 150.261 82.855 149.633 83.443 148.453C84.1509 147.193 84.5504 146.5 84.6415 146.375C84.8217 146.1 84.9062 145.893 84.895 145.752C84.8931 145.729 85.0162 145.53 85.2643 145.156C85.3749 144.959 85.491 144.831 85.6128 144.775C85.7578 144.692 86.0186 144.636 86.3952 144.606C86.7467 144.578 86.9745 144.583 87.0786 144.622C87.1828 144.661 87.2646 144.737 87.3242 144.85C87.3838 144.964 87.4154 145.044 87.4192 145.091C87.4323 145.255 87.2563 145.741 86.8913 146.549C86.4101 147.484 86.1016 148.052 85.966 148.252C85.8536 148.426 85.5985 148.871 85.2009 149.587C84.7819 150.352 84.5753 150.77 84.5809 150.841C84.5809 150.841 84.383 151.21 83.9872 151.95C82.6467 154.465 81.7812 156.599 81.3906 158.353C80.9572 160.205 80.6523 161.292 80.4758 161.613C80.2974 161.91 79.9195 162.082 79.3421 162.128C78.7145 162.178 78.397 162.156 78.3895 162.063C78.3726 161.851 78.4844 161.193 78.7247 160.088C78.9882 158.958 79.1181 158.369 79.1143 158.322C79.1012 158.158 79.1393 158.002 79.2285 157.853C79.2926 157.706 79.4179 157.378 79.6046 156.867C79.7931 156.38 79.9904 155.845 80.1966 155.262C80.3776 154.681 80.4895 154.342 80.5322 154.244C80.7282 153.851 80.7522 153.518 80.6042 153.247C80.3353 152.725 79.8959 151.651 79.286 150.024C78.6511 148.398 78.255 147.391 78.0976 147.003C77.7365 146.276 77.5391 145.702 77.5054 145.28C77.4886 145.069 77.5285 144.936 77.6252 144.881C77.6252 144.881 77.688 144.876 77.8135 144.866C78.5164 144.81 79.0232 144.828 79.3338 144.921C79.4379 144.96 79.6101 145.218 79.8502 145.695C80.1173 146.193 80.2593 146.547 80.2761 146.758C80.2948 146.993 80.3879 147.21 80.5554 147.409Z" fill="#F76513"/>
<path d="M43.5432 147.564C43.5897 147.513 43.7008 147.481 43.8765 147.467C43.9267 147.463 44.002 147.457 44.1024 147.449C44.2047 147.464 44.2935 147.469 44.3688 147.463L45.1624 147.435L45.2354 148.35C45.2384 148.703 45.2121 149.166 45.1566 149.737C45.1029 150.331 45.0182 151.011 44.9023 151.775C44.7865 152.54 44.7197 152.97 44.7021 153.066C44.6957 153.302 44.6577 153.459 44.588 153.535C44.5183 153.612 44.3598 153.683 44.1125 153.75C43.8401 153.819 43.6536 153.858 43.5532 153.866C42.9256 153.916 42.5875 153.636 42.5388 153.026C42.5145 152.721 42.5687 152.292 42.7014 151.738C42.8555 151.136 42.9287 150.788 42.9213 150.694L42.8347 150.559C42.7268 150.473 42.1796 150.423 41.193 150.407C40.6872 150.4 40.3841 150.401 40.2837 150.409C39.9071 150.439 39.6017 150.569 39.3675 150.8C39.1333 151.032 38.8639 151.454 38.5592 152.069C38.2796 152.681 38.0967 153.239 38.0105 153.741C37.7072 155.323 37.6009 157.633 37.6916 160.671C37.6983 161.072 37.7223 161.53 37.7634 162.046C37.8083 162.609 37.955 163.022 38.2034 163.285C38.5383 163.684 39.0317 164.01 39.6837 164.265C40.3086 164.498 40.9098 164.592 41.4872 164.546C41.7383 164.526 41.9739 164.472 42.1943 164.383C42.4397 164.293 42.6042 164.138 42.6878 163.919C42.7751 163.747 42.8512 163.434 42.9161 162.98C43.0087 162.241 43.1354 161.771 43.2961 161.569C43.4337 161.393 43.7284 161.287 44.1803 161.251C44.5819 161.219 44.8609 161.232 45.0171 161.29C45.1231 161.353 45.1874 161.525 45.2098 161.806C45.2304 162.064 45.1642 162.659 45.0113 163.592C44.9213 164.048 44.8201 164.363 44.7077 164.537C44.5701 164.713 44.309 164.923 43.9241 165.166C43.4156 165.443 42.7221 165.616 41.8434 165.686C39.7598 165.852 38.2891 165.627 37.4315 165.011C37.1925 164.865 36.839 164.551 36.3711 164.069C35.932 163.632 35.6947 163.191 35.6591 162.745C35.6554 162.698 35.6469 162.592 35.6338 162.428C35.6459 162.262 35.6472 162.12 35.6378 162.003C35.5784 160.308 35.5604 158.657 35.5838 157.051C35.6091 155.467 35.677 154.576 35.7875 154.379C35.8749 154.207 35.9472 153.847 36.0046 153.299C36.023 152.897 36.1613 152.413 36.4195 151.85C36.6759 151.263 36.9658 150.78 37.2891 150.4C37.7231 149.822 38.7434 149.469 40.3501 149.341C40.6262 149.319 40.9786 149.303 41.4073 149.292C41.8861 149.278 42.1883 149.265 42.3138 149.255C42.8661 149.211 43.1329 149.072 43.1142 148.837C43.1086 148.767 43.1759 148.502 43.3161 148.042C43.421 147.774 43.4967 147.615 43.5432 147.564Z" stroke="#F5F0F0" stroke-width="12" stroke-linejoin="round" mask="url(#path-57-outside-1_94_6516)"/>
<path d="M53.8407 147.911C53.5897 147.931 53.229 148.16 52.7587 148.599C52.2634 149.04 52.0241 149.366 52.0409 149.577C52.0484 149.671 51.9877 150.018 51.8587 150.618C51.4486 152.445 51.3206 154.957 51.4746 158.155C51.5019 158.814 51.5502 159.577 51.6194 160.445C51.6943 161.383 51.8075 162.011 51.9593 162.33L52.3655 163.147L53.5301 163.019C54.3064 162.933 54.9298 162.671 55.4 162.232C55.8666 161.747 56.1932 161.249 56.3798 160.738C56.767 159.574 56.8317 156.902 56.574 152.721L56.4344 149.545L55.307 148.715C54.6056 148.157 54.1169 147.889 53.8407 147.911ZM53.9072 146.843C55.0871 146.749 56.1086 147.046 56.9718 147.732C57.6174 148.223 58.0304 148.651 58.211 149.014C58.3916 149.377 58.5249 150.098 58.6109 151.177L58.6699 151.916C59.0107 156.822 58.9207 159.969 58.3997 161.356C58.2753 161.696 57.9198 162.149 57.3334 162.715C56.7469 163.281 56.3068 163.623 56.0131 163.741C55.6923 163.838 55.4274 164 55.2183 164.23C55.1003 164.333 54.7776 164.406 54.2504 164.448C53.1207 164.539 52.1546 164.462 51.3521 164.219C50.8331 164.048 50.4276 163.715 50.1354 163.219C49.9046 162.86 49.7626 162.505 49.7094 162.155C49.6293 161.784 49.5271 160.978 49.4028 159.737C49.2157 157.391 49.141 155.662 49.1785 154.55C49.2412 153.435 49.4525 151.967 49.8124 150.144C50.0137 149.184 50.2867 148.49 50.6315 148.061C50.953 147.657 51.5224 147.352 52.3396 147.146C52.9579 146.978 53.4804 146.878 53.9072 146.843Z" stroke="#F5F0F0" stroke-width="12" stroke-linejoin="round" mask="url(#path-57-outside-1_94_6516)"/>
<path d="M66.4148 145.917L68.4106 145.757C70.7471 145.595 72.233 145.535 72.8681 145.579C73.4278 145.629 73.718 145.782 73.7386 146.04C73.7536 146.228 73.6119 146.511 73.3136 146.889C72.3918 148.001 71.4598 149.303 70.5177 150.794C70.3801 150.97 70.2124 151.243 70.0146 151.613C69.7897 151.961 69.5988 152.26 69.4418 152.508C69.2829 152.734 69.1579 152.909 69.0668 153.034C68.6404 153.705 68.2176 154.424 67.7987 155.189C67.3834 156.001 67.1823 156.489 67.1954 156.653C67.2048 156.77 67.1621 156.868 67.0673 156.947C66.8544 157.129 66.5149 157.781 66.0487 158.904C65.5555 160.006 65.3173 160.662 65.3341 160.873C65.351 161.084 66.8057 161.11 69.6983 160.95L73.4696 160.72L73.5786 161.136C73.5823 161.183 73.587 161.242 73.5926 161.312C73.6233 161.381 73.6387 161.415 73.6387 161.415C73.6443 161.485 73.5718 161.526 73.4212 161.538C73.3226 161.57 73.1613 161.606 72.9372 161.648L72.8619 161.654C72.4389 161.735 71.6123 161.824 70.3822 161.922C70.106 161.944 69.6416 161.981 68.9889 162.033C68.3594 162.06 67.869 162.087 67.5175 162.115C65.3817 162.262 64.0359 162.334 63.4798 162.331C63.0223 162.297 62.7861 162.186 62.7711 161.998C62.7655 161.928 62.7813 161.809 62.8184 161.641C62.8656 161.283 62.971 160.861 63.1344 160.376C63.3499 159.91 63.4511 159.596 63.438 159.431C63.438 159.431 63.4603 159.394 63.5049 159.32C63.5708 159.197 63.6688 159 63.7989 158.73C63.9057 158.485 64.0153 158.276 64.1277 158.102C65.3371 155.527 66.1996 153.829 66.7153 153.009C67.2811 152.185 67.63 151.65 67.762 151.403C68.049 150.885 68.8969 149.637 70.3055 147.66C70.4217 147.532 70.5002 147.408 70.5411 147.287C70.6284 147.115 70.619 146.997 70.513 146.935C70.4572 146.869 69.293 146.844 67.0205 146.86C64.7731 146.874 63.662 146.88 63.6871 146.878C63.6099 146.86 63.5657 146.781 63.5545 146.64C63.5339 146.382 63.5971 146.224 63.7439 146.165C63.8174 146.136 64.7077 146.053 66.4148 145.917Z" stroke="#F5F0F0" stroke-width="12" stroke-linejoin="round" mask="url(#path-57-outside-1_94_6516)"/>
<path d="M80.5554 147.409C80.667 147.541 80.7303 147.701 80.7453 147.889C80.7771 148.288 80.8846 148.527 81.0678 148.607C81.1218 148.65 81.2023 148.868 81.3094 149.26C81.384 149.561 81.5059 149.823 81.6752 150.046C81.8734 150.313 82.0729 150.439 82.2738 150.423C82.3491 150.417 82.41 150.388 82.4564 150.337C82.5261 150.261 82.855 149.633 83.443 148.453C84.1509 147.193 84.5504 146.5 84.6415 146.375C84.8217 146.1 84.9062 145.893 84.895 145.752C84.8931 145.729 85.0162 145.53 85.2643 145.156C85.3749 144.959 85.491 144.831 85.6128 144.775C85.7578 144.692 86.0186 144.636 86.3952 144.606C86.7467 144.578 86.9745 144.583 87.0786 144.622C87.1828 144.661 87.2646 144.737 87.3242 144.85C87.3838 144.964 87.4154 145.044 87.4192 145.091C87.4323 145.255 87.2563 145.741 86.8913 146.549C86.4101 147.484 86.1016 148.052 85.966 148.252C85.8536 148.426 85.5985 148.871 85.2009 149.587C84.7819 150.352 84.5753 150.77 84.5809 150.841C84.5809 150.841 84.383 151.21 83.9872 151.95C82.6467 154.465 81.7812 156.599 81.3906 158.353C80.9572 160.205 80.6523 161.292 80.4758 161.613C80.2974 161.91 79.9195 162.082 79.3421 162.128C78.7145 162.178 78.397 162.156 78.3895 162.063C78.3726 161.851 78.4844 161.193 78.7247 160.088C78.9882 158.958 79.1181 158.369 79.1143 158.322C79.1012 158.158 79.1393 158.002 79.2285 157.853C79.2926 157.706 79.4179 157.378 79.6046 156.867C79.7931 156.38 79.9904 155.845 80.1966 155.262C80.3776 154.681 80.4895 154.342 80.5322 154.244C80.7282 153.851 80.7522 153.518 80.6042 153.247C80.3353 152.725 79.8959 151.651 79.286 150.024C78.6511 148.398 78.255 147.391 78.0976 147.003C77.7365 146.276 77.5391 145.702 77.5054 145.28C77.4886 145.069 77.5285 144.936 77.6252 144.881C77.6252 144.881 77.688 144.876 77.8135 144.866C78.5164 144.81 79.0232 144.828 79.3338 144.921C79.4379 144.96 79.6101 145.218 79.8502 145.695C80.1173 146.193 80.2593 146.547 80.2761 146.758C80.2948 146.993 80.3879 147.21 80.5554 147.409Z" stroke="#F5F0F0" stroke-width="12" stroke-linejoin="round" mask="url(#path-57-outside-1_94_6516)"/>
<defs>
<filter id="filter0_i_94_6516" x="56.5" y="72.7209" width="85.8605" height="85.8606" filterUnits="userSpaceOnUse" color-interpolation-filters="sRGB">
<feFlood flood-opacity="0" result="BackgroundImageFix"/>
<feBlend mode="normal" in="SourceGraphic" in2="BackgroundImageFix" result="shape"/>
<feColorMatrix in="SourceAlpha" type="matrix" values="0 0 0 0 0 0 0 0 0 0 0 0 0 0 0 0 0 0 127 0" result="hardAlpha"/>
<feOffset/>
<feGaussianBlur stdDeviation="9.90698"/>
<feComposite in2="hardAlpha" operator="arithmetic" k2="-1" k3="1"/>
<feColorMatrix type="matrix" values="0 0 0 0 1 0 0 0 0 0.906209 0 0 0 0 0.852614 0 0 0 1 0"/>
<feBlend mode="normal" in2="shape" result="effect1_innerShadow_94_6516"/>
</filter>
<linearGradient id="paint0_linear_94_6516" x1="110" y1="14" x2="110" y2="122" gradientUnits="userSpaceOnUse">
<stop stop-color="#A6DDFF" stop-opacity="0"/>
<stop offset="1" stop-color="#A6DDFF"/>
</linearGradient>
<linearGradient id="paint1_linear_94_6516" x1="68.1337" y1="62.1933" x2="59.8285" y2="163.855" gradientUnits="userSpaceOnUse">
<stop stop-color="#FFE66A"/>
<stop offset="1" stop-color="#FFE66A" stop-opacity="0"/>
</linearGradient>
<linearGradient id="paint2_linear_94_6516" x1="70.25" y1="32" x2="70.25" y2="126.5" gradientUnits="userSpaceOnUse">
<stop stop-color="#D9D9D9"/>
<stop offset="1" stop-color="#737373"/>
</linearGradient>
<linearGradient id="paint3_linear_94_6516" x1="120.895" y1="54.1453" x2="90.3486" y2="49.6047" gradientUnits="userSpaceOnUse">
<stop stop-color="#FFF3EC"/>
<stop offset="0.581731" stop-color="#F1C4A9"/>
<stop offset="1" stop-color="#FFF3EC"/>
</linearGradient>
<linearGradient id="paint4_linear_94_6516" x1="126.674" y1="54.5583" x2="71.36" y2="64.8781" gradientUnits="userSpaceOnUse">
<stop stop-color="#FFF3EC"/>
<stop offset="0.292212" stop-color="#F1C4A9"/>
<stop offset="1" stop-color="#FFF3EC"/>
</linearGradient>
<linearGradient id="paint5_linear_94_6516" x1="90.3422" y1="54.2227" x2="90.3422" y2="55.0482" gradientUnits="userSpaceOnUse">
<stop stop-color="#FB4239"/>
<stop offset="1" stop-color="#FF8A84"/>
</linearGradient>
<linearGradient id="paint6_linear_94_6516" x1="100.991" y1="53.7324" x2="100.991" y2="54.558" gradientUnits="userSpaceOnUse">
<stop stop-color="#FB4239"/>
<stop offset="1" stop-color="#FF8A84"/>
</linearGradient>
<linearGradient id="paint7_linear_94_6516" x1="114.2" y1="57.8604" x2="114.2" y2="58.6859" gradientUnits="userSpaceOnUse">
<stop stop-color="#FB4239"/>
<stop offset="1" stop-color="#FF8A84"/>
</linearGradient>
<linearGradient id="paint8_linear_94_6516" x1="139.059" y1="76.8488" x2="59.8027" y2="62.814" gradientUnits="userSpaceOnUse">
<stop stop-color="#FFF3EC"/>
<stop offset="0.609324" stop-color="#F1C4A9"/>
<stop offset="1" stop-color="#FFF3EC"/>
</linearGradient>
<linearGradient id="paint9_linear_94_6516" x1="181.988" y1="117.302" x2="102.732" y2="117.302" gradientUnits="userSpaceOnUse">
<stop stop-color="#F7D542"/>
<stop offset="1" stop-color="#FFF3BD"/>
</linearGradient>
<linearGradient id="paint10_linear_94_6516" x1="99.4302" y1="158.582" x2="99.4302" y2="185" gradientUnits="userSpaceOnUse">
<stop stop-color="#FB4239"/>
<stop offset="1" stop-color="#FF8A84"/>
</linearGradient>
<linearGradient id="paint11_linear_94_6516" x1="87.0463" y1="63.6397" x2="87.0463" y2="65.2908" gradientUnits="userSpaceOnUse">
<stop stop-color="#9D5F37"/>
<stop offset="1" stop-color="#E09D73"/>
</linearGradient>
<linearGradient id="paint12_linear_94_6516" x1="96.1283" y1="73.5464" x2="96.1283" y2="75.1975" gradientUnits="userSpaceOnUse">
<stop stop-color="#9D5F37"/>
<stop offset="1" stop-color="#E09D73"/>
</linearGradient>
<linearGradient id="paint13_linear_94_6516" x1="72.1859" y1="66.1162" x2="72.1859" y2="67.7674" gradientUnits="userSpaceOnUse">
<stop stop-color="#9D5F37"/>
<stop offset="1" stop-color="#E09D73"/>
</linearGradient>
<linearGradient id="paint14_linear_94_6516" x1="72.1859" y1="76.0232" x2="72.1859" y2="77.6744" gradientUnits="userSpaceOnUse">
<stop stop-color="#9D5F37"/>
<stop offset="1" stop-color="#E09D73"/>
</linearGradient>
<linearGradient id="paint15_linear_94_6516" x1="135.756" y1="74.3721" x2="135.756" y2="76.0232" gradientUnits="userSpaceOnUse">
<stop stop-color="#9D5F37"/>
<stop offset="1" stop-color="#E09D73"/>
</linearGradient>
<linearGradient id="paint16_linear_94_6516" x1="96.9535" y1="53.7324" x2="96.9535" y2="55.3836" gradientUnits="userSpaceOnUse">
<stop stop-color="#9D5F37"/>
<stop offset="1" stop-color="#E09D73"/>
</linearGradient>
<linearGradient id="paint17_linear_94_6516" x1="106.035" y1="55.3838" x2="106.035" y2="57.035" gradientUnits="userSpaceOnUse">
<stop stop-color="#9D5F37"/>
<stop offset="1" stop-color="#E09D73"/>
</linearGradient>
<linearGradient id="paint18_linear_94_6516" x1="119.245" y1="65.2905" x2="119.245" y2="66.9417" gradientUnits="userSpaceOnUse">
<stop stop-color="#9D5F37"/>
<stop offset="1" stop-color="#E09D73"/>
</linearGradient>
<linearGradient id="paint19_linear_94_6516" x1="119.245" y1="75.1978" x2="119.245" y2="76.8489" gradientUnits="userSpaceOnUse">
<stop stop-color="#9D5F37"/>
<stop offset="1" stop-color="#E09D73"/>
</linearGradient>
<linearGradient id="paint20_linear_94_6516" x1="83.7445" y1="53.7324" x2="83.7445" y2="55.3836" gradientUnits="userSpaceOnUse">
<stop stop-color="#9D5F37"/>
<stop offset="1" stop-color="#E09D73"/>
</linearGradient>
<linearGradient id="paint21_linear_94_6516" x1="89.9362" y1="66.1162" x2="89.9362" y2="66.9418" gradientUnits="userSpaceOnUse">
<stop stop-color="#9D5F37"/>
<stop offset="1" stop-color="#E09D73"/>
</linearGradient>
<linearGradient id="paint22_linear_94_6516" x1="89.9362" y1="76.0232" x2="89.9362" y2="76.8488" gradientUnits="userSpaceOnUse">
<stop stop-color="#9D5F37"/>
<stop offset="1" stop-color="#E09D73"/>
</linearGradient>
<linearGradient id="paint23_linear_94_6516" x1="75.9011" y1="63.6396" x2="75.9011" y2="64.4652" gradientUnits="userSpaceOnUse">
<stop stop-color="#9D5F37"/>
<stop offset="1" stop-color="#E09D73"/>
</linearGradient>
<linearGradient id="paint24_linear_94_6516" x1="75.9011" y1="73.5464" x2="75.9011" y2="74.372" gradientUnits="userSpaceOnUse">
<stop stop-color="#9D5F37"/>
<stop offset="1" stop-color="#E09D73"/>
</linearGradient>
<linearGradient id="paint25_linear_94_6516" x1="80.029" y1="76.8489" x2="80.029" y2="77.6745" gradientUnits="userSpaceOnUse">
<stop stop-color="#9D5F37"/>
<stop offset="1" stop-color="#E09D73"/>
</linearGradient>
<linearGradient id="paint26_linear_94_6516" x1="67.6452" y1="66.1162" x2="67.6452" y2="66.9418" gradientUnits="userSpaceOnUse">
<stop stop-color="#9D5F37"/>
<stop offset="1" stop-color="#E09D73"/>
</linearGradient>
<linearGradient id="paint27_linear_94_6516" x1="67.6452" y1="76.0232" x2="67.6452" y2="76.8488" gradientUnits="userSpaceOnUse">
<stop stop-color="#9D5F37"/>
<stop offset="1" stop-color="#E09D73"/>
</linearGradient>
<linearGradient id="paint28_linear_94_6516" x1="84.1569" y1="61.1628" x2="84.1569" y2="61.9884" gradientUnits="userSpaceOnUse">
<stop stop-color="#9D5F37"/>
<stop offset="1" stop-color="#E09D73"/>
</linearGradient>
<linearGradient id="paint29_linear_94_6516" x1="93.238" y1="52.907" x2="93.238" y2="53.7326" gradientUnits="userSpaceOnUse">
<stop stop-color="#9D5F37"/>
<stop offset="1" stop-color="#E09D73"/>
</linearGradient>
<linearGradient id="paint30_linear_94_6516" x1="98.1921" y1="44.6511" x2="98.1921" y2="45.4767" gradientUnits="userSpaceOnUse">
<stop stop-color="#9D5F37"/>
<stop offset="1" stop-color="#E09D73"/>
</linearGradient>
<linearGradient id="paint31_linear_94_6516" x1="102.32" y1="46.3022" x2="102.32" y2="47.1278" gradientUnits="userSpaceOnUse">
<stop stop-color="#9D5F37"/>
<stop offset="1" stop-color="#E09D73"/>
</linearGradient>
<linearGradient id="paint32_linear_94_6516" x1="80.8542" y1="54.5581" x2="80.8542" y2="55.3837" gradientUnits="userSpaceOnUse">
<stop stop-color="#9D5F37"/>
<stop offset="1" stop-color="#E09D73"/>
</linearGradient>
<linearGradient id="paint33_linear_94_6516" x1="85.8083" y1="52.907" x2="85.8083" y2="53.7326" gradientUnits="userSpaceOnUse">
<stop stop-color="#9D5F37"/>
<stop offset="1" stop-color="#E09D73"/>
</linearGradient>
<linearGradient id="paint34_linear_94_6516" x1="108.098" y1="52.907" x2="108.098" y2="53.7326" gradientUnits="userSpaceOnUse">
<stop stop-color="#9D5F37"/>
<stop offset="1" stop-color="#E09D73"/>
</linearGradient>
<linearGradient id="paint35_linear_94_6516" x1="85.8083" y1="52.907" x2="85.8083" y2="53.7326" gradientUnits="userSpaceOnUse">
<stop stop-color="#9D5F37"/>
<stop offset="1" stop-color="#E09D73"/>
</linearGradient>
<linearGradient id="paint36_linear_94_6516" x1="113.878" y1="63.6396" x2="113.878" y2="64.4652" gradientUnits="userSpaceOnUse">
<stop stop-color="#9D5F37"/>
<stop offset="1" stop-color="#E09D73"/>
</linearGradient>
<linearGradient id="paint37_linear_94_6516" x1="113.878" y1="73.5464" x2="113.878" y2="74.372" gradientUnits="userSpaceOnUse">
<stop stop-color="#9D5F37"/>
<stop offset="1" stop-color="#E09D73"/>
</linearGradient>
<linearGradient id="paint38_linear_94_6516" x1="113.052" y1="54.5581" x2="113.052" y2="55.3837" gradientUnits="userSpaceOnUse">
<stop stop-color="#9D5F37"/>
<stop offset="1" stop-color="#E09D73"/>
</linearGradient>
<linearGradient id="paint39_linear_94_6516" x1="116.354" y1="57.0349" x2="116.354" y2="57.8605" gradientUnits="userSpaceOnUse">
<stop stop-color="#9D5F37"/>
<stop offset="1" stop-color="#E09D73"/>
</linearGradient>
<linearGradient id="paint40_linear_94_6516" x1="118.006" y1="54.5581" x2="118.006" y2="55.3837" gradientUnits="userSpaceOnUse">
<stop stop-color="#9D5F37"/>
<stop offset="1" stop-color="#E09D73"/>
</linearGradient>
<linearGradient id="paint41_linear_94_6516" x1="122.96" y1="63.6396" x2="122.96" y2="64.4652" gradientUnits="userSpaceOnUse">
<stop stop-color="#9D5F37"/>
<stop offset="1" stop-color="#E09D73"/>
</linearGradient>
<linearGradient id="paint42_linear_94_6516" x1="122.96" y1="73.5464" x2="122.96" y2="74.372" gradientUnits="userSpaceOnUse">
<stop stop-color="#9D5F37"/>
<stop offset="1" stop-color="#E09D73"/>
</linearGradient>
<linearGradient id="paint43_linear_94_6516" x1="103.97" y1="63.6396" x2="103.97" y2="64.4652" gradientUnits="userSpaceOnUse">
<stop stop-color="#9D5F37"/>
<stop offset="1" stop-color="#E09D73"/>
</linearGradient>
<linearGradient id="paint44_linear_94_6516" x1="103.97" y1="73.5464" x2="103.97" y2="74.372" gradientUnits="userSpaceOnUse">
<stop stop-color="#9D5F37"/>
<stop offset="1" stop-color="#E09D73"/>
</linearGradient>
<linearGradient id="paint45_linear_94_6516" x1="105.622" y1="75.1978" x2="105.622" y2="76.0233" gradientUnits="userSpaceOnUse">
<stop stop-color="#9D5F37"/>
<stop offset="1" stop-color="#E09D73"/>
</linearGradient>
<linearGradient id="paint46_linear_94_6516" x1="115.529" y1="77.6743" x2="115.529" y2="78.4999" gradientUnits="userSpaceOnUse">
<stop stop-color="#9D5F37"/>
<stop offset="1" stop-color="#E09D73"/>
</linearGradient>
<linearGradient id="paint47_linear_94_6516" x1="130.389" y1="76.0232" x2="130.389" y2="76.8488" gradientUnits="userSpaceOnUse">
<stop stop-color="#9D5F37"/>
<stop offset="1" stop-color="#E09D73"/>
</linearGradient>
<linearGradient id="paint48_linear_94_6516" x1="61.0407" y1="76.0232" x2="61.0407" y2="76.8488" gradientUnits="userSpaceOnUse">
<stop stop-color="#9D5F37"/>
<stop offset="1" stop-color="#E09D73"/>
</linearGradient>
<linearGradient id="paint49_linear_94_6516" x1="78.7875" y1="66.9353" x2="78.7875" y2="67.7609" gradientUnits="userSpaceOnUse">
<stop stop-color="#FB4239"/>
<stop offset="1" stop-color="#FF8A84"/>
</linearGradient>
<linearGradient id="paint50_linear_94_6516" x1="72.1791" y1="64.1296" x2="72.1791" y2="64.9552" gradientUnits="userSpaceOnUse">
<stop stop-color="#FB4239"/>
<stop offset="1" stop-color="#FF8A84"/>
</linearGradient>
<linearGradient id="paint51_linear_94_6516" x1="90.3422" y1="54.2227" x2="90.3422" y2="55.0482" gradientUnits="userSpaceOnUse">
<stop stop-color="#FB4239"/>
<stop offset="1" stop-color="#FF8A84"/>
</linearGradient>
<linearGradient id="paint52_linear_94_6516" x1="97.517" y1="63.9521" x2="97.517" y2="64.7777" gradientUnits="userSpaceOnUse">
<stop stop-color="#FB4239"/>
<stop offset="1" stop-color="#FF8A84"/>
</linearGradient>
<linearGradient id="paint53_linear_94_6516" x1="125.586" y1="64.7778" x2="125.586" y2="65.6034" gradientUnits="userSpaceOnUse">
<stop stop-color="#FB4239"/>
<stop offset="1" stop-color="#FF8A84"/>
</linearGradient>
</defs>
</svg>
