<svg width="120" height="119" viewBox="0 0 120 119" fill="none" xmlns="http://www.w3.org/2000/svg">
<path d="M82.0974 13.6982L80.7043 20.0835L75.7553 42.7601L98.4524 37.263L104.648 35.7626L105.771 42.0383L108.907 59.5756L110.074 66.0954L103.47 66.613L81.3914 68.345L94.9959 89.0285L98.5889 94.4915L92.838 97.6028L76.0441 106.69L70.3801 109.755L67.723 103.888L56.8325 79.8414L39.6164 100.305L35.4401 105.27L30.8166 100.717L17.3638 87.4734L12.7689 82.9504L17.6114 78.6925L36.191 62.353L15.7096 54.9531L9.42023 52.6803L12.3594 46.6737L20.3371 30.3673L23.133 24.6513L28.675 27.7781L48.6421 39.0433L49.66 16.0397L49.9491 9.51063L82.0974 13.6982Z" fill="#F76513" stroke="#F5F0F0" stroke-width="12"/>
</svg>
