<svg width="151" height="151" viewBox="0 0 151 151" fill="none" xmlns="http://www.w3.org/2000/svg">
<g filter="url(#filter0_i_86_3583)">
<path d="M82.2236 46.1111C84.5609 46.1111 86.4808 47.9435 87.0566 50.2087C87.8288 53.2463 89.3087 56.8046 91.834 59.7595C95.6814 64.2616 100.104 69.2095 100.104 75.1316V134.577C100.104 137.02 98.1243 139 95.6816 139H55.3184C52.8757 139 50.8956 137.02 50.8955 134.577V75.1316C50.8957 69.2095 55.3186 64.2616 59.166 59.7595C61.6913 56.8046 63.1712 53.2463 63.9434 50.2087C64.5192 47.9435 66.4391 46.1111 68.7764 46.1111H82.2236Z" fill="#F6F6F6"/>
</g>
<path d="M97.4681 130.707C97.4678 133.149 95.4879 135.13 93.0452 135.13H57.9544C55.5119 135.129 53.5318 133.149 53.5316 130.707V103.061H97.4681V130.707Z" fill="white"/>
<path d="M81.0569 52.1931C83.3942 52.1931 85.3136 54.028 85.9319 56.282C86.1572 57.1031 86.4413 57.9602 86.7894 58.8279H64.2112C64.5593 57.9603 64.8425 57.103 65.0677 56.282C65.686 54.0281 67.6055 52.1932 69.9427 52.1931H81.0569Z" fill="white"/>
<path d="M63.0588 130.706C63.364 130.706 63.6123 130.954 63.6125 131.259C63.6125 131.564 63.3642 131.812 63.0588 131.812C62.7537 131.812 62.5061 131.564 62.5061 131.259C62.5064 130.954 62.7538 130.706 63.0588 130.706Z" fill="#EBEBEB"/>
<path d="M94.0227 130.706C94.3277 130.706 94.5752 130.954 94.5754 131.259C94.5754 131.564 94.3279 131.812 94.0227 131.812C93.7173 131.812 93.469 131.564 93.469 131.259C93.4692 130.954 93.7175 130.706 94.0227 130.706Z" fill="#EBEBEB"/>
<path d="M71.9055 129.601C72.2108 129.601 72.4592 129.848 72.4592 130.153C72.4592 130.459 72.2109 130.706 71.9055 130.706C71.6003 130.706 71.3528 130.459 71.3528 130.153C71.3528 129.848 71.6003 129.601 71.9055 129.601Z" fill="#EBEBEB"/>
<path d="M77.4348 129.601C77.7401 129.601 77.9875 129.848 77.9875 130.153C77.9875 130.459 77.7402 130.706 77.4348 130.706C77.1295 130.706 76.8821 130.459 76.8821 130.153C76.8821 129.848 77.1295 129.601 77.4348 129.601Z" fill="#EBEBEB"/>
<path d="M87.387 127.389C87.6922 127.389 87.9405 127.636 87.9407 127.941C87.9407 128.247 87.6923 128.495 87.387 128.495C87.0818 128.495 86.8342 128.247 86.8342 127.941C86.8344 127.636 87.0819 127.389 87.387 127.389Z" fill="#EBEBEB"/>
<path d="M55.3186 126.283C55.6239 126.283 55.8713 126.531 55.8713 126.836C55.8713 127.141 55.6239 127.389 55.3186 127.389C55.0132 127.389 54.7659 127.141 54.7659 126.836C54.7659 126.531 55.0133 126.283 55.3186 126.283Z" fill="#EBEBEB"/>
<path d="M60.8479 126.283C61.1531 126.283 61.4006 126.531 61.4006 126.836C61.4006 127.141 61.1531 127.389 60.8479 127.389C60.5425 127.389 60.2952 127.141 60.2952 126.836C60.2952 126.531 60.5426 126.283 60.8479 126.283Z" fill="#EBEBEB"/>
<path d="M69.6946 122.966C69.9998 122.966 70.2473 123.213 70.2473 123.519C70.2473 123.824 69.9998 124.071 69.6946 124.071C69.3892 124.071 69.1409 123.824 69.1409 123.519C69.1409 123.213 69.3892 122.966 69.6946 122.966Z" fill="#EBEBEB"/>
<path d="M79.6467 121.859C79.952 121.859 80.1995 122.108 80.1995 122.413C80.1993 122.718 79.9519 122.966 79.6467 122.966C79.3415 122.966 79.0942 122.718 79.094 122.413C79.094 122.108 79.3414 121.859 79.6467 121.859Z" fill="#EBEBEB"/>
<path d="M88.4934 121.859C88.7986 121.86 89.0461 122.108 89.0461 122.413C89.0459 122.718 88.7985 122.966 88.4934 122.966C88.1882 122.966 87.9409 122.718 87.9407 122.413C87.9407 122.108 88.188 121.859 88.4934 121.859Z" fill="#EBEBEB"/>
<path d="M63.0588 119.648C63.3642 119.648 63.6125 119.896 63.6125 120.201C63.6125 120.506 63.3642 120.754 63.0588 120.754C62.7537 120.754 62.5062 120.506 62.5061 120.201C62.5061 119.896 62.7537 119.649 63.0588 119.648Z" fill="#EBEBEB"/>
<path d="M92.9163 119.648C93.2216 119.648 93.469 119.896 93.469 120.201C93.4689 120.506 93.2216 120.754 92.9163 120.754C92.611 120.754 92.3636 120.506 92.3635 120.201C92.3635 119.896 92.611 119.649 92.9163 119.648Z" fill="#EBEBEB"/>
<path d="M75.2229 118.542C75.5283 118.542 75.7766 118.79 75.7766 119.096C75.7764 119.401 75.5281 119.648 75.2229 119.648C74.9179 119.648 74.6704 119.401 74.6702 119.096C74.6702 118.79 74.9177 118.542 75.2229 118.542Z" fill="#EBEBEB"/>
<path d="M67.4827 117.437C67.7879 117.437 68.0353 117.684 68.0354 117.989C68.0354 118.295 67.788 118.542 67.4827 118.542C67.1773 118.542 66.9299 118.295 66.9299 117.989C66.93 117.684 67.1774 117.437 67.4827 117.437Z" fill="#EBEBEB"/>
<path d="M86.2815 116.331C86.5869 116.331 86.8342 116.578 86.8342 116.884C86.8341 117.189 86.5868 117.437 86.2815 117.437C85.9762 117.437 85.7289 117.189 85.7288 116.884C85.7288 116.578 85.9761 116.331 86.2815 116.331Z" fill="#EBEBEB"/>
<path d="M55.3186 114.119C55.6239 114.119 55.8713 114.367 55.8713 114.672C55.8713 114.977 55.6239 115.225 55.3186 115.225C55.0132 115.225 54.7659 114.977 54.7659 114.672C54.7659 114.367 55.0133 114.119 55.3186 114.119Z" fill="#EBEBEB"/>
<path d="M81.8586 111.907C82.1637 111.907 82.4112 112.155 82.4114 112.46C82.4114 112.765 82.1638 113.013 81.8586 113.014C81.5533 113.014 81.3049 112.765 81.3049 112.46C81.3051 112.155 81.5534 111.907 81.8586 111.907Z" fill="#EBEBEB"/>
<path d="M63.0588 110.802C63.3642 110.802 63.6125 111.049 63.6125 111.354C63.6125 111.66 63.3642 111.907 63.0588 111.907C62.7537 111.907 62.5061 111.66 62.5061 111.354C62.5061 111.049 62.7537 110.802 63.0588 110.802Z" fill="#EBEBEB"/>
<path d="M91.8108 110.802C92.1161 110.802 92.3635 111.049 92.3635 111.354C92.3635 111.66 92.1161 111.907 91.8108 111.907C91.5054 111.907 91.2581 111.66 91.2581 111.354C91.2581 111.049 91.5054 110.802 91.8108 110.802Z" fill="#EBEBEB"/>
<path d="M57.5305 108.59C57.8356 108.59 58.0831 108.837 58.0833 109.143C58.0833 109.448 57.8357 109.695 57.5305 109.695C57.2252 109.695 56.9768 109.448 56.9768 109.143C56.977 108.837 57.2252 108.59 57.5305 108.59Z" fill="#EBEBEB"/>
<path d="M77.4348 107.484C77.7402 107.484 77.9875 107.732 77.9875 108.037C77.9875 108.342 77.7402 108.59 77.4348 108.59C77.1295 108.59 76.8821 108.342 76.8821 108.037C76.8821 107.732 77.1295 107.484 77.4348 107.484Z" fill="#EBEBEB"/>
<path d="M88.4934 106.378C88.7986 106.378 89.0461 106.626 89.0461 106.932C89.0459 107.237 88.7985 107.484 88.4934 107.484C88.1882 107.484 87.9409 107.237 87.9407 106.932C87.9407 106.626 88.188 106.378 88.4934 106.378Z" fill="#EBEBEB"/>
<path d="M69.6946 105.272C69.9997 105.273 70.2472 105.52 70.2473 105.825C70.2473 106.13 69.9998 106.378 69.6946 106.378C69.3892 106.378 69.1409 106.131 69.1409 105.825C69.141 105.52 69.3893 105.272 69.6946 105.272Z" fill="#EBEBEB"/>
<path d="M95.1282 105.272C95.4334 105.273 95.6808 105.52 95.6809 105.825C95.6809 106.131 95.4335 106.378 95.1282 106.378C94.8228 106.378 94.5754 106.131 94.5754 105.825C94.5755 105.52 94.8229 105.272 95.1282 105.272Z" fill="#EBEBEB"/>
<path d="M75.3347 34.5C84.8007 34.5002 92.4743 39.9462 92.4743 46.6641V62.1455H58.194V46.6641C58.194 39.9461 65.8684 34.5 75.3347 34.5Z" fill="url(#paint0_linear_86_3583)"/>
<path d="M75.3347 34.5C84.8007 34.5002 92.4743 39.9462 92.4743 46.6641V62.1455H58.194V46.6641C58.194 39.9461 65.8684 34.5 75.3347 34.5Z" fill="url(#paint1_linear_86_3583)"/>
<mask id="mask0_86_3583" style="mask-type:alpha" maskUnits="userSpaceOnUse" x="50" y="46" width="51" height="93">
<path d="M82.2236 46.1111C84.5609 46.1111 86.4808 47.9435 87.0566 50.2087C87.8288 53.2463 89.3087 56.8046 91.834 59.7595C95.6814 64.2616 100.104 69.2095 100.104 75.1316V134.577C100.104 137.02 98.1243 139 95.6816 139H55.3184C52.8757 139 50.8956 137.02 50.8955 134.577V75.1316C50.8957 69.2095 55.3186 64.2616 59.166 59.7595C61.6913 56.8046 63.1712 53.2463 63.9434 50.2087C64.5192 47.9435 66.4391 46.1111 68.7764 46.1111H82.2236Z" fill="url(#paint2_linear_86_3583)"/>
</mask>
<g mask="url(#mask0_86_3583)">
<path d="M71.3533 67.6745C71.3533 66.4531 72.3435 65.4629 73.5649 65.4629H77.9882C79.2096 65.4629 80.1998 66.4531 80.1998 67.6745V135.13H71.3533V67.6745Z" fill="url(#paint3_linear_86_3583)"/>
<path d="M87.9406 70.9919C87.9406 69.7705 88.9308 68.7803 90.1523 68.7803H94.5755C95.797 68.7803 96.7872 69.7705 96.7872 70.9919V135.129H87.9406V70.9919Z" fill="url(#paint4_linear_86_3583)"/>
<path d="M55.8718 70.9919C55.8718 69.7705 56.862 68.7803 58.0835 68.7803H61.4009C62.6224 68.7803 63.6126 69.7705 63.6126 70.9919V135.129H55.8718V70.9919Z" fill="url(#paint5_linear_86_3583)"/>
</g>
<rect x="56.9775" y="57.7222" width="36.4921" height="4.42328" fill="url(#paint6_linear_86_3583)"/>
<rect x="58.0833" y="47.7698" width="34.2804" height="2.21164" fill="url(#paint7_linear_86_3583)"/>
<rect x="58.0833" y="51.0874" width="34.2804" height="2.21164" fill="url(#paint8_linear_86_3583)"/>
<ellipse cx="75.7764" cy="36.9486" rx="1.89569" ry="0.947846" fill="url(#paint9_linear_86_3583)"/>
<ellipse cx="75.7764" cy="39.7921" rx="1.89569" ry="0.947846" fill="url(#paint10_linear_86_3583)"/>
<ellipse cx="80.5155" cy="37.8966" rx="1.89569" ry="0.947846" fill="url(#paint11_linear_86_3583)"/>
<ellipse cx="71.0372" cy="37.8966" rx="1.89569" ry="0.947846" fill="url(#paint12_linear_86_3583)"/>
<g filter="url(#filter1_i_86_3583)">
<rect x="89.8607" y="128.669" width="19.1975" height="7.99897" rx="3.19959" transform="rotate(6.90321 89.8607 128.669)" fill="#FFB730"/>
</g>
<g filter="url(#filter2_i_86_3583)">
<path d="M104.131 136.549C100.693 139.029 95.927 138.452 93.1804 135.223C88.1357 129.293 79.8031 124.223 79.8423 119.357C79.8485 118.578 79.8973 117.792 79.9931 117C81.3737 105.597 91.7366 97.4727 103.139 98.8532C114.542 100.234 122.667 110.597 121.286 121.999C121.19 122.791 121.05 123.566 120.87 124.324C120.071 127.694 107.24 134.306 104.131 136.549Z" fill="#FFD992"/>
</g>
<g filter="url(#filter3_f_86_3583)">
<path d="M101.973 105.158L99.2937 130.617" stroke="url(#paint13_linear_86_3583)" stroke-width="0.799896" stroke-linecap="round"/>
</g>
<g filter="url(#filter4_f_86_3583)">
<path d="M84.0474 113.462C84.9222 117.328 88.4431 126.403 95.5281 131.773" stroke="url(#paint14_linear_86_3583)" stroke-width="0.799896" stroke-linecap="round"/>
</g>
<g filter="url(#filter5_f_86_3583)">
<path d="M89.2322 107.241C90.665 114.263 94.5557 129.157 98.6565 132.554" stroke="url(#paint15_linear_86_3583)" stroke-width="0.799896" stroke-linecap="round"/>
</g>
<g filter="url(#filter6_f_86_3583)">
<path d="M117.797 117.548C116.024 121.094 110.44 129.066 102.278 132.59" stroke="url(#paint16_linear_86_3583)" stroke-width="0.799896" stroke-linecap="round"/>
</g>
<g filter="url(#filter7_f_86_3583)">
<path d="M114.246 110.27C111.179 116.747 103.846 130.282 99.0534 132.602" stroke="url(#paint17_linear_86_3583)" stroke-width="0.799896" stroke-linecap="round"/>
</g>
<defs>
<filter id="filter0_i_86_3583" x="50.8955" y="46.1111" width="49.209" height="92.8887" filterUnits="userSpaceOnUse" color-interpolation-filters="sRGB">
<feFlood flood-opacity="0" result="BackgroundImageFix"/>
<feBlend mode="normal" in="SourceGraphic" in2="BackgroundImageFix" result="shape"/>
<feColorMatrix in="SourceAlpha" type="matrix" values="0 0 0 0 0 0 0 0 0 0 0 0 0 0 0 0 0 0 127 0" result="hardAlpha"/>
<feOffset/>
<feGaussianBlur stdDeviation="6.63492"/>
<feComposite in2="hardAlpha" operator="arithmetic" k2="-1" k3="1"/>
<feColorMatrix type="matrix" values="0 0 0 0 0.895527 0 0 0 0 0.957312 0 0 0 0 1 0 0 0 1 0"/>
<feBlend mode="normal" in2="shape" result="effect1_innerShadow_86_3583"/>
</filter>
<filter id="filter1_i_86_3583" x="89.2603" y="129.03" width="19.2977" height="9.52612" filterUnits="userSpaceOnUse" color-interpolation-filters="sRGB">
<feFlood flood-opacity="0" result="BackgroundImageFix"/>
<feBlend mode="normal" in="SourceGraphic" in2="BackgroundImageFix" result="shape"/>
<feColorMatrix in="SourceAlpha" type="matrix" values="0 0 0 0 0 0 0 0 0 0 0 0 0 0 0 0 0 0 127 0" result="hardAlpha"/>
<feOffset/>
<feGaussianBlur stdDeviation="3.19959"/>
<feComposite in2="hardAlpha" operator="arithmetic" k2="-1" k3="1"/>
<feColorMatrix type="matrix" values="0 0 0 0 1 0 0 0 0 0.85098 0 0 0 0 0.572549 0 0 0 1 0"/>
<feBlend mode="normal" in2="shape" result="effect1_innerShadow_86_3583"/>
</filter>
<filter id="filter2_i_86_3583" x="79.8421" y="98.7004" width="41.597" height="39.3857" filterUnits="userSpaceOnUse" color-interpolation-filters="sRGB">
<feFlood flood-opacity="0" result="BackgroundImageFix"/>
<feBlend mode="normal" in="SourceGraphic" in2="BackgroundImageFix" result="shape"/>
<feColorMatrix in="SourceAlpha" type="matrix" values="0 0 0 0 0 0 0 0 0 0 0 0 0 0 0 0 0 0 127 0" result="hardAlpha"/>
<feOffset/>
<feGaussianBlur stdDeviation="3.19959"/>
<feComposite in2="hardAlpha" operator="arithmetic" k2="-1" k3="1"/>
<feColorMatrix type="matrix" values="0 0 0 0 1 0 0 0 0 1 0 0 0 0 1 0 0 0 1 0"/>
<feBlend mode="normal" in2="shape" result="effect1_innerShadow_86_3583"/>
</filter>
<filter id="filter3_f_86_3583" x="98.0938" y="103.958" width="5.07929" height="27.8588" filterUnits="userSpaceOnUse" color-interpolation-filters="sRGB">
<feFlood flood-opacity="0" result="BackgroundImageFix"/>
<feBlend mode="normal" in="SourceGraphic" in2="BackgroundImageFix" result="shape"/>
<feGaussianBlur stdDeviation="0.399948" result="effect1_foregroundBlur_86_3583"/>
</filter>
<filter id="filter4_f_86_3583" x="82.8474" y="112.262" width="13.8804" height="20.7104" filterUnits="userSpaceOnUse" color-interpolation-filters="sRGB">
<feFlood flood-opacity="0" result="BackgroundImageFix"/>
<feBlend mode="normal" in="SourceGraphic" in2="BackgroundImageFix" result="shape"/>
<feGaussianBlur stdDeviation="0.399948" result="effect1_foregroundBlur_86_3583"/>
</filter>
<filter id="filter5_f_86_3583" x="88.0323" y="106.041" width="11.824" height="27.7131" filterUnits="userSpaceOnUse" color-interpolation-filters="sRGB">
<feFlood flood-opacity="0" result="BackgroundImageFix"/>
<feBlend mode="normal" in="SourceGraphic" in2="BackgroundImageFix" result="shape"/>
<feGaussianBlur stdDeviation="0.399948" result="effect1_foregroundBlur_86_3583"/>
</filter>
<filter id="filter6_f_86_3583" x="101.078" y="116.348" width="17.9185" height="17.4416" filterUnits="userSpaceOnUse" color-interpolation-filters="sRGB">
<feFlood flood-opacity="0" result="BackgroundImageFix"/>
<feBlend mode="normal" in="SourceGraphic" in2="BackgroundImageFix" result="shape"/>
<feGaussianBlur stdDeviation="0.399948" result="effect1_foregroundBlur_86_3583"/>
</filter>
<filter id="filter7_f_86_3583" x="97.8534" y="109.069" width="17.5927" height="24.7326" filterUnits="userSpaceOnUse" color-interpolation-filters="sRGB">
<feFlood flood-opacity="0" result="BackgroundImageFix"/>
<feBlend mode="normal" in="SourceGraphic" in2="BackgroundImageFix" result="shape"/>
<feGaussianBlur stdDeviation="0.399948" result="effect1_foregroundBlur_86_3583"/>
</filter>
<linearGradient id="paint0_linear_86_3583" x1="75.3342" y1="34.5" x2="75.3342" y2="62.1455" gradientUnits="userSpaceOnUse">
<stop stop-color="#D7D7D7"/>
<stop offset="1" stop-color="#B4B3B3"/>
</linearGradient>
<linearGradient id="paint1_linear_86_3583" x1="75.3342" y1="34.5" x2="75.3342" y2="62.1455" gradientUnits="userSpaceOnUse">
<stop stop-color="#D7D7D7"/>
<stop offset="1" stop-color="#B4B3B3"/>
</linearGradient>
<linearGradient id="paint2_linear_86_3583" x1="75.5" y1="46.1111" x2="75.5" y2="139" gradientUnits="userSpaceOnUse">
<stop stop-color="#F6F6F6" stop-opacity="0"/>
<stop offset="1" stop-color="#F6F6F6"/>
</linearGradient>
<linearGradient id="paint3_linear_86_3583" x1="71.3533" y1="100.296" x2="80.1998" y2="100.296" gradientUnits="userSpaceOnUse">
<stop stop-color="#E9F6FF"/>
<stop offset="1" stop-color="white" stop-opacity="0"/>
</linearGradient>
<linearGradient id="paint4_linear_86_3583" x1="87.9406" y1="101.955" x2="96.7872" y2="101.955" gradientUnits="userSpaceOnUse">
<stop stop-color="#E9F6FF"/>
<stop offset="1" stop-color="white" stop-opacity="0"/>
</linearGradient>
<linearGradient id="paint5_linear_86_3583" x1="55.8718" y1="101.955" x2="63.6126" y2="101.955" gradientUnits="userSpaceOnUse">
<stop stop-color="#E9F6FF"/>
<stop offset="1" stop-color="white" stop-opacity="0"/>
</linearGradient>
<linearGradient id="paint6_linear_86_3583" x1="75.2236" y1="57.7222" x2="75.2236" y2="62.1454" gradientUnits="userSpaceOnUse">
<stop stop-color="#D7D7D7"/>
<stop offset="1" stop-color="#B4B3B3"/>
</linearGradient>
<linearGradient id="paint7_linear_86_3583" x1="75.2235" y1="47.7698" x2="75.2235" y2="49.9814" gradientUnits="userSpaceOnUse">
<stop stop-color="#D7D7D7"/>
<stop offset="1" stop-color="#B4B3B3"/>
</linearGradient>
<linearGradient id="paint8_linear_86_3583" x1="75.2235" y1="51.0874" x2="75.2235" y2="53.299" gradientUnits="userSpaceOnUse">
<stop stop-color="#D7D7D7"/>
<stop offset="1" stop-color="#B4B3B3"/>
</linearGradient>
<linearGradient id="paint9_linear_86_3583" x1="75.7764" y1="36.0007" x2="75.7764" y2="37.8964" gradientUnits="userSpaceOnUse">
<stop stop-color="#BEBDBD"/>
<stop offset="1" stop-color="#737373"/>
</linearGradient>
<linearGradient id="paint10_linear_86_3583" x1="75.7764" y1="38.8442" x2="75.7764" y2="40.7399" gradientUnits="userSpaceOnUse">
<stop stop-color="#BEBDBD"/>
<stop offset="1" stop-color="#737373"/>
</linearGradient>
<linearGradient id="paint11_linear_86_3583" x1="80.5155" y1="36.9487" x2="80.5155" y2="38.8444" gradientUnits="userSpaceOnUse">
<stop stop-color="#BEBDBD"/>
<stop offset="1" stop-color="#737373"/>
</linearGradient>
<linearGradient id="paint12_linear_86_3583" x1="71.0372" y1="36.9487" x2="71.0372" y2="38.8444" gradientUnits="userSpaceOnUse">
<stop stop-color="#BEBDBD"/>
<stop offset="1" stop-color="#737373"/>
</linearGradient>
<linearGradient id="paint13_linear_86_3583" x1="102.172" y1="105.182" x2="99.0951" y2="130.593" gradientUnits="userSpaceOnUse">
<stop stop-color="#FFB730"/>
<stop offset="1" stop-color="#FFB730" stop-opacity="0"/>
</linearGradient>
<linearGradient id="paint14_linear_86_3583" x1="90.7972" y1="114.279" x2="88.7782" y2="130.955" gradientUnits="userSpaceOnUse">
<stop stop-color="#FFB730"/>
<stop offset="1" stop-color="#FFB730" stop-opacity="0"/>
</linearGradient>
<linearGradient id="paint15_linear_86_3583" x1="95.3865" y1="107.986" x2="92.5022" y2="131.809" gradientUnits="userSpaceOnUse">
<stop stop-color="#FFB730"/>
<stop offset="1" stop-color="#FFB730" stop-opacity="0"/>
</linearGradient>
<linearGradient id="paint16_linear_86_3583" x1="111.047" y1="116.731" x2="109.028" y2="133.407" gradientUnits="userSpaceOnUse">
<stop stop-color="#FFB730"/>
<stop offset="1" stop-color="#FFB730" stop-opacity="0"/>
</linearGradient>
<linearGradient id="paint17_linear_86_3583" x1="108.092" y1="109.524" x2="105.208" y2="133.347" gradientUnits="userSpaceOnUse">
<stop stop-color="#FFB730"/>
<stop offset="1" stop-color="#FFB730" stop-opacity="0"/>
</linearGradient>
</defs>
</svg>
