<svg width="200" height="200" viewBox="0 0 200 200" fill="none" xmlns="http://www.w3.org/2000/svg">
<circle cx="127" cy="78" r="52" fill="url(#paint0_radial_94_6522)"/>
<path d="M94.7604 58.4228C95.266 52.625 92.2778 41.2873 76.28 42.3187C76.1619 48.8244 79.6927 61.1532 94.7604 58.4228Z" fill="url(#paint1_linear_94_6522)"/>
<path d="M103.737 46.8603C101.54 40.9609 101.391 28.2796 118.368 24.7491C120.364 31.4981 120.233 45.3689 103.737 46.8603Z" fill="url(#paint2_linear_94_6522)"/>
<path d="M68.6337 69.1933L73.4494 102.699L103.713 87.0464L83.2016 114.074L115.81 124.217L81.9876 128.934L97.8399 158.932L70.5186 138.575L60.3285 170.855L55.5128 137.349L25.2497 153.002L45.7606 125.974L13.1521 115.831L46.9746 111.114L31.1223 81.1161L58.4436 101.473L68.6337 69.1933Z" fill="url(#paint3_linear_94_6522)"/>
<path d="M59 81C59 74.9249 63.9249 70 70 70H129C135.075 70 140 74.9249 140 81V81H59V81Z" fill="url(#paint4_linear_94_6522)"/>
<path d="M140.955 76C142.942 76 144.629 77.4572 144.908 79.4249C147.545 97.9887 152 132.114 152 143.573C152 154.48 146.81 165.619 143.387 171.237C142.702 172.361 141.464 173 140.147 173H59.853C58.5364 173 57.2984 172.361 56.6132 171.237C53.1897 165.619 48.0001 154.48 48 143.573C48 132.114 52.4549 97.9887 55.0918 79.4249C55.3713 77.4572 57.0576 76 59.045 76H140.955Z" fill="url(#paint5_linear_94_6522)"/>
<mask id="mask0_94_6522" style="mask-type:alpha" maskUnits="userSpaceOnUse" x="48" y="76" width="104" height="97">
<path d="M140.955 76C142.942 76 144.629 77.4572 144.908 79.4249C147.545 97.9887 152 132.114 152 143.573C152 154.48 146.81 165.619 143.387 171.237C142.702 172.361 141.464 173 140.147 173H59.853C58.5364 173 57.2984 172.361 56.6132 171.237C53.1897 165.619 48.0001 154.48 48 143.573C48 132.114 52.4549 97.9887 55.0918 79.4249C55.3713 77.4572 57.0576 76 59.045 76H140.955Z" fill="url(#paint6_linear_94_6522)"/>
</mask>
<g mask="url(#mask0_94_6522)">
<g filter="url(#filter0_f_94_6522)">
<circle cx="144" cy="90" r="36" fill="url(#paint7_linear_94_6522)"/>
</g>
<g filter="url(#filter1_f_94_6522)">
<circle cx="61" cy="174" r="36" fill="url(#paint8_linear_94_6522)"/>
</g>
</g>
<path d="M61 172H139V177C139 178.105 138.105 179 137 179H63C61.8954 179 61 178.105 61 177V172Z" fill="#363636"/>
<path d="M51.045 67L47.965 61.7958L44.78 67L42.33 65.0576L46.075 60.5864L41 59.4136L41.945 56.4817L46.88 58.5707L46.425 53H49.575L49.12 58.5707L54.125 56.555L55 59.4503L49.855 60.5864L53.565 65.0942L51.045 67Z" fill="#F76513"/>
<mask id="path-12-outside-1_94_6522" maskUnits="userSpaceOnUse" x="94" y="119" width="78" height="37" fill="black">
<rect fill="white" x="94" y="119" width="78" height="37"/>
<path d="M107.662 125L108.661 125.042C109.327 125.099 109.73 125.267 109.869 125.549C110.035 125.859 110.119 126.689 110.119 128.041C110.119 129.448 110.368 133.108 110.868 139.02C110.951 140.146 111.062 140.85 111.201 141.132L111.326 141.258C111.576 141.258 111.951 140.639 112.45 139.4C112.895 138.274 113.353 137.092 113.825 135.853C114.297 134.642 114.588 133.995 114.699 133.91C114.838 133.713 114.907 133.502 114.907 133.277C114.907 133.193 115.088 132.7 115.449 131.799C115.865 130.898 116.17 130.279 116.365 129.941L116.864 128.927C117.336 128.026 117.975 127.576 118.78 127.576H119.03C119.557 127.604 119.821 127.731 119.821 127.956C119.821 128.294 119.543 128.941 118.988 129.899C118.322 130.997 117.989 131.644 117.989 131.841C117.989 131.954 117.864 132.278 117.614 132.812C117.309 133.46 116.892 134.417 116.365 135.684C115.837 136.923 115.532 137.711 115.449 138.049C115.365 138.302 114.685 140.076 113.408 143.37C112.603 145.453 112.062 146.593 111.784 146.791C111.673 146.875 111.34 146.917 110.785 146.917C110.174 146.917 109.785 146.762 109.619 146.453C109.425 146.087 109.244 145.2 109.078 143.792C108.967 142.413 108.814 141.202 108.62 140.16C108.509 139.457 108.453 138.711 108.453 137.922C108.453 137.106 108.328 136.698 108.078 136.698C107.828 136.698 107.648 137.19 107.537 138.176C107.426 139.02 107.315 139.682 107.204 140.16C107.093 140.583 106.954 141.793 106.787 143.792C106.676 145.594 106.579 146.537 106.496 146.622C106.44 146.65 106.177 146.664 105.705 146.664H105.205C104.678 146.636 104.372 146.608 104.289 146.579C104.233 146.523 104.178 146.41 104.122 146.242C104.095 145.847 104.011 145.51 103.873 145.228C103.623 144.637 103.303 143.497 102.915 141.807C102.526 140.09 102.207 138.922 101.957 138.302C101.902 138.162 101.791 137.528 101.624 136.402C101.43 135.248 101.277 134.572 101.166 134.375C101.055 134.206 100.999 133.84 100.999 133.277C100.999 132.77 100.916 132.376 100.75 132.095C100.555 131.898 100.319 130.8 100.042 128.801C100.014 128.66 100 128.491 100 128.294C100 127.506 100.43 127.111 101.291 127.111C101.818 127.111 102.096 127.14 102.124 127.196C102.179 127.28 102.276 127.773 102.415 128.674C102.554 129.49 102.845 131.025 103.29 133.277C103.428 134.15 103.609 134.896 103.831 135.515C104.025 136.247 104.122 136.684 104.122 136.824C104.122 137.078 104.192 137.387 104.331 137.753C104.469 138.204 104.636 138.429 104.83 138.429H104.955C105.261 138.119 105.635 136.332 106.079 133.066C106.496 130.251 106.885 128.125 107.245 126.689L107.662 125Z"/>
<path d="M129.356 135.853C129.245 135.656 129.037 135.557 128.732 135.557C128.315 135.557 127.83 135.881 127.274 136.529C126.747 137.176 126.386 137.866 126.192 138.598C125.997 139.274 125.9 140.273 125.9 141.596C125.9 143.483 126.067 144.665 126.4 145.144C126.705 145.65 126.955 145.904 127.15 145.904C127.538 145.904 127.941 144.735 128.357 142.399C128.524 141.273 128.815 140.02 129.232 138.64C129.37 138.246 129.44 137.641 129.44 136.824C129.44 136.318 129.412 135.994 129.356 135.853ZM131.105 132.264C131.216 132.264 131.314 132.249 131.397 132.221C131.452 132.221 131.494 132.221 131.522 132.221C131.605 132.193 131.772 132.221 132.021 132.306C132.271 132.362 132.396 132.756 132.396 133.488C132.396 134.727 132.035 136.867 131.314 139.907C131.23 140.442 131.05 141.427 130.772 142.863C130.495 144.271 130.3 145.284 130.189 145.904C130.134 146.185 130.037 146.664 129.898 147.34C129.759 148.015 129.69 148.466 129.69 148.691L129.565 149.535H127.441L127.358 148.606C127.33 148.24 127.302 147.987 127.274 147.846C127.247 147.677 127.177 147.551 127.066 147.466C126.955 147.382 126.803 147.34 126.608 147.34C125.97 147.34 125.373 147.086 124.818 146.579C124.262 146.073 123.902 145.467 123.735 144.764C123.568 144.06 123.485 143.145 123.485 142.019C123.485 139.71 123.763 138.007 124.318 136.909C124.818 135.923 125.345 135.234 125.9 134.84C126.456 134.474 127.247 134.234 128.274 134.122L130.023 133.995L130.148 133.024C130.203 132.714 130.259 132.531 130.314 132.475C130.397 132.39 130.55 132.334 130.772 132.306C130.856 132.306 130.967 132.292 131.105 132.264Z"/>
<path d="M140.808 130.912C141.307 130.912 141.654 130.983 141.849 131.123C141.987 131.236 142.057 131.433 142.057 131.715C142.057 131.968 142.043 132.179 142.015 132.348C141.904 133.164 141.821 133.77 141.765 134.164C141.738 134.276 141.724 134.403 141.724 134.544C141.724 134.825 141.89 135.023 142.223 135.135C142.473 135.248 143.042 135.403 143.931 135.6C144.291 135.684 144.722 135.966 145.221 136.444C145.721 136.923 146.082 137.627 146.304 138.556C146.526 139.485 146.637 140.203 146.637 140.709V141.174H145.638C144.861 141.174 144.458 141.146 144.43 141.09C144.375 140.977 144.264 140.498 144.097 139.654C143.875 138.162 143.306 137.204 142.39 136.782C142.14 136.669 141.904 136.613 141.682 136.613C141.266 136.613 140.946 137.05 140.724 137.922C139.531 141.751 138.823 144.566 138.601 146.368L138.476 147.635L137.435 147.677H136.935C136.491 147.677 136.255 147.649 136.227 147.593C136.116 147.424 136.061 147.171 136.061 146.833C136.061 146.129 136.227 145.327 136.56 144.426C136.893 143.384 137.143 142.356 137.31 141.343C137.504 140.358 137.643 139.823 137.726 139.738C137.809 139.597 138.032 138.837 138.392 137.458C138.753 136.078 139.017 135.023 139.184 134.291C139.544 132.348 139.808 131.278 139.975 131.081C140.086 130.968 140.363 130.912 140.808 130.912Z"/>
<path d="M159.129 133.235H159.462C159.712 133.235 159.907 133.277 160.045 133.361C160.184 133.474 160.462 133.756 160.878 134.206C161.739 135.191 162.502 136.684 163.168 138.682C163.196 138.739 163.626 139.963 164.459 142.356C165.486 145.256 166 147.03 166 147.677C166 147.959 165.931 148.142 165.792 148.226C165.625 148.339 165.306 148.395 164.834 148.395C164.057 148.395 163.668 148.212 163.668 147.846C163.668 147.452 163.585 147.199 163.418 147.086C163.391 147.058 163.307 146.748 163.168 146.157C163.03 145.481 162.919 145.087 162.835 144.975C162.78 144.918 162.669 144.623 162.502 144.088C162.308 143.525 162.114 142.934 161.919 142.314C161.725 141.695 161.614 141.329 161.586 141.216C161.475 140.991 161.309 140.442 161.086 139.569C160.92 139.034 160.628 138.302 160.212 137.373C159.934 136.838 159.754 136.571 159.671 136.571C159.504 136.515 159.351 136.655 159.213 136.993C159.074 137.5 158.838 139.611 158.505 143.328C158.449 143.694 158.421 144.383 158.421 145.397C158.421 146.439 158.449 147.185 158.505 147.635C158.56 148.057 158.588 148.62 158.588 149.324C158.588 149.775 158.574 150 158.546 150C158.546 150 158.31 150 157.838 150H156.256L156.048 149.071C155.909 148.508 155.84 147.889 155.84 147.213V147.002C155.84 145.763 155.632 144.074 155.215 141.934C154.771 139.654 154.382 138.514 154.049 138.514C153.772 138.514 153.577 138.922 153.466 139.738C153.133 141.822 152.856 143.877 152.633 145.904C152.522 147.086 152.425 147.79 152.342 148.015C152.314 148.212 152.203 148.353 152.009 148.437C151.926 148.466 151.745 148.48 151.468 148.48C151.19 148.48 151.009 148.48 150.926 148.48C150.649 148.423 150.468 148.325 150.385 148.184C150.274 148.043 150.218 147.762 150.218 147.34C150.218 146.805 150.274 146.171 150.385 145.439C150.801 140.878 151.329 137.908 151.967 136.529C152.384 135.628 153.05 135.177 153.966 135.177C154.244 135.177 154.452 135.191 154.591 135.22C154.924 135.276 155.16 135.346 155.298 135.431C155.437 135.543 155.604 135.783 155.798 136.149C156.131 136.684 156.395 136.951 156.589 136.951C156.895 136.951 157.047 136.543 157.047 135.726C157.047 135.248 157.158 134.727 157.38 134.164C157.575 133.657 157.755 133.376 157.922 133.319C157.95 133.319 158.352 133.291 159.129 133.235Z"/>
</mask>
<path d="M107.662 125L108.661 125.042C109.327 125.099 109.73 125.267 109.869 125.549C110.035 125.859 110.119 126.689 110.119 128.041C110.119 129.448 110.368 133.108 110.868 139.02C110.951 140.146 111.062 140.85 111.201 141.132L111.326 141.258C111.576 141.258 111.951 140.639 112.45 139.4C112.895 138.274 113.353 137.092 113.825 135.853C114.297 134.642 114.588 133.995 114.699 133.91C114.838 133.713 114.907 133.502 114.907 133.277C114.907 133.193 115.088 132.7 115.449 131.799C115.865 130.898 116.17 130.279 116.365 129.941L116.864 128.927C117.336 128.026 117.975 127.576 118.78 127.576H119.03C119.557 127.604 119.821 127.731 119.821 127.956C119.821 128.294 119.543 128.941 118.988 129.899C118.322 130.997 117.989 131.644 117.989 131.841C117.989 131.954 117.864 132.278 117.614 132.812C117.309 133.46 116.892 134.417 116.365 135.684C115.837 136.923 115.532 137.711 115.449 138.049C115.365 138.302 114.685 140.076 113.408 143.37C112.603 145.453 112.062 146.593 111.784 146.791C111.673 146.875 111.34 146.917 110.785 146.917C110.174 146.917 109.785 146.762 109.619 146.453C109.425 146.087 109.244 145.2 109.078 143.792C108.967 142.413 108.814 141.202 108.62 140.16C108.509 139.457 108.453 138.711 108.453 137.922C108.453 137.106 108.328 136.698 108.078 136.698C107.828 136.698 107.648 137.19 107.537 138.176C107.426 139.02 107.315 139.682 107.204 140.16C107.093 140.583 106.954 141.793 106.787 143.792C106.676 145.594 106.579 146.537 106.496 146.622C106.44 146.65 106.177 146.664 105.705 146.664H105.205C104.678 146.636 104.372 146.608 104.289 146.579C104.233 146.523 104.178 146.41 104.122 146.242C104.095 145.847 104.011 145.51 103.873 145.228C103.623 144.637 103.303 143.497 102.915 141.807C102.526 140.09 102.207 138.922 101.957 138.302C101.902 138.162 101.791 137.528 101.624 136.402C101.43 135.248 101.277 134.572 101.166 134.375C101.055 134.206 100.999 133.84 100.999 133.277C100.999 132.77 100.916 132.376 100.75 132.095C100.555 131.898 100.319 130.8 100.042 128.801C100.014 128.66 100 128.491 100 128.294C100 127.506 100.43 127.111 101.291 127.111C101.818 127.111 102.096 127.14 102.124 127.196C102.179 127.28 102.276 127.773 102.415 128.674C102.554 129.49 102.845 131.025 103.29 133.277C103.428 134.15 103.609 134.896 103.831 135.515C104.025 136.247 104.122 136.684 104.122 136.824C104.122 137.078 104.192 137.387 104.331 137.753C104.469 138.204 104.636 138.429 104.83 138.429H104.955C105.261 138.119 105.635 136.332 106.079 133.066C106.496 130.251 106.885 128.125 107.245 126.689L107.662 125Z" fill="#F76513"/>
<path d="M129.356 135.853C129.245 135.656 129.037 135.557 128.732 135.557C128.315 135.557 127.83 135.881 127.274 136.529C126.747 137.176 126.386 137.866 126.192 138.598C125.997 139.274 125.9 140.273 125.9 141.596C125.9 143.483 126.067 144.665 126.4 145.144C126.705 145.65 126.955 145.904 127.15 145.904C127.538 145.904 127.941 144.735 128.357 142.399C128.524 141.273 128.815 140.02 129.232 138.64C129.37 138.246 129.44 137.641 129.44 136.824C129.44 136.318 129.412 135.994 129.356 135.853ZM131.105 132.264C131.216 132.264 131.314 132.249 131.397 132.221C131.452 132.221 131.494 132.221 131.522 132.221C131.605 132.193 131.772 132.221 132.021 132.306C132.271 132.362 132.396 132.756 132.396 133.488C132.396 134.727 132.035 136.867 131.314 139.907C131.23 140.442 131.05 141.427 130.772 142.863C130.495 144.271 130.3 145.284 130.189 145.904C130.134 146.185 130.037 146.664 129.898 147.34C129.759 148.015 129.69 148.466 129.69 148.691L129.565 149.535H127.441L127.358 148.606C127.33 148.24 127.302 147.987 127.274 147.846C127.247 147.677 127.177 147.551 127.066 147.466C126.955 147.382 126.803 147.34 126.608 147.34C125.97 147.34 125.373 147.086 124.818 146.579C124.262 146.073 123.902 145.467 123.735 144.764C123.568 144.06 123.485 143.145 123.485 142.019C123.485 139.71 123.763 138.007 124.318 136.909C124.818 135.923 125.345 135.234 125.9 134.84C126.456 134.474 127.247 134.234 128.274 134.122L130.023 133.995L130.148 133.024C130.203 132.714 130.259 132.531 130.314 132.475C130.397 132.39 130.55 132.334 130.772 132.306C130.856 132.306 130.967 132.292 131.105 132.264Z" fill="#F76513"/>
<path d="M140.808 130.912C141.307 130.912 141.654 130.983 141.849 131.123C141.987 131.236 142.057 131.433 142.057 131.715C142.057 131.968 142.043 132.179 142.015 132.348C141.904 133.164 141.821 133.77 141.765 134.164C141.738 134.276 141.724 134.403 141.724 134.544C141.724 134.825 141.89 135.023 142.223 135.135C142.473 135.248 143.042 135.403 143.931 135.6C144.291 135.684 144.722 135.966 145.221 136.444C145.721 136.923 146.082 137.627 146.304 138.556C146.526 139.485 146.637 140.203 146.637 140.709V141.174H145.638C144.861 141.174 144.458 141.146 144.43 141.09C144.375 140.977 144.264 140.498 144.097 139.654C143.875 138.162 143.306 137.204 142.39 136.782C142.14 136.669 141.904 136.613 141.682 136.613C141.266 136.613 140.946 137.05 140.724 137.922C139.531 141.751 138.823 144.566 138.601 146.368L138.476 147.635L137.435 147.677H136.935C136.491 147.677 136.255 147.649 136.227 147.593C136.116 147.424 136.061 147.171 136.061 146.833C136.061 146.129 136.227 145.327 136.56 144.426C136.893 143.384 137.143 142.356 137.31 141.343C137.504 140.358 137.643 139.823 137.726 139.738C137.809 139.597 138.032 138.837 138.392 137.458C138.753 136.078 139.017 135.023 139.184 134.291C139.544 132.348 139.808 131.278 139.975 131.081C140.086 130.968 140.363 130.912 140.808 130.912Z" fill="#F76513"/>
<path d="M159.129 133.235H159.462C159.712 133.235 159.907 133.277 160.045 133.361C160.184 133.474 160.462 133.756 160.878 134.206C161.739 135.191 162.502 136.684 163.168 138.682C163.196 138.739 163.626 139.963 164.459 142.356C165.486 145.256 166 147.03 166 147.677C166 147.959 165.931 148.142 165.792 148.226C165.625 148.339 165.306 148.395 164.834 148.395C164.057 148.395 163.668 148.212 163.668 147.846C163.668 147.452 163.585 147.199 163.418 147.086C163.391 147.058 163.307 146.748 163.168 146.157C163.03 145.481 162.919 145.087 162.835 144.975C162.78 144.918 162.669 144.623 162.502 144.088C162.308 143.525 162.114 142.934 161.919 142.314C161.725 141.695 161.614 141.329 161.586 141.216C161.475 140.991 161.309 140.442 161.086 139.569C160.92 139.034 160.628 138.302 160.212 137.373C159.934 136.838 159.754 136.571 159.671 136.571C159.504 136.515 159.351 136.655 159.213 136.993C159.074 137.5 158.838 139.611 158.505 143.328C158.449 143.694 158.421 144.383 158.421 145.397C158.421 146.439 158.449 147.185 158.505 147.635C158.56 148.057 158.588 148.62 158.588 149.324C158.588 149.775 158.574 150 158.546 150C158.546 150 158.31 150 157.838 150H156.256L156.048 149.071C155.909 148.508 155.84 147.889 155.84 147.213V147.002C155.84 145.763 155.632 144.074 155.215 141.934C154.771 139.654 154.382 138.514 154.049 138.514C153.772 138.514 153.577 138.922 153.466 139.738C153.133 141.822 152.856 143.877 152.633 145.904C152.522 147.086 152.425 147.79 152.342 148.015C152.314 148.212 152.203 148.353 152.009 148.437C151.926 148.466 151.745 148.48 151.468 148.48C151.19 148.48 151.009 148.48 150.926 148.48C150.649 148.423 150.468 148.325 150.385 148.184C150.274 148.043 150.218 147.762 150.218 147.34C150.218 146.805 150.274 146.171 150.385 145.439C150.801 140.878 151.329 137.908 151.967 136.529C152.384 135.628 153.05 135.177 153.966 135.177C154.244 135.177 154.452 135.191 154.591 135.22C154.924 135.276 155.16 135.346 155.298 135.431C155.437 135.543 155.604 135.783 155.798 136.149C156.131 136.684 156.395 136.951 156.589 136.951C156.895 136.951 157.047 136.543 157.047 135.726C157.047 135.248 157.158 134.727 157.38 134.164C157.575 133.657 157.755 133.376 157.922 133.319C157.95 133.319 158.352 133.291 159.129 133.235Z" fill="#F76513"/>
<path d="M107.662 125L108.661 125.042C109.327 125.099 109.73 125.267 109.869 125.549C110.035 125.859 110.119 126.689 110.119 128.041C110.119 129.448 110.368 133.108 110.868 139.02C110.951 140.146 111.062 140.85 111.201 141.132L111.326 141.258C111.576 141.258 111.951 140.639 112.45 139.4C112.895 138.274 113.353 137.092 113.825 135.853C114.297 134.642 114.588 133.995 114.699 133.91C114.838 133.713 114.907 133.502 114.907 133.277C114.907 133.193 115.088 132.7 115.449 131.799C115.865 130.898 116.17 130.279 116.365 129.941L116.864 128.927C117.336 128.026 117.975 127.576 118.78 127.576H119.03C119.557 127.604 119.821 127.731 119.821 127.956C119.821 128.294 119.543 128.941 118.988 129.899C118.322 130.997 117.989 131.644 117.989 131.841C117.989 131.954 117.864 132.278 117.614 132.812C117.309 133.46 116.892 134.417 116.365 135.684C115.837 136.923 115.532 137.711 115.449 138.049C115.365 138.302 114.685 140.076 113.408 143.37C112.603 145.453 112.062 146.593 111.784 146.791C111.673 146.875 111.34 146.917 110.785 146.917C110.174 146.917 109.785 146.762 109.619 146.453C109.425 146.087 109.244 145.2 109.078 143.792C108.967 142.413 108.814 141.202 108.62 140.16C108.509 139.457 108.453 138.711 108.453 137.922C108.453 137.106 108.328 136.698 108.078 136.698C107.828 136.698 107.648 137.19 107.537 138.176C107.426 139.02 107.315 139.682 107.204 140.16C107.093 140.583 106.954 141.793 106.787 143.792C106.676 145.594 106.579 146.537 106.496 146.622C106.44 146.65 106.177 146.664 105.705 146.664H105.205C104.678 146.636 104.372 146.608 104.289 146.579C104.233 146.523 104.178 146.41 104.122 146.242C104.095 145.847 104.011 145.51 103.873 145.228C103.623 144.637 103.303 143.497 102.915 141.807C102.526 140.09 102.207 138.922 101.957 138.302C101.902 138.162 101.791 137.528 101.624 136.402C101.43 135.248 101.277 134.572 101.166 134.375C101.055 134.206 100.999 133.84 100.999 133.277C100.999 132.77 100.916 132.376 100.75 132.095C100.555 131.898 100.319 130.8 100.042 128.801C100.014 128.66 100 128.491 100 128.294C100 127.506 100.43 127.111 101.291 127.111C101.818 127.111 102.096 127.14 102.124 127.196C102.179 127.28 102.276 127.773 102.415 128.674C102.554 129.49 102.845 131.025 103.29 133.277C103.428 134.15 103.609 134.896 103.831 135.515C104.025 136.247 104.122 136.684 104.122 136.824C104.122 137.078 104.192 137.387 104.331 137.753C104.469 138.204 104.636 138.429 104.83 138.429H104.955C105.261 138.119 105.635 136.332 106.079 133.066C106.496 130.251 106.885 128.125 107.245 126.689L107.662 125Z" stroke="#F5F0F0" stroke-width="12" stroke-linejoin="round" mask="url(#path-12-outside-1_94_6522)"/>
<path d="M129.356 135.853C129.245 135.656 129.037 135.557 128.732 135.557C128.315 135.557 127.83 135.881 127.274 136.529C126.747 137.176 126.386 137.866 126.192 138.598C125.997 139.274 125.9 140.273 125.9 141.596C125.9 143.483 126.067 144.665 126.4 145.144C126.705 145.65 126.955 145.904 127.15 145.904C127.538 145.904 127.941 144.735 128.357 142.399C128.524 141.273 128.815 140.02 129.232 138.64C129.37 138.246 129.44 137.641 129.44 136.824C129.44 136.318 129.412 135.994 129.356 135.853ZM131.105 132.264C131.216 132.264 131.314 132.249 131.397 132.221C131.452 132.221 131.494 132.221 131.522 132.221C131.605 132.193 131.772 132.221 132.021 132.306C132.271 132.362 132.396 132.756 132.396 133.488C132.396 134.727 132.035 136.867 131.314 139.907C131.23 140.442 131.05 141.427 130.772 142.863C130.495 144.271 130.3 145.284 130.189 145.904C130.134 146.185 130.037 146.664 129.898 147.34C129.759 148.015 129.69 148.466 129.69 148.691L129.565 149.535H127.441L127.358 148.606C127.33 148.24 127.302 147.987 127.274 147.846C127.247 147.677 127.177 147.551 127.066 147.466C126.955 147.382 126.803 147.34 126.608 147.34C125.97 147.34 125.373 147.086 124.818 146.579C124.262 146.073 123.902 145.467 123.735 144.764C123.568 144.06 123.485 143.145 123.485 142.019C123.485 139.71 123.763 138.007 124.318 136.909C124.818 135.923 125.345 135.234 125.9 134.84C126.456 134.474 127.247 134.234 128.274 134.122L130.023 133.995L130.148 133.024C130.203 132.714 130.259 132.531 130.314 132.475C130.397 132.39 130.55 132.334 130.772 132.306C130.856 132.306 130.967 132.292 131.105 132.264Z" stroke="#F5F0F0" stroke-width="12" stroke-linejoin="round" mask="url(#path-12-outside-1_94_6522)"/>
<path d="M140.808 130.912C141.307 130.912 141.654 130.983 141.849 131.123C141.987 131.236 142.057 131.433 142.057 131.715C142.057 131.968 142.043 132.179 142.015 132.348C141.904 133.164 141.821 133.77 141.765 134.164C141.738 134.276 141.724 134.403 141.724 134.544C141.724 134.825 141.89 135.023 142.223 135.135C142.473 135.248 143.042 135.403 143.931 135.6C144.291 135.684 144.722 135.966 145.221 136.444C145.721 136.923 146.082 137.627 146.304 138.556C146.526 139.485 146.637 140.203 146.637 140.709V141.174H145.638C144.861 141.174 144.458 141.146 144.43 141.09C144.375 140.977 144.264 140.498 144.097 139.654C143.875 138.162 143.306 137.204 142.39 136.782C142.14 136.669 141.904 136.613 141.682 136.613C141.266 136.613 140.946 137.05 140.724 137.922C139.531 141.751 138.823 144.566 138.601 146.368L138.476 147.635L137.435 147.677H136.935C136.491 147.677 136.255 147.649 136.227 147.593C136.116 147.424 136.061 147.171 136.061 146.833C136.061 146.129 136.227 145.327 136.56 144.426C136.893 143.384 137.143 142.356 137.31 141.343C137.504 140.358 137.643 139.823 137.726 139.738C137.809 139.597 138.032 138.837 138.392 137.458C138.753 136.078 139.017 135.023 139.184 134.291C139.544 132.348 139.808 131.278 139.975 131.081C140.086 130.968 140.363 130.912 140.808 130.912Z" stroke="#F5F0F0" stroke-width="12" stroke-linejoin="round" mask="url(#path-12-outside-1_94_6522)"/>
<path d="M159.129 133.235H159.462C159.712 133.235 159.907 133.277 160.045 133.361C160.184 133.474 160.462 133.756 160.878 134.206C161.739 135.191 162.502 136.684 163.168 138.682C163.196 138.739 163.626 139.963 164.459 142.356C165.486 145.256 166 147.03 166 147.677C166 147.959 165.931 148.142 165.792 148.226C165.625 148.339 165.306 148.395 164.834 148.395C164.057 148.395 163.668 148.212 163.668 147.846C163.668 147.452 163.585 147.199 163.418 147.086C163.391 147.058 163.307 146.748 163.168 146.157C163.03 145.481 162.919 145.087 162.835 144.975C162.78 144.918 162.669 144.623 162.502 144.088C162.308 143.525 162.114 142.934 161.919 142.314C161.725 141.695 161.614 141.329 161.586 141.216C161.475 140.991 161.309 140.442 161.086 139.569C160.92 139.034 160.628 138.302 160.212 137.373C159.934 136.838 159.754 136.571 159.671 136.571C159.504 136.515 159.351 136.655 159.213 136.993C159.074 137.5 158.838 139.611 158.505 143.328C158.449 143.694 158.421 144.383 158.421 145.397C158.421 146.439 158.449 147.185 158.505 147.635C158.56 148.057 158.588 148.62 158.588 149.324C158.588 149.775 158.574 150 158.546 150C158.546 150 158.31 150 157.838 150H156.256L156.048 149.071C155.909 148.508 155.84 147.889 155.84 147.213V147.002C155.84 145.763 155.632 144.074 155.215 141.934C154.771 139.654 154.382 138.514 154.049 138.514C153.772 138.514 153.577 138.922 153.466 139.738C153.133 141.822 152.856 143.877 152.633 145.904C152.522 147.086 152.425 147.79 152.342 148.015C152.314 148.212 152.203 148.353 152.009 148.437C151.926 148.466 151.745 148.48 151.468 148.48C151.19 148.48 151.009 148.48 150.926 148.48C150.649 148.423 150.468 148.325 150.385 148.184C150.274 148.043 150.218 147.762 150.218 147.34C150.218 146.805 150.274 146.171 150.385 145.439C150.801 140.878 151.329 137.908 151.967 136.529C152.384 135.628 153.05 135.177 153.966 135.177C154.244 135.177 154.452 135.191 154.591 135.22C154.924 135.276 155.16 135.346 155.298 135.431C155.437 135.543 155.604 135.783 155.798 136.149C156.131 136.684 156.395 136.951 156.589 136.951C156.895 136.951 157.047 136.543 157.047 135.726C157.047 135.248 157.158 134.727 157.38 134.164C157.575 133.657 157.755 133.376 157.922 133.319C157.95 133.319 158.352 133.291 159.129 133.235Z" stroke="#F5F0F0" stroke-width="12" stroke-linejoin="round" mask="url(#path-12-outside-1_94_6522)"/>
<path d="M149 65C149 67.7614 151.239 70 154 70C151.239 70 149 72.2386 149 75C149 72.2386 146.761 70 144 70C146.761 70 149 67.7614 149 65Z" fill="white"/>
<path d="M141 59C141 61.2091 142.791 63 145 63C142.791 63 141 64.7909 141 67C141 64.7909 139.209 63 137 63C139.209 63 141 61.2091 141 59Z" fill="white"/>
<defs>
<filter id="filter0_f_94_6522" x="65.7" y="11.7" width="156.6" height="156.6" filterUnits="userSpaceOnUse" color-interpolation-filters="sRGB">
<feFlood flood-opacity="0" result="BackgroundImageFix"/>
<feBlend mode="normal" in="SourceGraphic" in2="BackgroundImageFix" result="shape"/>
<feGaussianBlur stdDeviation="21.15" result="effect1_foregroundBlur_94_6522"/>
</filter>
<filter id="filter1_f_94_6522" x="-17.3" y="95.7" width="156.6" height="156.6" filterUnits="userSpaceOnUse" color-interpolation-filters="sRGB">
<feFlood flood-opacity="0" result="BackgroundImageFix"/>
<feBlend mode="normal" in="SourceGraphic" in2="BackgroundImageFix" result="shape"/>
<feGaussianBlur stdDeviation="21.15" result="effect1_foregroundBlur_94_6522"/>
</filter>
<radialGradient id="paint0_radial_94_6522" cx="0" cy="0" r="1" gradientUnits="userSpaceOnUse" gradientTransform="translate(179 26) rotate(135) scale(147.078)">
<stop stop-color="#F76513"/>
<stop offset="1" stop-color="#F7E813" stop-opacity="0"/>
</radialGradient>
<linearGradient id="paint1_linear_94_6522" x1="79.9963" y1="40.2836" x2="91.044" y2="60.4579" gradientUnits="userSpaceOnUse">
<stop stop-color="#68C83E"/>
<stop offset="1" stop-color="#33621E"/>
</linearGradient>
<linearGradient id="paint2_linear_94_6522" x1="113.908" y1="23.6972" x2="108.197" y2="47.9122" gradientUnits="userSpaceOnUse">
<stop stop-color="#68C83E"/>
<stop offset="1" stop-color="#33621E"/>
</linearGradient>
<linearGradient id="paint3_linear_94_6522" x1="68.6337" y1="69.1933" x2="60.3285" y2="170.855" gradientUnits="userSpaceOnUse">
<stop stop-color="#FFE66A"/>
<stop offset="1" stop-color="#FFE66A" stop-opacity="0"/>
</linearGradient>
<linearGradient id="paint4_linear_94_6522" x1="140" y1="81" x2="60.6889" y2="62.6861" gradientUnits="userSpaceOnUse">
<stop stop-color="#2E5F13"/>
<stop offset="0.609324" stop-color="#64AD3B"/>
<stop offset="1" stop-color="#2E5F13"/>
</linearGradient>
<linearGradient id="paint5_linear_94_6522" x1="100" y1="76" x2="100" y2="173" gradientUnits="userSpaceOnUse">
<stop stop-color="#A1A1A1"/>
<stop offset="1" stop-color="#3B3B3B"/>
</linearGradient>
<linearGradient id="paint6_linear_94_6522" x1="100" y1="76" x2="100" y2="173" gradientUnits="userSpaceOnUse">
<stop stop-color="#A1A1A1"/>
<stop offset="1" stop-color="#3B3B3B"/>
</linearGradient>
<linearGradient id="paint7_linear_94_6522" x1="144" y1="54" x2="144" y2="126" gradientUnits="userSpaceOnUse">
<stop stop-color="#63AB3A"/>
<stop offset="1" stop-color="#63AB3A" stop-opacity="0"/>
</linearGradient>
<linearGradient id="paint8_linear_94_6522" x1="61" y1="138" x2="61" y2="210" gradientUnits="userSpaceOnUse">
<stop stop-color="#F488C6"/>
<stop offset="1" stop-color="#F488C6" stop-opacity="0"/>
</linearGradient>
</defs>
</svg>
