<svg width="200" height="200" viewBox="0 0 200 200" fill="none" xmlns="http://www.w3.org/2000/svg">
<style>
@keyframes spin { to { transform: rotate(360deg); } }
@keyframes float { 0%, 100% { transform: translateY(0); } 50% { transform: translateY(-5px); } }
#star { transform-box: fill-box; transform-origin: center center; animation: spin 6s linear infinite; }
#r46 { animation: float 3s ease-in-out -0s   infinite; }
#r47 { animation: float 3s ease-in-out -1s   infinite; }
#r48 { animation: float 3s ease-in-out -2s   infinite; }
</style>
<circle cx="68" cy="64" r="52" fill="url(#paint0_radial_94_6513)"/>
<path d="M134.153 72.1694L138.968 105.675L169.231 90.0224L148.721 117.05L181.329 127.193L147.507 131.91L163.359 161.908L136.037 141.551L125.847 173.831L121.032 140.325L90.7686 155.978L111.279 128.95L78.671 118.807L112.493 114.09L96.6412 84.0922L123.963 104.449L134.153 72.1694Z" fill="url(#paint1_linear_94_6513)"/>
<path d="M59 52L140 54V55H59V52Z" fill="#50380C"/>
<g filter="url(#filter0_i_94_6513)">
<path d="M66 56.2078C66 56.093 66.093 56 66.2078 56H133.792C133.907 56 134 56.093 134 56.2078V126C134 144.778 118.778 160 100 160C81.2223 160 66 144.778 66 126V56.2078Z" fill="white"/>
</g>
<g filter="url(#filter1_i_94_6513)">
<ellipse cx="100" cy="166" rx="10" ry="6" fill="url(#paint2_linear_94_6513)"/>
</g>
<g filter="url(#filter2_i_94_6513)">
<ellipse cx="100" cy="178" rx="10" ry="6" fill="white"/>
</g>
<g filter="url(#filter3_i_94_6513)">
<path d="M74 186C74 184.895 74.8954 184 76 184H124C125.105 184 126 184.895 126 186V188H74V186Z" fill="white"/>
</g>
<path d="M130 126C130 142.569 116.569 156 100 156C83.4315 156 70 142.569 70 126V74H130V126Z" fill="url(#paint3_linear_94_6513)"/>
<rect x="119.128" y="23" width="8" height="121" transform="rotate(7.68603 119.128 23)" fill="url(#paint4_linear_94_6513)"/>
<g filter="url(#filter4_i_94_6513)">
<circle cx="84.5" cy="53.5" r="9.5" fill="url(#paint5_linear_94_6513)"/>
</g>
<g filter="url(#filter5_i_94_6513)">
<circle cx="101.5" cy="53.5" r="9.5" fill="url(#paint6_radial_94_6513)"/>
</g>
<g filter="url(#filter6_i_94_6513)">
<circle cx="118.5" cy="53.5" r="9.5" fill="url(#paint7_linear_94_6513)"/>
</g>
<g id="r46"><rect x="99" y="81.7227" width="18.4643" height="18.4643" rx="2" transform="rotate(-21.3517 99 81.7227)" fill="url(#paint8_linear_94_6513)"/></g>
<g id="r47"><rect x="99" y="105.664" width="18.4643" height="18.4643" rx="2" transform="rotate(-11.4466 99 105.664)" fill="url(#paint9_linear_94_6513)"/></g>
<g id="r48"><rect x="80.0166" y="86" width="18.4643" height="18.4643" rx="2" transform="rotate(9.40333 80.0166 86)" fill="url(#paint10_linear_94_6513)"/></g>
<mask id="mask0_94_6513" style="mask-type:alpha" maskUnits="userSpaceOnUse" x="70" y="74" width="60" height="82">
<path d="M130 126C130 142.569 116.569 156 100 156C83.4315 156 70 142.569 70 126V74H130V126Z" fill="url(#paint11_linear_94_6513)"/>
</mask>
<g mask="url(#mask0_94_6513)">
<g filter="url(#filter7_i_94_6513)">
<circle cx="100.5" cy="149" r="5" fill="url(#paint12_linear_94_6513)"/>
</g>
<g filter="url(#filter8_i_94_6513)">
<circle cx="112" cy="146" r="5" fill="url(#paint13_radial_94_6513)"/>
</g>
<g filter="url(#filter9_i_94_6513)">
<circle cx="88" cy="146" r="5" fill="url(#paint14_radial_94_6513)"/>
</g>
<g filter="url(#filter10_i_94_6513)">
<circle cx="100.5" cy="137" r="5" fill="url(#paint15_radial_94_6513)"/>
</g>
<g filter="url(#filter11_i_94_6513)">
<circle cx="89" cy="135" r="5" fill="url(#paint16_linear_94_6513)"/>
</g>
<g filter="url(#filter12_i_94_6513)">
<circle cx="77" cy="141" r="5" fill="url(#paint17_radial_94_6513)"/>
</g>
<g filter="url(#filter13_i_94_6513)">
<circle cx="113" cy="135" r="5" fill="url(#paint18_radial_94_6513)"/>
</g>
<g filter="url(#filter14_i_94_6513)">
<circle cx="124" cy="141" r="5" fill="url(#paint19_linear_94_6513)"/>
</g>
</g>
<rect x="70" y="67" width="60" height="7" fill="url(#paint20_linear_94_6513)"/>
<g filter="url(#filter15_i_94_6513)">
<path d="M66 56.2078C66 56.093 66.093 56 66.2078 56H133.792C133.907 56 134 56.093 134 56.2078V126C134 144.778 118.778 160 100 160C81.2223 160 66 144.778 66 126V56.2078Z" fill="white" fill-opacity="0.05"/>
</g>
<path id="star" d="M59.545 78L56.465 72.7958L53.28 78L50.83 76.0576L54.575 71.5864L49.5 70.4136L50.445 67.4817L55.38 69.5707L54.925 64H58.075L57.62 69.5707L62.625 67.555L63.5 70.4503L58.355 71.5864L62.065 76.0942L59.545 78Z" fill="#F76513"/>
<path d="M45.5 77C45.5 79.7614 47.7386 82 50.5 82C47.7386 82 45.5 84.2386 45.5 87C45.5 84.2386 43.2614 82 40.5 82C43.2614 82 45.5 79.7614 45.5 77Z" fill="white"/>
<mask id="path-29-outside-1_94_6513" maskUnits="userSpaceOnUse" x="31" y="103" width="45" height="29" fill="black">
<rect fill="white" x="31" y="103" width="45" height="29"/>
<path d="M38.635 111.303H39.0688L39.8362 111.336L39.8028 113.055C39.7583 114.094 39.6694 115.261 39.5359 116.559C39.4024 117.857 39.3023 118.895 39.2356 119.674C39.1021 121.966 39.0243 123.156 39.002 123.242C38.9575 123.74 38.9353 124.01 38.9353 124.053C38.9353 124.27 38.9798 124.41 39.0688 124.475C39.1355 124.518 39.2467 124.54 39.4024 124.54C40.0253 124.54 41.1709 124.367 42.8392 124.021L43.5733 123.859V122.302C43.5733 121.393 43.6178 120.874 43.7068 120.744C43.729 120.701 43.907 120.679 44.2406 120.679H44.6077L45.3418 120.744L45.5086 122.074C45.6198 123.134 45.731 123.707 45.8423 123.794C45.8868 123.837 45.909 123.934 45.909 124.086C45.909 124.324 45.8756 124.464 45.8089 124.508C45.6532 124.637 45.3751 124.735 44.9747 124.8C44.1517 124.908 42.7836 125.146 40.8706 125.513C39.6026 125.708 38.7017 125.805 38.1678 125.805H37.9676L37.0334 125.773L37 124.313V123.956C37 123.134 37.0445 122.485 37.1335 122.01C37.2669 121.188 37.4449 119.241 37.6673 116.17C37.8675 113.877 38.0121 112.515 38.1011 112.082C38.2123 111.541 38.2679 111.239 38.2679 111.174C38.2679 111.26 38.3903 111.303 38.635 111.303Z"/>
<path d="M57.2204 109C57.4874 109 57.6542 109.032 57.7209 109.097C57.8766 109.205 57.9545 110.114 57.9545 111.823C57.9545 114.526 57.7877 116.84 57.454 118.765C57.4095 119.025 57.3316 119.587 57.2204 120.452C57.1092 121.296 56.998 122.031 56.8868 122.658C56.7755 123.264 56.6532 123.729 56.5197 124.053C56.3418 124.378 56.1972 124.583 56.0859 124.67C55.997 124.756 55.7634 124.854 55.3852 124.962C54.9626 125.092 54.5956 125.156 54.2841 125.156C53.9949 125.156 53.5612 125.124 52.9828 125.059C51.8928 124.929 51.181 124.778 50.8473 124.605C50.4024 124.367 49.9909 124.064 49.6127 123.697C49.2346 123.329 49.0233 123.004 48.9788 122.723C48.7341 121.534 48.6117 120.29 48.6117 118.992C48.6117 118.949 48.6117 118.906 48.6117 118.863L48.6451 118.765C48.6896 118.592 48.7118 117.305 48.7118 114.905L48.7452 111.336L49.0455 111.174C49.2679 111.044 49.5238 110.979 49.8129 110.979H49.9798L50.4803 111.011L50.547 116.3C50.5915 119.176 50.6582 120.961 50.7472 121.653C50.8584 122.366 51.1143 122.896 51.5147 123.242C52.1153 123.761 52.7492 124.021 53.4166 124.021H53.6835L54.5844 123.989L54.818 123.048C54.9292 122.55 55.2295 120.679 55.7189 117.435C55.8524 116.613 55.9525 115.078 56.0192 112.828C56.0859 111.206 56.1416 110.2 56.186 109.811C56.2083 109.443 56.275 109.238 56.3862 109.195C56.5197 109.065 56.7978 109 57.2204 109Z"/>
<path d="M68.2983 110.784H69.0991C69.6552 110.784 69.9555 110.838 70 110.947C70 110.968 70 111.001 70 111.044C70 111.303 69.7776 112.201 69.3327 113.737C69.3104 113.802 69.2548 113.985 69.1658 114.288C69.0991 114.569 69.0212 114.851 68.9323 115.132C68.8655 115.391 68.7988 115.629 68.7321 115.845C68.6431 116.3 68.5096 116.7 68.3316 117.046C68.1537 117.435 68.0313 117.933 67.9646 118.538C67.9201 118.971 67.8756 119.295 67.8311 119.511C67.7867 119.749 67.7199 119.998 67.6309 120.258C67.542 120.56 67.453 120.885 67.364 121.231C66.8746 123.61 66.6077 125.005 66.5632 125.416L66.4965 125.935L65.7624 125.968C65.5844 125.989 65.3842 126 65.1618 126C64.8059 126 64.5612 125.946 64.4277 125.838C64.2942 125.73 64.1719 125.535 64.0607 125.254C63.8605 124.756 63.7604 124.454 63.7604 124.345C63.7604 124.194 63.6714 123.848 63.4934 123.307C63.3377 122.788 63.1931 122.399 63.0597 122.139C62.9929 121.988 62.8928 121.642 62.7594 121.101C62.6259 120.409 62.4368 119.544 62.1921 118.506C61.9474 117.489 61.7139 116.527 61.4914 115.618C61.091 113.693 60.8908 112.547 60.8908 112.179C60.8908 112.115 60.8908 112.082 60.8908 112.082C60.9798 111.952 61.2245 111.887 61.6249 111.887C62.0698 111.887 62.3589 111.974 62.4924 112.147C62.6259 112.277 62.7927 112.785 62.9929 113.672C64.0162 118.473 64.6613 121.08 64.9282 121.49C65.0839 121.728 65.2285 121.663 65.362 121.296L65.4287 121.101C65.5622 120.56 65.7846 119.76 66.0961 118.7C66.363 117.619 66.5521 116.743 66.6633 116.073C66.6855 115.77 66.7523 115.467 66.8635 115.164C66.9747 114.926 67.186 114.31 67.4975 113.315C67.8089 112.342 68.0091 111.66 68.0981 111.271L68.2983 110.784Z"/>
</mask>
<path d="M38.635 111.303H39.0688L39.8362 111.336L39.8028 113.055C39.7583 114.094 39.6694 115.261 39.5359 116.559C39.4024 117.857 39.3023 118.895 39.2356 119.674C39.1021 121.966 39.0243 123.156 39.002 123.242C38.9575 123.74 38.9353 124.01 38.9353 124.053C38.9353 124.27 38.9798 124.41 39.0688 124.475C39.1355 124.518 39.2467 124.54 39.4024 124.54C40.0253 124.54 41.1709 124.367 42.8392 124.021L43.5733 123.859V122.302C43.5733 121.393 43.6178 120.874 43.7068 120.744C43.729 120.701 43.907 120.679 44.2406 120.679H44.6077L45.3418 120.744L45.5086 122.074C45.6198 123.134 45.731 123.707 45.8423 123.794C45.8868 123.837 45.909 123.934 45.909 124.086C45.909 124.324 45.8756 124.464 45.8089 124.508C45.6532 124.637 45.3751 124.735 44.9747 124.8C44.1517 124.908 42.7836 125.146 40.8706 125.513C39.6026 125.708 38.7017 125.805 38.1678 125.805H37.9676L37.0334 125.773L37 124.313V123.956C37 123.134 37.0445 122.485 37.1335 122.01C37.2669 121.188 37.4449 119.241 37.6673 116.17C37.8675 113.877 38.0121 112.515 38.1011 112.082C38.2123 111.541 38.2679 111.239 38.2679 111.174C38.2679 111.26 38.3903 111.303 38.635 111.303Z" fill="#F76513"/>
<path d="M57.2204 109C57.4874 109 57.6542 109.032 57.7209 109.097C57.8766 109.205 57.9545 110.114 57.9545 111.823C57.9545 114.526 57.7877 116.84 57.454 118.765C57.4095 119.025 57.3316 119.587 57.2204 120.452C57.1092 121.296 56.998 122.031 56.8868 122.658C56.7755 123.264 56.6532 123.729 56.5197 124.053C56.3418 124.378 56.1972 124.583 56.0859 124.67C55.997 124.756 55.7634 124.854 55.3852 124.962C54.9626 125.092 54.5956 125.156 54.2841 125.156C53.9949 125.156 53.5612 125.124 52.9828 125.059C51.8928 124.929 51.181 124.778 50.8473 124.605C50.4024 124.367 49.9909 124.064 49.6127 123.697C49.2346 123.329 49.0233 123.004 48.9788 122.723C48.7341 121.534 48.6117 120.29 48.6117 118.992C48.6117 118.949 48.6117 118.906 48.6117 118.863L48.6451 118.765C48.6896 118.592 48.7118 117.305 48.7118 114.905L48.7452 111.336L49.0455 111.174C49.2679 111.044 49.5238 110.979 49.8129 110.979H49.9798L50.4803 111.011L50.547 116.3C50.5915 119.176 50.6582 120.961 50.7472 121.653C50.8584 122.366 51.1143 122.896 51.5147 123.242C52.1153 123.761 52.7492 124.021 53.4166 124.021H53.6835L54.5844 123.989L54.818 123.048C54.9292 122.55 55.2295 120.679 55.7189 117.435C55.8524 116.613 55.9525 115.078 56.0192 112.828C56.0859 111.206 56.1416 110.2 56.186 109.811C56.2083 109.443 56.275 109.238 56.3862 109.195C56.5197 109.065 56.7978 109 57.2204 109Z" fill="#F76513"/>
<path d="M68.2983 110.784H69.0991C69.6552 110.784 69.9555 110.838 70 110.947C70 110.968 70 111.001 70 111.044C70 111.303 69.7776 112.201 69.3327 113.737C69.3104 113.802 69.2548 113.985 69.1658 114.288C69.0991 114.569 69.0212 114.851 68.9323 115.132C68.8655 115.391 68.7988 115.629 68.7321 115.845C68.6431 116.3 68.5096 116.7 68.3316 117.046C68.1537 117.435 68.0313 117.933 67.9646 118.538C67.9201 118.971 67.8756 119.295 67.8311 119.511C67.7867 119.749 67.7199 119.998 67.6309 120.258C67.542 120.56 67.453 120.885 67.364 121.231C66.8746 123.61 66.6077 125.005 66.5632 125.416L66.4965 125.935L65.7624 125.968C65.5844 125.989 65.3842 126 65.1618 126C64.8059 126 64.5612 125.946 64.4277 125.838C64.2942 125.73 64.1719 125.535 64.0607 125.254C63.8605 124.756 63.7604 124.454 63.7604 124.345C63.7604 124.194 63.6714 123.848 63.4934 123.307C63.3377 122.788 63.1931 122.399 63.0597 122.139C62.9929 121.988 62.8928 121.642 62.7594 121.101C62.6259 120.409 62.4368 119.544 62.1921 118.506C61.9474 117.489 61.7139 116.527 61.4914 115.618C61.091 113.693 60.8908 112.547 60.8908 112.179C60.8908 112.115 60.8908 112.082 60.8908 112.082C60.9798 111.952 61.2245 111.887 61.6249 111.887C62.0698 111.887 62.3589 111.974 62.4924 112.147C62.6259 112.277 62.7927 112.785 62.9929 113.672C64.0162 118.473 64.6613 121.08 64.9282 121.49C65.0839 121.728 65.2285 121.663 65.362 121.296L65.4287 121.101C65.5622 120.56 65.7846 119.76 66.0961 118.7C66.363 117.619 66.5521 116.743 66.6633 116.073C66.6855 115.77 66.7523 115.467 66.8635 115.164C66.9747 114.926 67.186 114.31 67.4975 113.315C67.8089 112.342 68.0091 111.66 68.0981 111.271L68.2983 110.784Z" fill="#F76513"/>
<path d="M38.635 111.303H39.0688L39.8362 111.336L39.8028 113.055C39.7583 114.094 39.6694 115.261 39.5359 116.559C39.4024 117.857 39.3023 118.895 39.2356 119.674C39.1021 121.966 39.0243 123.156 39.002 123.242C38.9575 123.74 38.9353 124.01 38.9353 124.053C38.9353 124.27 38.9798 124.41 39.0688 124.475C39.1355 124.518 39.2467 124.54 39.4024 124.54C40.0253 124.54 41.1709 124.367 42.8392 124.021L43.5733 123.859V122.302C43.5733 121.393 43.6178 120.874 43.7068 120.744C43.729 120.701 43.907 120.679 44.2406 120.679H44.6077L45.3418 120.744L45.5086 122.074C45.6198 123.134 45.731 123.707 45.8423 123.794C45.8868 123.837 45.909 123.934 45.909 124.086C45.909 124.324 45.8756 124.464 45.8089 124.508C45.6532 124.637 45.3751 124.735 44.9747 124.8C44.1517 124.908 42.7836 125.146 40.8706 125.513C39.6026 125.708 38.7017 125.805 38.1678 125.805H37.9676L37.0334 125.773L37 124.313V123.956C37 123.134 37.0445 122.485 37.1335 122.01C37.2669 121.188 37.4449 119.241 37.6673 116.17C37.8675 113.877 38.0121 112.515 38.1011 112.082C38.2123 111.541 38.2679 111.239 38.2679 111.174C38.2679 111.26 38.3903 111.303 38.635 111.303Z" stroke="#F5F0F0" stroke-width="12" stroke-linejoin="round" mask="url(#path-29-outside-1_94_6513)"/>
<path d="M57.2204 109C57.4874 109 57.6542 109.032 57.7209 109.097C57.8766 109.205 57.9545 110.114 57.9545 111.823C57.9545 114.526 57.7877 116.84 57.454 118.765C57.4095 119.025 57.3316 119.587 57.2204 120.452C57.1092 121.296 56.998 122.031 56.8868 122.658C56.7755 123.264 56.6532 123.729 56.5197 124.053C56.3418 124.378 56.1972 124.583 56.0859 124.67C55.997 124.756 55.7634 124.854 55.3852 124.962C54.9626 125.092 54.5956 125.156 54.2841 125.156C53.9949 125.156 53.5612 125.124 52.9828 125.059C51.8928 124.929 51.181 124.778 50.8473 124.605C50.4024 124.367 49.9909 124.064 49.6127 123.697C49.2346 123.329 49.0233 123.004 48.9788 122.723C48.7341 121.534 48.6117 120.29 48.6117 118.992C48.6117 118.949 48.6117 118.906 48.6117 118.863L48.6451 118.765C48.6896 118.592 48.7118 117.305 48.7118 114.905L48.7452 111.336L49.0455 111.174C49.2679 111.044 49.5238 110.979 49.8129 110.979H49.9798L50.4803 111.011L50.547 116.3C50.5915 119.176 50.6582 120.961 50.7472 121.653C50.8584 122.366 51.1143 122.896 51.5147 123.242C52.1153 123.761 52.7492 124.021 53.4166 124.021H53.6835L54.5844 123.989L54.818 123.048C54.9292 122.55 55.2295 120.679 55.7189 117.435C55.8524 116.613 55.9525 115.078 56.0192 112.828C56.0859 111.206 56.1416 110.2 56.186 109.811C56.2083 109.443 56.275 109.238 56.3862 109.195C56.5197 109.065 56.7978 109 57.2204 109Z" stroke="#F5F0F0" stroke-width="12" stroke-linejoin="round" mask="url(#path-29-outside-1_94_6513)"/>
<path d="M68.2983 110.784H69.0991C69.6552 110.784 69.9555 110.838 70 110.947C70 110.968 70 111.001 70 111.044C70 111.303 69.7776 112.201 69.3327 113.737C69.3104 113.802 69.2548 113.985 69.1658 114.288C69.0991 114.569 69.0212 114.851 68.9323 115.132C68.8655 115.391 68.7988 115.629 68.7321 115.845C68.6431 116.3 68.5096 116.7 68.3316 117.046C68.1537 117.435 68.0313 117.933 67.9646 118.538C67.9201 118.971 67.8756 119.295 67.8311 119.511C67.7867 119.749 67.7199 119.998 67.6309 120.258C67.542 120.56 67.453 120.885 67.364 121.231C66.8746 123.61 66.6077 125.005 66.5632 125.416L66.4965 125.935L65.7624 125.968C65.5844 125.989 65.3842 126 65.1618 126C64.8059 126 64.5612 125.946 64.4277 125.838C64.2942 125.73 64.1719 125.535 64.0607 125.254C63.8605 124.756 63.7604 124.454 63.7604 124.345C63.7604 124.194 63.6714 123.848 63.4934 123.307C63.3377 122.788 63.1931 122.399 63.0597 122.139C62.9929 121.988 62.8928 121.642 62.7594 121.101C62.6259 120.409 62.4368 119.544 62.1921 118.506C61.9474 117.489 61.7139 116.527 61.4914 115.618C61.091 113.693 60.8908 112.547 60.8908 112.179C60.8908 112.115 60.8908 112.082 60.8908 112.082C60.9798 111.952 61.2245 111.887 61.6249 111.887C62.0698 111.887 62.3589 111.974 62.4924 112.147C62.6259 112.277 62.7927 112.785 62.9929 113.672C64.0162 118.473 64.6613 121.08 64.9282 121.49C65.0839 121.728 65.2285 121.663 65.362 121.296L65.4287 121.101C65.5622 120.56 65.7846 119.76 66.0961 118.7C66.363 117.619 66.5521 116.743 66.6633 116.073C66.6855 115.77 66.7523 115.467 66.8635 115.164C66.9747 114.926 67.186 114.31 67.4975 113.315C67.8089 112.342 68.0091 111.66 68.0981 111.271L68.2983 110.784Z" stroke="#F5F0F0" stroke-width="12" stroke-linejoin="round" mask="url(#path-29-outside-1_94_6513)"/>
<mask id="path-30-outside-2_94_6513" maskUnits="userSpaceOnUse" x="114.5" y="153" width="72" height="31" fill="black">
<rect fill="white" x="114.5" y="153" width="72" height="31"/>
<path d="M123.403 165.592C123.79 164.699 123.983 164.223 123.983 164.165C123.983 164.087 124.022 163.981 124.099 163.845C124.603 162.621 125.009 161.845 125.319 161.515C125.531 161.262 125.773 161.136 126.044 161.136C126.083 161.136 126.141 161.146 126.218 161.165C126.296 161.165 126.364 161.165 126.422 161.165L127.089 161.223V162.65C127.089 163.66 127.051 164.612 126.973 165.505C126.954 165.699 126.944 165.932 126.944 166.204C126.944 166.476 127.002 166.612 127.118 166.612C127.234 166.612 127.438 166.233 127.728 165.476C128.425 163.379 128.899 162.233 129.15 162.039C129.324 161.922 129.634 161.864 130.079 161.864C130.389 161.864 130.582 161.893 130.66 161.951C130.737 162.01 131.066 162.903 131.647 164.631C132.227 166.398 132.517 167.398 132.517 167.631C132.517 167.786 132.595 168.078 132.75 168.505C132.885 168.913 132.953 169.194 132.953 169.35C132.953 169.505 133.03 169.767 133.185 170.136C133.321 170.466 133.388 170.68 133.388 170.777C133.388 170.951 133.543 171.476 133.853 172.35C134.162 173.223 134.385 173.757 134.52 173.951C134.636 174.126 134.694 174.301 134.694 174.476C134.694 174.592 134.646 174.67 134.549 174.709C134.414 174.767 134.22 174.796 133.969 174.796C133.64 174.796 133.359 174.738 133.127 174.621C132.914 174.505 132.808 174.369 132.808 174.214C132.808 174.019 132.759 173.874 132.663 173.777C132.585 173.699 132.469 173.437 132.314 172.99C132.159 172.524 132.082 172.223 132.082 172.087C132.082 171.854 132.024 171.67 131.908 171.534C131.811 171.456 131.705 171.155 131.589 170.631C131.511 170.223 131.327 169.495 131.037 168.447C130.747 167.417 130.582 166.816 130.544 166.641C130.273 165.495 130.011 164.922 129.76 164.922C129.644 164.922 129.431 165.408 129.121 166.379C128.812 167.272 128.463 168.35 128.076 169.612C127.689 170.893 127.428 171.709 127.292 172.058C127.138 172.563 127.022 172.981 126.944 173.311C126.905 173.602 126.847 173.796 126.77 173.893C126.712 173.971 126.547 174.524 126.276 175.553C126.122 176.214 125.977 176.641 125.841 176.835C125.725 177.029 125.551 177.126 125.319 177.126C125.261 177.126 125.096 177.107 124.825 177.068C124.535 177.01 124.37 176.893 124.332 176.718C124.332 176.718 124.322 176.68 124.303 176.602C124.303 176.544 124.303 176.485 124.303 176.427C124.303 175.786 124.37 174.65 124.506 173.019C124.641 171.369 124.748 170.32 124.825 169.874C124.903 169.524 124.98 168.825 125.057 167.777L125.144 166.32L124.883 166.233L124.564 166.903C124.177 167.796 123.906 168.456 123.751 168.883C122.88 171.194 122.251 172.563 121.864 172.99C121.748 173.126 121.497 173.194 121.11 173.194C120.703 173.194 120.5 173.078 120.5 172.845C120.5 172.689 120.616 172.311 120.848 171.709C121.081 171.107 121.255 170.748 121.371 170.631C121.468 170.476 121.516 170.32 121.516 170.165C121.516 170.087 121.613 169.825 121.806 169.379C121.845 169.262 121.932 169.058 122.067 168.767C122.203 168.456 122.29 168.252 122.329 168.155C122.464 167.825 122.58 167.583 122.677 167.427C122.774 167.272 122.822 167.117 122.822 166.961C122.822 166.922 123.016 166.466 123.403 165.592Z"/>
<path d="M141.284 168.476C141.206 168.34 141.061 168.272 140.848 168.272C140.558 168.272 140.219 168.495 139.832 168.942C139.465 169.388 139.213 169.864 139.078 170.369C138.942 170.835 138.874 171.524 138.874 172.437C138.874 173.738 138.991 174.553 139.223 174.883C139.436 175.233 139.61 175.408 139.745 175.408C140.016 175.408 140.297 174.602 140.587 172.99C140.703 172.214 140.906 171.35 141.197 170.398C141.293 170.126 141.342 169.709 141.342 169.146C141.342 168.796 141.322 168.573 141.284 168.476ZM142.503 166C142.58 166 142.648 165.99 142.706 165.971C142.745 165.971 142.774 165.971 142.793 165.971C142.851 165.951 142.967 165.971 143.142 166.029C143.316 166.068 143.403 166.34 143.403 166.845C143.403 167.699 143.151 169.175 142.648 171.272C142.59 171.641 142.464 172.32 142.271 173.311C142.077 174.282 141.942 174.981 141.864 175.408C141.826 175.602 141.758 175.932 141.661 176.398C141.564 176.864 141.516 177.175 141.516 177.33L141.429 177.913H139.948L139.89 177.272C139.871 177.019 139.852 176.845 139.832 176.748C139.813 176.631 139.765 176.544 139.687 176.485C139.61 176.427 139.503 176.398 139.368 176.398C138.923 176.398 138.507 176.223 138.12 175.874C137.733 175.524 137.481 175.107 137.365 174.621C137.249 174.136 137.191 173.505 137.191 172.728C137.191 171.136 137.384 169.961 137.771 169.204C138.12 168.524 138.487 168.049 138.874 167.777C139.261 167.524 139.813 167.359 140.529 167.282L141.748 167.194L141.835 166.524C141.874 166.311 141.913 166.184 141.951 166.146C142.009 166.087 142.116 166.049 142.271 166.029C142.329 166.029 142.406 166.019 142.503 166Z"/>
<path d="M150.369 160C150.563 160 150.718 160.039 150.834 160.117C150.931 160.175 150.979 160.398 150.979 160.786C150.979 161.117 150.979 161.408 150.979 161.66C150.902 162.767 150.776 163.689 150.602 164.427C150.563 164.602 150.524 164.796 150.485 165.01C150.427 165.243 150.389 165.417 150.369 165.534L150.311 165.709C150.311 165.845 150.466 165.913 150.776 165.913C151.182 165.913 151.792 165.864 152.604 165.767C152.992 165.709 153.321 165.68 153.591 165.68C154.114 165.68 154.375 165.786 154.375 166C154.375 166.214 154.201 166.369 153.853 166.466C153.466 166.583 152.779 166.68 151.792 166.757L150.166 166.903L150.021 167.515C149.808 168.388 149.624 169.573 149.47 171.068C149.315 172.544 149.237 173.66 149.237 174.417C149.237 174.728 149.257 174.942 149.295 175.058C149.334 175.136 149.363 175.184 149.382 175.204C149.44 175.301 149.528 175.32 149.644 175.262C149.702 175.243 149.76 175.204 149.818 175.146C149.857 175.087 149.905 175.01 149.963 174.913C150.176 174.602 150.389 173.816 150.602 172.553C150.795 171.33 150.921 170.699 150.979 170.66C150.998 170.621 151.182 170.602 151.53 170.602C152.111 170.602 152.421 170.641 152.459 170.718C152.459 170.738 152.459 170.786 152.459 170.864C152.459 171.369 152.324 172.379 152.053 173.893C151.898 174.748 151.511 175.515 150.892 176.194C150.698 176.408 150.447 176.515 150.137 176.515C149.886 176.515 149.663 176.505 149.47 176.485C148.792 176.485 148.347 176.398 148.134 176.223C147.902 176.049 147.728 175.699 147.612 175.175C147.554 174.786 147.525 174.408 147.525 174.039C147.525 172.816 147.776 170.699 148.279 167.689L148.425 166.874L147.234 166.757C146.731 166.699 146.383 166.631 146.189 166.553C146.054 166.476 145.986 166.359 145.986 166.204C145.986 165.951 146.335 165.825 147.031 165.825C147.244 165.825 147.418 165.825 147.554 165.825L148.628 165.971L148.976 164.107C149.189 163.058 149.334 162.223 149.411 161.602C149.508 160.65 149.692 160.136 149.963 160.058C150.04 160.019 150.176 160 150.369 160Z"/>
<path d="M159.02 165.184L160.529 165.243L162.067 165.272L162.445 165.738C162.696 165.971 162.822 166.194 162.822 166.408C162.822 166.563 162.803 166.65 162.764 166.67C162.706 166.709 162.542 166.748 162.271 166.786H162.067C161.777 166.786 161.497 166.68 161.226 166.466C160.955 166.233 160.684 166.117 160.413 166.117H160.355C159.89 166.175 159.484 166.864 159.136 168.184C158.807 169.466 158.633 170.874 158.613 172.408V173.049C158.613 173.961 158.7 174.563 158.874 174.854C159.049 175.126 159.223 175.32 159.397 175.437C159.59 175.553 159.881 175.612 160.268 175.612C160.384 175.612 160.684 175.592 161.168 175.553L162.416 175.495V175.699C162.416 175.99 162.3 176.204 162.067 176.34C161.797 176.456 161.284 176.515 160.529 176.515C160.452 176.515 160.336 176.515 160.181 176.515C160.007 176.495 159.871 176.485 159.774 176.485C159.174 176.466 158.768 176.427 158.555 176.369C158.381 176.33 158.197 176.243 158.004 176.107C157.636 175.854 157.375 175.524 157.22 175.117C157.026 174.689 156.93 174.136 156.93 173.456C156.93 172.874 156.939 172.359 156.959 171.913C157.036 169.893 157.239 168.427 157.568 167.515C157.878 166.68 158.236 166.039 158.642 165.592L159.02 165.184Z"/>
<path d="M168.337 161.893C168.57 161.913 168.734 161.932 168.831 161.951C168.889 161.971 168.937 161.99 168.976 162.01C168.995 162.049 169.024 162.126 169.063 162.243C169.082 162.379 169.092 162.495 169.092 162.592C169.092 162.981 168.908 163.883 168.541 165.301C168.289 166.194 168.163 166.796 168.163 167.107C168.163 167.359 168.212 167.524 168.308 167.602C168.405 167.66 168.599 167.689 168.889 167.689C169.799 167.689 170.485 167.99 170.95 168.592C171.337 169.155 171.598 169.68 171.734 170.165C171.85 170.67 171.908 171.563 171.908 172.845V174.214L171.85 177.505H170.979C170.669 177.505 170.495 177.495 170.456 177.476C170.36 177.417 170.311 176.718 170.311 175.379V174.301C170.311 172.553 170.273 171.388 170.195 170.806C170.098 170.223 169.847 169.68 169.44 169.175C169.112 168.786 168.821 168.592 168.57 168.592H168.396L167.873 168.65L167.583 170.252C167.389 171.495 167.244 172.961 167.147 174.65C167.051 176.437 166.983 177.476 166.944 177.767C166.925 177.864 166.876 177.922 166.799 177.942C166.722 177.981 166.489 178 166.102 178H165.377L165.464 175.262C165.522 173.709 165.677 171.971 165.928 170.049C166.18 168.146 166.47 166.621 166.799 165.476C167.089 164.33 167.263 163.621 167.321 163.35C167.515 162.437 167.631 161.961 167.67 161.922C167.728 161.864 167.95 161.854 168.337 161.893Z"/>
<path d="M178.381 168.476C178.304 168.34 178.158 168.272 177.946 168.272C177.655 168.272 177.317 168.495 176.93 168.942C176.562 169.388 176.31 169.864 176.175 170.369C176.039 170.835 175.972 171.524 175.972 172.437C175.972 173.738 176.088 174.553 176.32 174.883C176.533 175.233 176.707 175.408 176.843 175.408C177.113 175.408 177.394 174.602 177.684 172.99C177.8 172.214 178.004 171.35 178.294 170.398C178.391 170.126 178.439 169.709 178.439 169.146C178.439 168.796 178.42 168.573 178.381 168.476ZM179.6 166C179.678 166 179.745 165.99 179.803 165.971C179.842 165.971 179.871 165.971 179.89 165.971C179.948 165.951 180.065 165.971 180.239 166.029C180.413 166.068 180.5 166.34 180.5 166.845C180.5 167.699 180.248 169.175 179.745 171.272C179.687 171.641 179.561 172.32 179.368 173.311C179.174 174.282 179.039 174.981 178.962 175.408C178.923 175.602 178.855 175.932 178.758 176.398C178.662 176.864 178.613 177.175 178.613 177.33L178.526 177.913H177.046L176.988 177.272C176.968 177.019 176.949 176.845 176.93 176.748C176.91 176.631 176.862 176.544 176.784 176.485C176.707 176.427 176.601 176.398 176.465 176.398C176.02 176.398 175.604 176.223 175.217 175.874C174.83 175.524 174.578 175.107 174.462 174.621C174.346 174.136 174.288 173.505 174.288 172.728C174.288 171.136 174.482 169.961 174.869 169.204C175.217 168.524 175.585 168.049 175.972 167.777C176.359 167.524 176.91 167.359 177.626 167.282L178.845 167.194L178.933 166.524C178.971 166.311 179.01 166.184 179.049 166.146C179.107 166.087 179.213 166.049 179.368 166.029C179.426 166.029 179.503 166.019 179.6 166Z"/>
</mask>
<path d="M123.403 165.592C123.79 164.699 123.983 164.223 123.983 164.165C123.983 164.087 124.022 163.981 124.099 163.845C124.603 162.621 125.009 161.845 125.319 161.515C125.531 161.262 125.773 161.136 126.044 161.136C126.083 161.136 126.141 161.146 126.218 161.165C126.296 161.165 126.364 161.165 126.422 161.165L127.089 161.223V162.65C127.089 163.66 127.051 164.612 126.973 165.505C126.954 165.699 126.944 165.932 126.944 166.204C126.944 166.476 127.002 166.612 127.118 166.612C127.234 166.612 127.438 166.233 127.728 165.476C128.425 163.379 128.899 162.233 129.15 162.039C129.324 161.922 129.634 161.864 130.079 161.864C130.389 161.864 130.582 161.893 130.66 161.951C130.737 162.01 131.066 162.903 131.647 164.631C132.227 166.398 132.517 167.398 132.517 167.631C132.517 167.786 132.595 168.078 132.75 168.505C132.885 168.913 132.953 169.194 132.953 169.35C132.953 169.505 133.03 169.767 133.185 170.136C133.321 170.466 133.388 170.68 133.388 170.777C133.388 170.951 133.543 171.476 133.853 172.35C134.162 173.223 134.385 173.757 134.52 173.951C134.636 174.126 134.694 174.301 134.694 174.476C134.694 174.592 134.646 174.67 134.549 174.709C134.414 174.767 134.22 174.796 133.969 174.796C133.64 174.796 133.359 174.738 133.127 174.621C132.914 174.505 132.808 174.369 132.808 174.214C132.808 174.019 132.759 173.874 132.663 173.777C132.585 173.699 132.469 173.437 132.314 172.99C132.159 172.524 132.082 172.223 132.082 172.087C132.082 171.854 132.024 171.67 131.908 171.534C131.811 171.456 131.705 171.155 131.589 170.631C131.511 170.223 131.327 169.495 131.037 168.447C130.747 167.417 130.582 166.816 130.544 166.641C130.273 165.495 130.011 164.922 129.76 164.922C129.644 164.922 129.431 165.408 129.121 166.379C128.812 167.272 128.463 168.35 128.076 169.612C127.689 170.893 127.428 171.709 127.292 172.058C127.138 172.563 127.022 172.981 126.944 173.311C126.905 173.602 126.847 173.796 126.77 173.893C126.712 173.971 126.547 174.524 126.276 175.553C126.122 176.214 125.977 176.641 125.841 176.835C125.725 177.029 125.551 177.126 125.319 177.126C125.261 177.126 125.096 177.107 124.825 177.068C124.535 177.01 124.37 176.893 124.332 176.718C124.332 176.718 124.322 176.68 124.303 176.602C124.303 176.544 124.303 176.485 124.303 176.427C124.303 175.786 124.37 174.65 124.506 173.019C124.641 171.369 124.748 170.32 124.825 169.874C124.903 169.524 124.98 168.825 125.057 167.777L125.144 166.32L124.883 166.233L124.564 166.903C124.177 167.796 123.906 168.456 123.751 168.883C122.88 171.194 122.251 172.563 121.864 172.99C121.748 173.126 121.497 173.194 121.11 173.194C120.703 173.194 120.5 173.078 120.5 172.845C120.5 172.689 120.616 172.311 120.848 171.709C121.081 171.107 121.255 170.748 121.371 170.631C121.468 170.476 121.516 170.32 121.516 170.165C121.516 170.087 121.613 169.825 121.806 169.379C121.845 169.262 121.932 169.058 122.067 168.767C122.203 168.456 122.29 168.252 122.329 168.155C122.464 167.825 122.58 167.583 122.677 167.427C122.774 167.272 122.822 167.117 122.822 166.961C122.822 166.922 123.016 166.466 123.403 165.592Z" fill="#F76513"/>
<path d="M141.284 168.476C141.206 168.34 141.061 168.272 140.848 168.272C140.558 168.272 140.219 168.495 139.832 168.942C139.465 169.388 139.213 169.864 139.078 170.369C138.942 170.835 138.874 171.524 138.874 172.437C138.874 173.738 138.991 174.553 139.223 174.883C139.436 175.233 139.61 175.408 139.745 175.408C140.016 175.408 140.297 174.602 140.587 172.99C140.703 172.214 140.906 171.35 141.197 170.398C141.293 170.126 141.342 169.709 141.342 169.146C141.342 168.796 141.322 168.573 141.284 168.476ZM142.503 166C142.58 166 142.648 165.99 142.706 165.971C142.745 165.971 142.774 165.971 142.793 165.971C142.851 165.951 142.967 165.971 143.142 166.029C143.316 166.068 143.403 166.34 143.403 166.845C143.403 167.699 143.151 169.175 142.648 171.272C142.59 171.641 142.464 172.32 142.271 173.311C142.077 174.282 141.942 174.981 141.864 175.408C141.826 175.602 141.758 175.932 141.661 176.398C141.564 176.864 141.516 177.175 141.516 177.33L141.429 177.913H139.948L139.89 177.272C139.871 177.019 139.852 176.845 139.832 176.748C139.813 176.631 139.765 176.544 139.687 176.485C139.61 176.427 139.503 176.398 139.368 176.398C138.923 176.398 138.507 176.223 138.12 175.874C137.733 175.524 137.481 175.107 137.365 174.621C137.249 174.136 137.191 173.505 137.191 172.728C137.191 171.136 137.384 169.961 137.771 169.204C138.12 168.524 138.487 168.049 138.874 167.777C139.261 167.524 139.813 167.359 140.529 167.282L141.748 167.194L141.835 166.524C141.874 166.311 141.913 166.184 141.951 166.146C142.009 166.087 142.116 166.049 142.271 166.029C142.329 166.029 142.406 166.019 142.503 166Z" fill="#F76513"/>
<path d="M150.369 160C150.563 160 150.718 160.039 150.834 160.117C150.931 160.175 150.979 160.398 150.979 160.786C150.979 161.117 150.979 161.408 150.979 161.66C150.902 162.767 150.776 163.689 150.602 164.427C150.563 164.602 150.524 164.796 150.485 165.01C150.427 165.243 150.389 165.417 150.369 165.534L150.311 165.709C150.311 165.845 150.466 165.913 150.776 165.913C151.182 165.913 151.792 165.864 152.604 165.767C152.992 165.709 153.321 165.68 153.591 165.68C154.114 165.68 154.375 165.786 154.375 166C154.375 166.214 154.201 166.369 153.853 166.466C153.466 166.583 152.779 166.68 151.792 166.757L150.166 166.903L150.021 167.515C149.808 168.388 149.624 169.573 149.47 171.068C149.315 172.544 149.237 173.66 149.237 174.417C149.237 174.728 149.257 174.942 149.295 175.058C149.334 175.136 149.363 175.184 149.382 175.204C149.44 175.301 149.528 175.32 149.644 175.262C149.702 175.243 149.76 175.204 149.818 175.146C149.857 175.087 149.905 175.01 149.963 174.913C150.176 174.602 150.389 173.816 150.602 172.553C150.795 171.33 150.921 170.699 150.979 170.66C150.998 170.621 151.182 170.602 151.53 170.602C152.111 170.602 152.421 170.641 152.459 170.718C152.459 170.738 152.459 170.786 152.459 170.864C152.459 171.369 152.324 172.379 152.053 173.893C151.898 174.748 151.511 175.515 150.892 176.194C150.698 176.408 150.447 176.515 150.137 176.515C149.886 176.515 149.663 176.505 149.47 176.485C148.792 176.485 148.347 176.398 148.134 176.223C147.902 176.049 147.728 175.699 147.612 175.175C147.554 174.786 147.525 174.408 147.525 174.039C147.525 172.816 147.776 170.699 148.279 167.689L148.425 166.874L147.234 166.757C146.731 166.699 146.383 166.631 146.189 166.553C146.054 166.476 145.986 166.359 145.986 166.204C145.986 165.951 146.335 165.825 147.031 165.825C147.244 165.825 147.418 165.825 147.554 165.825L148.628 165.971L148.976 164.107C149.189 163.058 149.334 162.223 149.411 161.602C149.508 160.65 149.692 160.136 149.963 160.058C150.04 160.019 150.176 160 150.369 160Z" fill="#F76513"/>
<path d="M159.02 165.184L160.529 165.243L162.067 165.272L162.445 165.738C162.696 165.971 162.822 166.194 162.822 166.408C162.822 166.563 162.803 166.65 162.764 166.67C162.706 166.709 162.542 166.748 162.271 166.786H162.067C161.777 166.786 161.497 166.68 161.226 166.466C160.955 166.233 160.684 166.117 160.413 166.117H160.355C159.89 166.175 159.484 166.864 159.136 168.184C158.807 169.466 158.633 170.874 158.613 172.408V173.049C158.613 173.961 158.7 174.563 158.874 174.854C159.049 175.126 159.223 175.32 159.397 175.437C159.59 175.553 159.881 175.612 160.268 175.612C160.384 175.612 160.684 175.592 161.168 175.553L162.416 175.495V175.699C162.416 175.99 162.3 176.204 162.067 176.34C161.797 176.456 161.284 176.515 160.529 176.515C160.452 176.515 160.336 176.515 160.181 176.515C160.007 176.495 159.871 176.485 159.774 176.485C159.174 176.466 158.768 176.427 158.555 176.369C158.381 176.33 158.197 176.243 158.004 176.107C157.636 175.854 157.375 175.524 157.22 175.117C157.026 174.689 156.93 174.136 156.93 173.456C156.93 172.874 156.939 172.359 156.959 171.913C157.036 169.893 157.239 168.427 157.568 167.515C157.878 166.68 158.236 166.039 158.642 165.592L159.02 165.184Z" fill="#F76513"/>
<path d="M168.337 161.893C168.57 161.913 168.734 161.932 168.831 161.951C168.889 161.971 168.937 161.99 168.976 162.01C168.995 162.049 169.024 162.126 169.063 162.243C169.082 162.379 169.092 162.495 169.092 162.592C169.092 162.981 168.908 163.883 168.541 165.301C168.289 166.194 168.163 166.796 168.163 167.107C168.163 167.359 168.212 167.524 168.308 167.602C168.405 167.66 168.599 167.689 168.889 167.689C169.799 167.689 170.485 167.99 170.95 168.592C171.337 169.155 171.598 169.68 171.734 170.165C171.85 170.67 171.908 171.563 171.908 172.845V174.214L171.85 177.505H170.979C170.669 177.505 170.495 177.495 170.456 177.476C170.36 177.417 170.311 176.718 170.311 175.379V174.301C170.311 172.553 170.273 171.388 170.195 170.806C170.098 170.223 169.847 169.68 169.44 169.175C169.112 168.786 168.821 168.592 168.57 168.592H168.396L167.873 168.65L167.583 170.252C167.389 171.495 167.244 172.961 167.147 174.65C167.051 176.437 166.983 177.476 166.944 177.767C166.925 177.864 166.876 177.922 166.799 177.942C166.722 177.981 166.489 178 166.102 178H165.377L165.464 175.262C165.522 173.709 165.677 171.971 165.928 170.049C166.18 168.146 166.47 166.621 166.799 165.476C167.089 164.33 167.263 163.621 167.321 163.35C167.515 162.437 167.631 161.961 167.67 161.922C167.728 161.864 167.95 161.854 168.337 161.893Z" fill="#F76513"/>
<path d="M178.381 168.476C178.304 168.34 178.158 168.272 177.946 168.272C177.655 168.272 177.317 168.495 176.93 168.942C176.562 169.388 176.31 169.864 176.175 170.369C176.039 170.835 175.972 171.524 175.972 172.437C175.972 173.738 176.088 174.553 176.32 174.883C176.533 175.233 176.707 175.408 176.843 175.408C177.113 175.408 177.394 174.602 177.684 172.99C177.8 172.214 178.004 171.35 178.294 170.398C178.391 170.126 178.439 169.709 178.439 169.146C178.439 168.796 178.42 168.573 178.381 168.476ZM179.6 166C179.678 166 179.745 165.99 179.803 165.971C179.842 165.971 179.871 165.971 179.89 165.971C179.948 165.951 180.065 165.971 180.239 166.029C180.413 166.068 180.5 166.34 180.5 166.845C180.5 167.699 180.248 169.175 179.745 171.272C179.687 171.641 179.561 172.32 179.368 173.311C179.174 174.282 179.039 174.981 178.962 175.408C178.923 175.602 178.855 175.932 178.758 176.398C178.662 176.864 178.613 177.175 178.613 177.33L178.526 177.913H177.046L176.988 177.272C176.968 177.019 176.949 176.845 176.93 176.748C176.91 176.631 176.862 176.544 176.784 176.485C176.707 176.427 176.601 176.398 176.465 176.398C176.02 176.398 175.604 176.223 175.217 175.874C174.83 175.524 174.578 175.107 174.462 174.621C174.346 174.136 174.288 173.505 174.288 172.728C174.288 171.136 174.482 169.961 174.869 169.204C175.217 168.524 175.585 168.049 175.972 167.777C176.359 167.524 176.91 167.359 177.626 167.282L178.845 167.194L178.933 166.524C178.971 166.311 179.01 166.184 179.049 166.146C179.107 166.087 179.213 166.049 179.368 166.029C179.426 166.029 179.503 166.019 179.6 166Z" fill="#F76513"/>
<path d="M123.403 165.592C123.79 164.699 123.983 164.223 123.983 164.165C123.983 164.087 124.022 163.981 124.099 163.845C124.603 162.621 125.009 161.845 125.319 161.515C125.531 161.262 125.773 161.136 126.044 161.136C126.083 161.136 126.141 161.146 126.218 161.165C126.296 161.165 126.364 161.165 126.422 161.165L127.089 161.223V162.65C127.089 163.66 127.051 164.612 126.973 165.505C126.954 165.699 126.944 165.932 126.944 166.204C126.944 166.476 127.002 166.612 127.118 166.612C127.234 166.612 127.438 166.233 127.728 165.476C128.425 163.379 128.899 162.233 129.15 162.039C129.324 161.922 129.634 161.864 130.079 161.864C130.389 161.864 130.582 161.893 130.66 161.951C130.737 162.01 131.066 162.903 131.647 164.631C132.227 166.398 132.517 167.398 132.517 167.631C132.517 167.786 132.595 168.078 132.75 168.505C132.885 168.913 132.953 169.194 132.953 169.35C132.953 169.505 133.03 169.767 133.185 170.136C133.321 170.466 133.388 170.68 133.388 170.777C133.388 170.951 133.543 171.476 133.853 172.35C134.162 173.223 134.385 173.757 134.52 173.951C134.636 174.126 134.694 174.301 134.694 174.476C134.694 174.592 134.646 174.67 134.549 174.709C134.414 174.767 134.22 174.796 133.969 174.796C133.64 174.796 133.359 174.738 133.127 174.621C132.914 174.505 132.808 174.369 132.808 174.214C132.808 174.019 132.759 173.874 132.663 173.777C132.585 173.699 132.469 173.437 132.314 172.99C132.159 172.524 132.082 172.223 132.082 172.087C132.082 171.854 132.024 171.67 131.908 171.534C131.811 171.456 131.705 171.155 131.589 170.631C131.511 170.223 131.327 169.495 131.037 168.447C130.747 167.417 130.582 166.816 130.544 166.641C130.273 165.495 130.011 164.922 129.76 164.922C129.644 164.922 129.431 165.408 129.121 166.379C128.812 167.272 128.463 168.35 128.076 169.612C127.689 170.893 127.428 171.709 127.292 172.058C127.138 172.563 127.022 172.981 126.944 173.311C126.905 173.602 126.847 173.796 126.77 173.893C126.712 173.971 126.547 174.524 126.276 175.553C126.122 176.214 125.977 176.641 125.841 176.835C125.725 177.029 125.551 177.126 125.319 177.126C125.261 177.126 125.096 177.107 124.825 177.068C124.535 177.01 124.37 176.893 124.332 176.718C124.332 176.718 124.322 176.68 124.303 176.602C124.303 176.544 124.303 176.485 124.303 176.427C124.303 175.786 124.37 174.65 124.506 173.019C124.641 171.369 124.748 170.32 124.825 169.874C124.903 169.524 124.98 168.825 125.057 167.777L125.144 166.32L124.883 166.233L124.564 166.903C124.177 167.796 123.906 168.456 123.751 168.883C122.88 171.194 122.251 172.563 121.864 172.99C121.748 173.126 121.497 173.194 121.11 173.194C120.703 173.194 120.5 173.078 120.5 172.845C120.5 172.689 120.616 172.311 120.848 171.709C121.081 171.107 121.255 170.748 121.371 170.631C121.468 170.476 121.516 170.32 121.516 170.165C121.516 170.087 121.613 169.825 121.806 169.379C121.845 169.262 121.932 169.058 122.067 168.767C122.203 168.456 122.29 168.252 122.329 168.155C122.464 167.825 122.58 167.583 122.677 167.427C122.774 167.272 122.822 167.117 122.822 166.961C122.822 166.922 123.016 166.466 123.403 165.592Z" stroke="#F5F0F0" stroke-width="12" stroke-linejoin="round" mask="url(#path-30-outside-2_94_6513)"/>
<path d="M141.284 168.476C141.206 168.34 141.061 168.272 140.848 168.272C140.558 168.272 140.219 168.495 139.832 168.942C139.465 169.388 139.213 169.864 139.078 170.369C138.942 170.835 138.874 171.524 138.874 172.437C138.874 173.738 138.991 174.553 139.223 174.883C139.436 175.233 139.61 175.408 139.745 175.408C140.016 175.408 140.297 174.602 140.587 172.99C140.703 172.214 140.906 171.35 141.197 170.398C141.293 170.126 141.342 169.709 141.342 169.146C141.342 168.796 141.322 168.573 141.284 168.476ZM142.503 166C142.58 166 142.648 165.99 142.706 165.971C142.745 165.971 142.774 165.971 142.793 165.971C142.851 165.951 142.967 165.971 143.142 166.029C143.316 166.068 143.403 166.34 143.403 166.845C143.403 167.699 143.151 169.175 142.648 171.272C142.59 171.641 142.464 172.32 142.271 173.311C142.077 174.282 141.942 174.981 141.864 175.408C141.826 175.602 141.758 175.932 141.661 176.398C141.564 176.864 141.516 177.175 141.516 177.33L141.429 177.913H139.948L139.89 177.272C139.871 177.019 139.852 176.845 139.832 176.748C139.813 176.631 139.765 176.544 139.687 176.485C139.61 176.427 139.503 176.398 139.368 176.398C138.923 176.398 138.507 176.223 138.12 175.874C137.733 175.524 137.481 175.107 137.365 174.621C137.249 174.136 137.191 173.505 137.191 172.728C137.191 171.136 137.384 169.961 137.771 169.204C138.12 168.524 138.487 168.049 138.874 167.777C139.261 167.524 139.813 167.359 140.529 167.282L141.748 167.194L141.835 166.524C141.874 166.311 141.913 166.184 141.951 166.146C142.009 166.087 142.116 166.049 142.271 166.029C142.329 166.029 142.406 166.019 142.503 166Z" stroke="#F5F0F0" stroke-width="12" stroke-linejoin="round" mask="url(#path-30-outside-2_94_6513)"/>
<path d="M150.369 160C150.563 160 150.718 160.039 150.834 160.117C150.931 160.175 150.979 160.398 150.979 160.786C150.979 161.117 150.979 161.408 150.979 161.66C150.902 162.767 150.776 163.689 150.602 164.427C150.563 164.602 150.524 164.796 150.485 165.01C150.427 165.243 150.389 165.417 150.369 165.534L150.311 165.709C150.311 165.845 150.466 165.913 150.776 165.913C151.182 165.913 151.792 165.864 152.604 165.767C152.992 165.709 153.321 165.68 153.591 165.68C154.114 165.68 154.375 165.786 154.375 166C154.375 166.214 154.201 166.369 153.853 166.466C153.466 166.583 152.779 166.68 151.792 166.757L150.166 166.903L150.021 167.515C149.808 168.388 149.624 169.573 149.47 171.068C149.315 172.544 149.237 173.66 149.237 174.417C149.237 174.728 149.257 174.942 149.295 175.058C149.334 175.136 149.363 175.184 149.382 175.204C149.44 175.301 149.528 175.32 149.644 175.262C149.702 175.243 149.76 175.204 149.818 175.146C149.857 175.087 149.905 175.01 149.963 174.913C150.176 174.602 150.389 173.816 150.602 172.553C150.795 171.33 150.921 170.699 150.979 170.66C150.998 170.621 151.182 170.602 151.53 170.602C152.111 170.602 152.421 170.641 152.459 170.718C152.459 170.738 152.459 170.786 152.459 170.864C152.459 171.369 152.324 172.379 152.053 173.893C151.898 174.748 151.511 175.515 150.892 176.194C150.698 176.408 150.447 176.515 150.137 176.515C149.886 176.515 149.663 176.505 149.47 176.485C148.792 176.485 148.347 176.398 148.134 176.223C147.902 176.049 147.728 175.699 147.612 175.175C147.554 174.786 147.525 174.408 147.525 174.039C147.525 172.816 147.776 170.699 148.279 167.689L148.425 166.874L147.234 166.757C146.731 166.699 146.383 166.631 146.189 166.553C146.054 166.476 145.986 166.359 145.986 166.204C145.986 165.951 146.335 165.825 147.031 165.825C147.244 165.825 147.418 165.825 147.554 165.825L148.628 165.971L148.976 164.107C149.189 163.058 149.334 162.223 149.411 161.602C149.508 160.65 149.692 160.136 149.963 160.058C150.04 160.019 150.176 160 150.369 160Z" stroke="#F5F0F0" stroke-width="12" stroke-linejoin="round" mask="url(#path-30-outside-2_94_6513)"/>
<path d="M159.02 165.184L160.529 165.243L162.067 165.272L162.445 165.738C162.696 165.971 162.822 166.194 162.822 166.408C162.822 166.563 162.803 166.65 162.764 166.67C162.706 166.709 162.542 166.748 162.271 166.786H162.067C161.777 166.786 161.497 166.68 161.226 166.466C160.955 166.233 160.684 166.117 160.413 166.117H160.355C159.89 166.175 159.484 166.864 159.136 168.184C158.807 169.466 158.633 170.874 158.613 172.408V173.049C158.613 173.961 158.7 174.563 158.874 174.854C159.049 175.126 159.223 175.32 159.397 175.437C159.59 175.553 159.881 175.612 160.268 175.612C160.384 175.612 160.684 175.592 161.168 175.553L162.416 175.495V175.699C162.416 175.99 162.3 176.204 162.067 176.34C161.797 176.456 161.284 176.515 160.529 176.515C160.452 176.515 160.336 176.515 160.181 176.515C160.007 176.495 159.871 176.485 159.774 176.485C159.174 176.466 158.768 176.427 158.555 176.369C158.381 176.33 158.197 176.243 158.004 176.107C157.636 175.854 157.375 175.524 157.22 175.117C157.026 174.689 156.93 174.136 156.93 173.456C156.93 172.874 156.939 172.359 156.959 171.913C157.036 169.893 157.239 168.427 157.568 167.515C157.878 166.68 158.236 166.039 158.642 165.592L159.02 165.184Z" stroke="#F5F0F0" stroke-width="12" stroke-linejoin="round" mask="url(#path-30-outside-2_94_6513)"/>
<path d="M168.337 161.893C168.57 161.913 168.734 161.932 168.831 161.951C168.889 161.971 168.937 161.99 168.976 162.01C168.995 162.049 169.024 162.126 169.063 162.243C169.082 162.379 169.092 162.495 169.092 162.592C169.092 162.981 168.908 163.883 168.541 165.301C168.289 166.194 168.163 166.796 168.163 167.107C168.163 167.359 168.212 167.524 168.308 167.602C168.405 167.66 168.599 167.689 168.889 167.689C169.799 167.689 170.485 167.99 170.95 168.592C171.337 169.155 171.598 169.68 171.734 170.165C171.85 170.67 171.908 171.563 171.908 172.845V174.214L171.85 177.505H170.979C170.669 177.505 170.495 177.495 170.456 177.476C170.36 177.417 170.311 176.718 170.311 175.379V174.301C170.311 172.553 170.273 171.388 170.195 170.806C170.098 170.223 169.847 169.68 169.44 169.175C169.112 168.786 168.821 168.592 168.57 168.592H168.396L167.873 168.65L167.583 170.252C167.389 171.495 167.244 172.961 167.147 174.65C167.051 176.437 166.983 177.476 166.944 177.767C166.925 177.864 166.876 177.922 166.799 177.942C166.722 177.981 166.489 178 166.102 178H165.377L165.464 175.262C165.522 173.709 165.677 171.971 165.928 170.049C166.18 168.146 166.47 166.621 166.799 165.476C167.089 164.33 167.263 163.621 167.321 163.35C167.515 162.437 167.631 161.961 167.67 161.922C167.728 161.864 167.95 161.854 168.337 161.893Z" stroke="#F5F0F0" stroke-width="12" stroke-linejoin="round" mask="url(#path-30-outside-2_94_6513)"/>
<path d="M178.381 168.476C178.304 168.34 178.158 168.272 177.946 168.272C177.655 168.272 177.317 168.495 176.93 168.942C176.562 169.388 176.31 169.864 176.175 170.369C176.039 170.835 175.972 171.524 175.972 172.437C175.972 173.738 176.088 174.553 176.32 174.883C176.533 175.233 176.707 175.408 176.843 175.408C177.113 175.408 177.394 174.602 177.684 172.99C177.8 172.214 178.004 171.35 178.294 170.398C178.391 170.126 178.439 169.709 178.439 169.146C178.439 168.796 178.42 168.573 178.381 168.476ZM179.6 166C179.678 166 179.745 165.99 179.803 165.971C179.842 165.971 179.871 165.971 179.89 165.971C179.948 165.951 180.065 165.971 180.239 166.029C180.413 166.068 180.5 166.34 180.5 166.845C180.5 167.699 180.248 169.175 179.745 171.272C179.687 171.641 179.561 172.32 179.368 173.311C179.174 174.282 179.039 174.981 178.962 175.408C178.923 175.602 178.855 175.932 178.758 176.398C178.662 176.864 178.613 177.175 178.613 177.33L178.526 177.913H177.046L176.988 177.272C176.968 177.019 176.949 176.845 176.93 176.748C176.91 176.631 176.862 176.544 176.784 176.485C176.707 176.427 176.601 176.398 176.465 176.398C176.02 176.398 175.604 176.223 175.217 175.874C174.83 175.524 174.578 175.107 174.462 174.621C174.346 174.136 174.288 173.505 174.288 172.728C174.288 171.136 174.482 169.961 174.869 169.204C175.217 168.524 175.585 168.049 175.972 167.777C176.359 167.524 176.91 167.359 177.626 167.282L178.845 167.194L178.933 166.524C178.971 166.311 179.01 166.184 179.049 166.146C179.107 166.087 179.213 166.049 179.368 166.029C179.426 166.029 179.503 166.019 179.6 166Z" stroke="#F5F0F0" stroke-width="12" stroke-linejoin="round" mask="url(#path-30-outside-2_94_6513)"/>
<defs>
<filter id="filter0_i_94_6513" x="66" y="56" width="68" height="104" filterUnits="userSpaceOnUse" color-interpolation-filters="sRGB">
<feFlood flood-opacity="0" result="BackgroundImageFix"/>
<feBlend mode="normal" in="SourceGraphic" in2="BackgroundImageFix" result="shape"/>
<feColorMatrix in="SourceAlpha" type="matrix" values="0 0 0 0 0 0 0 0 0 0 0 0 0 0 0 0 0 0 127 0" result="hardAlpha"/>
<feOffset/>
<feGaussianBlur stdDeviation="6"/>
<feComposite in2="hardAlpha" operator="arithmetic" k2="-1" k3="1"/>
<feColorMatrix type="matrix" values="0 0 0 0 0.749005 0 0 0 0 0.966534 0 0 0 0 1 0 0 0 1 0"/>
<feBlend mode="normal" in2="shape" result="effect1_innerShadow_94_6513"/>
</filter>
<filter id="filter1_i_94_6513" x="90" y="160" width="20" height="12" filterUnits="userSpaceOnUse" color-interpolation-filters="sRGB">
<feFlood flood-opacity="0" result="BackgroundImageFix"/>
<feBlend mode="normal" in="SourceGraphic" in2="BackgroundImageFix" result="shape"/>
<feColorMatrix in="SourceAlpha" type="matrix" values="0 0 0 0 0 0 0 0 0 0 0 0 0 0 0 0 0 0 127 0" result="hardAlpha"/>
<feOffset/>
<feGaussianBlur stdDeviation="6"/>
<feComposite in2="hardAlpha" operator="arithmetic" k2="-1" k3="1"/>
<feColorMatrix type="matrix" values="0 0 0 0 0.749005 0 0 0 0 0.966534 0 0 0 0 1 0 0 0 1 0"/>
<feBlend mode="normal" in2="shape" result="effect1_innerShadow_94_6513"/>
</filter>
<filter id="filter2_i_94_6513" x="90" y="172" width="20" height="12" filterUnits="userSpaceOnUse" color-interpolation-filters="sRGB">
<feFlood flood-opacity="0" result="BackgroundImageFix"/>
<feBlend mode="normal" in="SourceGraphic" in2="BackgroundImageFix" result="shape"/>
<feColorMatrix in="SourceAlpha" type="matrix" values="0 0 0 0 0 0 0 0 0 0 0 0 0 0 0 0 0 0 127 0" result="hardAlpha"/>
<feOffset/>
<feGaussianBlur stdDeviation="6"/>
<feComposite in2="hardAlpha" operator="arithmetic" k2="-1" k3="1"/>
<feColorMatrix type="matrix" values="0 0 0 0 0.749005 0 0 0 0 0.966534 0 0 0 0 1 0 0 0 1 0"/>
<feBlend mode="normal" in2="shape" result="effect1_innerShadow_94_6513"/>
</filter>
<filter id="filter3_i_94_6513" x="74" y="184" width="52" height="4" filterUnits="userSpaceOnUse" color-interpolation-filters="sRGB">
<feFlood flood-opacity="0" result="BackgroundImageFix"/>
<feBlend mode="normal" in="SourceGraphic" in2="BackgroundImageFix" result="shape"/>
<feColorMatrix in="SourceAlpha" type="matrix" values="0 0 0 0 0 0 0 0 0 0 0 0 0 0 0 0 0 0 127 0" result="hardAlpha"/>
<feOffset/>
<feGaussianBlur stdDeviation="6"/>
<feComposite in2="hardAlpha" operator="arithmetic" k2="-1" k3="1"/>
<feColorMatrix type="matrix" values="0 0 0 0 0.749005 0 0 0 0 0.966534 0 0 0 0 1 0 0 0 1 0"/>
<feBlend mode="normal" in2="shape" result="effect1_innerShadow_94_6513"/>
</filter>
<filter id="filter4_i_94_6513" x="75" y="44" width="19" height="19" filterUnits="userSpaceOnUse" color-interpolation-filters="sRGB">
<feFlood flood-opacity="0" result="BackgroundImageFix"/>
<feBlend mode="normal" in="SourceGraphic" in2="BackgroundImageFix" result="shape"/>
<feColorMatrix in="SourceAlpha" type="matrix" values="0 0 0 0 0 0 0 0 0 0 0 0 0 0 0 0 0 0 127 0" result="hardAlpha"/>
<feOffset/>
<feGaussianBlur stdDeviation="2"/>
<feComposite in2="hardAlpha" operator="arithmetic" k2="-1" k3="1"/>
<feColorMatrix type="matrix" values="0 0 0 0 1 0 0 0 0 1 0 0 0 0 1 0 0 0 1 0"/>
<feBlend mode="normal" in2="shape" result="effect1_innerShadow_94_6513"/>
</filter>
<filter id="filter5_i_94_6513" x="92" y="44" width="19" height="19" filterUnits="userSpaceOnUse" color-interpolation-filters="sRGB">
<feFlood flood-opacity="0" result="BackgroundImageFix"/>
<feBlend mode="normal" in="SourceGraphic" in2="BackgroundImageFix" result="shape"/>
<feColorMatrix in="SourceAlpha" type="matrix" values="0 0 0 0 0 0 0 0 0 0 0 0 0 0 0 0 0 0 127 0" result="hardAlpha"/>
<feOffset/>
<feGaussianBlur stdDeviation="2"/>
<feComposite in2="hardAlpha" operator="arithmetic" k2="-1" k3="1"/>
<feColorMatrix type="matrix" values="0 0 0 0 1 0 0 0 0 1 0 0 0 0 1 0 0 0 1 0"/>
<feBlend mode="normal" in2="shape" result="effect1_innerShadow_94_6513"/>
</filter>
<filter id="filter6_i_94_6513" x="109" y="44" width="19" height="19" filterUnits="userSpaceOnUse" color-interpolation-filters="sRGB">
<feFlood flood-opacity="0" result="BackgroundImageFix"/>
<feBlend mode="normal" in="SourceGraphic" in2="BackgroundImageFix" result="shape"/>
<feColorMatrix in="SourceAlpha" type="matrix" values="0 0 0 0 0 0 0 0 0 0 0 0 0 0 0 0 0 0 127 0" result="hardAlpha"/>
<feOffset/>
<feGaussianBlur stdDeviation="2"/>
<feComposite in2="hardAlpha" operator="arithmetic" k2="-1" k3="1"/>
<feColorMatrix type="matrix" values="0 0 0 0 1 0 0 0 0 1 0 0 0 0 1 0 0 0 1 0"/>
<feBlend mode="normal" in2="shape" result="effect1_innerShadow_94_6513"/>
</filter>
<filter id="filter7_i_94_6513" x="95.5" y="144" width="10" height="10" filterUnits="userSpaceOnUse" color-interpolation-filters="sRGB">
<feFlood flood-opacity="0" result="BackgroundImageFix"/>
<feBlend mode="normal" in="SourceGraphic" in2="BackgroundImageFix" result="shape"/>
<feColorMatrix in="SourceAlpha" type="matrix" values="0 0 0 0 0 0 0 0 0 0 0 0 0 0 0 0 0 0 127 0" result="hardAlpha"/>
<feOffset/>
<feGaussianBlur stdDeviation="2"/>
<feComposite in2="hardAlpha" operator="arithmetic" k2="-1" k3="1"/>
<feColorMatrix type="matrix" values="0 0 0 0 1 0 0 0 0 1 0 0 0 0 1 0 0 0 1 0"/>
<feBlend mode="normal" in2="shape" result="effect1_innerShadow_94_6513"/>
</filter>
<filter id="filter8_i_94_6513" x="107" y="141" width="10" height="10" filterUnits="userSpaceOnUse" color-interpolation-filters="sRGB">
<feFlood flood-opacity="0" result="BackgroundImageFix"/>
<feBlend mode="normal" in="SourceGraphic" in2="BackgroundImageFix" result="shape"/>
<feColorMatrix in="SourceAlpha" type="matrix" values="0 0 0 0 0 0 0 0 0 0 0 0 0 0 0 0 0 0 127 0" result="hardAlpha"/>
<feOffset/>
<feGaussianBlur stdDeviation="2"/>
<feComposite in2="hardAlpha" operator="arithmetic" k2="-1" k3="1"/>
<feColorMatrix type="matrix" values="0 0 0 0 1 0 0 0 0 1 0 0 0 0 1 0 0 0 1 0"/>
<feBlend mode="normal" in2="shape" result="effect1_innerShadow_94_6513"/>
</filter>
<filter id="filter9_i_94_6513" x="83" y="141" width="10" height="10" filterUnits="userSpaceOnUse" color-interpolation-filters="sRGB">
<feFlood flood-opacity="0" result="BackgroundImageFix"/>
<feBlend mode="normal" in="SourceGraphic" in2="BackgroundImageFix" result="shape"/>
<feColorMatrix in="SourceAlpha" type="matrix" values="0 0 0 0 0 0 0 0 0 0 0 0 0 0 0 0 0 0 127 0" result="hardAlpha"/>
<feOffset/>
<feGaussianBlur stdDeviation="2"/>
<feComposite in2="hardAlpha" operator="arithmetic" k2="-1" k3="1"/>
<feColorMatrix type="matrix" values="0 0 0 0 1 0 0 0 0 1 0 0 0 0 1 0 0 0 1 0"/>
<feBlend mode="normal" in2="shape" result="effect1_innerShadow_94_6513"/>
</filter>
<filter id="filter10_i_94_6513" x="95.5" y="132" width="10" height="10" filterUnits="userSpaceOnUse" color-interpolation-filters="sRGB">
<feFlood flood-opacity="0" result="BackgroundImageFix"/>
<feBlend mode="normal" in="SourceGraphic" in2="BackgroundImageFix" result="shape"/>
<feColorMatrix in="SourceAlpha" type="matrix" values="0 0 0 0 0 0 0 0 0 0 0 0 0 0 0 0 0 0 127 0" result="hardAlpha"/>
<feOffset/>
<feGaussianBlur stdDeviation="2"/>
<feComposite in2="hardAlpha" operator="arithmetic" k2="-1" k3="1"/>
<feColorMatrix type="matrix" values="0 0 0 0 1 0 0 0 0 1 0 0 0 0 1 0 0 0 1 0"/>
<feBlend mode="normal" in2="shape" result="effect1_innerShadow_94_6513"/>
</filter>
<filter id="filter11_i_94_6513" x="84" y="130" width="10" height="10" filterUnits="userSpaceOnUse" color-interpolation-filters="sRGB">
<feFlood flood-opacity="0" result="BackgroundImageFix"/>
<feBlend mode="normal" in="SourceGraphic" in2="BackgroundImageFix" result="shape"/>
<feColorMatrix in="SourceAlpha" type="matrix" values="0 0 0 0 0 0 0 0 0 0 0 0 0 0 0 0 0 0 127 0" result="hardAlpha"/>
<feOffset/>
<feGaussianBlur stdDeviation="2"/>
<feComposite in2="hardAlpha" operator="arithmetic" k2="-1" k3="1"/>
<feColorMatrix type="matrix" values="0 0 0 0 1 0 0 0 0 1 0 0 0 0 1 0 0 0 1 0"/>
<feBlend mode="normal" in2="shape" result="effect1_innerShadow_94_6513"/>
</filter>
<filter id="filter12_i_94_6513" x="72" y="136" width="10" height="10" filterUnits="userSpaceOnUse" color-interpolation-filters="sRGB">
<feFlood flood-opacity="0" result="BackgroundImageFix"/>
<feBlend mode="normal" in="SourceGraphic" in2="BackgroundImageFix" result="shape"/>
<feColorMatrix in="SourceAlpha" type="matrix" values="0 0 0 0 0 0 0 0 0 0 0 0 0 0 0 0 0 0 127 0" result="hardAlpha"/>
<feOffset/>
<feGaussianBlur stdDeviation="2"/>
<feComposite in2="hardAlpha" operator="arithmetic" k2="-1" k3="1"/>
<feColorMatrix type="matrix" values="0 0 0 0 1 0 0 0 0 1 0 0 0 0 1 0 0 0 1 0"/>
<feBlend mode="normal" in2="shape" result="effect1_innerShadow_94_6513"/>
</filter>
<filter id="filter13_i_94_6513" x="108" y="130" width="10" height="10" filterUnits="userSpaceOnUse" color-interpolation-filters="sRGB">
<feFlood flood-opacity="0" result="BackgroundImageFix"/>
<feBlend mode="normal" in="SourceGraphic" in2="BackgroundImageFix" result="shape"/>
<feColorMatrix in="SourceAlpha" type="matrix" values="0 0 0 0 0 0 0 0 0 0 0 0 0 0 0 0 0 0 127 0" result="hardAlpha"/>
<feOffset/>
<feGaussianBlur stdDeviation="2"/>
<feComposite in2="hardAlpha" operator="arithmetic" k2="-1" k3="1"/>
<feColorMatrix type="matrix" values="0 0 0 0 1 0 0 0 0 1 0 0 0 0 1 0 0 0 1 0"/>
<feBlend mode="normal" in2="shape" result="effect1_innerShadow_94_6513"/>
</filter>
<filter id="filter14_i_94_6513" x="119" y="136" width="10" height="10" filterUnits="userSpaceOnUse" color-interpolation-filters="sRGB">
<feFlood flood-opacity="0" result="BackgroundImageFix"/>
<feBlend mode="normal" in="SourceGraphic" in2="BackgroundImageFix" result="shape"/>
<feColorMatrix in="SourceAlpha" type="matrix" values="0 0 0 0 0 0 0 0 0 0 0 0 0 0 0 0 0 0 127 0" result="hardAlpha"/>
<feOffset/>
<feGaussianBlur stdDeviation="2"/>
<feComposite in2="hardAlpha" operator="arithmetic" k2="-1" k3="1"/>
<feColorMatrix type="matrix" values="0 0 0 0 1 0 0 0 0 1 0 0 0 0 1 0 0 0 1 0"/>
<feBlend mode="normal" in2="shape" result="effect1_innerShadow_94_6513"/>
</filter>
<filter id="filter15_i_94_6513" x="66" y="56" width="68" height="104" filterUnits="userSpaceOnUse" color-interpolation-filters="sRGB">
<feFlood flood-opacity="0" result="BackgroundImageFix"/>
<feBlend mode="normal" in="SourceGraphic" in2="BackgroundImageFix" result="shape"/>
<feColorMatrix in="SourceAlpha" type="matrix" values="0 0 0 0 0 0 0 0 0 0 0 0 0 0 0 0 0 0 127 0" result="hardAlpha"/>
<feOffset/>
<feGaussianBlur stdDeviation="6"/>
<feComposite in2="hardAlpha" operator="arithmetic" k2="-1" k3="1"/>
<feColorMatrix type="matrix" values="0 0 0 0 0.749005 0 0 0 0 0.966534 0 0 0 0 1 0 0 0 1 0"/>
<feBlend mode="normal" in2="shape" result="effect1_innerShadow_94_6513"/>
</filter>
<radialGradient id="paint0_radial_94_6513" cx="0" cy="0" r="1" gradientUnits="userSpaceOnUse" gradientTransform="translate(16.5 12) rotate(45) scale(147.078)">
<stop stop-color="#778DD0"/>
<stop offset="1" stop-color="#F74C52" stop-opacity="0"/>
</radialGradient>
<linearGradient id="paint1_linear_94_6513" x1="134.153" y1="72.1694" x2="125.847" y2="173.831" gradientUnits="userSpaceOnUse">
<stop stop-color="#FFE66A"/>
<stop offset="1" stop-color="#FFE66A" stop-opacity="0"/>
</linearGradient>
<linearGradient id="paint2_linear_94_6513" x1="100" y1="160" x2="100" y2="172" gradientUnits="userSpaceOnUse">
<stop stop-color="#D4EDC7"/>
<stop offset="1" stop-color="white"/>
</linearGradient>
<linearGradient id="paint3_linear_94_6513" x1="100" y1="60" x2="100" y2="156" gradientUnits="userSpaceOnUse">
<stop stop-color="#4CA31C"/>
<stop offset="1" stop-color="#D4EDC7"/>
</linearGradient>
<linearGradient id="paint4_linear_94_6513" x1="123.128" y1="23" x2="123.128" y2="144" gradientUnits="userSpaceOnUse">
<stop stop-color="#F4C996"/>
<stop offset="1" stop-color="#F4C996" stop-opacity="0.2"/>
</linearGradient>
<linearGradient id="paint5_linear_94_6513" x1="84.5" y1="44" x2="84.5" y2="63" gradientUnits="userSpaceOnUse">
<stop stop-color="#FFEC7D"/>
<stop offset="1" stop-color="#FFF8D7"/>
</linearGradient>
<radialGradient id="paint6_radial_94_6513" cx="0" cy="0" r="1" gradientUnits="userSpaceOnUse" gradientTransform="translate(101.5 44) rotate(90) scale(19)">
<stop stop-color="#FFB1DB"/>
<stop offset="1" stop-color="#FFF7D3"/>
</radialGradient>
<linearGradient id="paint7_linear_94_6513" x1="118.5" y1="44" x2="118.5" y2="63" gradientUnits="userSpaceOnUse">
<stop stop-color="#7AB956"/>
<stop offset="1" stop-color="#FFF8D7"/>
</linearGradient>
<linearGradient id="paint8_linear_94_6513" x1="116.167" y1="81.7525" x2="107.975" y2="102.708" gradientUnits="userSpaceOnUse">
<stop stop-color="white"/>
<stop offset="1" stop-color="white" stop-opacity="0.2"/>
</linearGradient>
<linearGradient id="paint9_linear_94_6513" x1="108.151" y1="105.819" x2="108.009" y2="124.156" gradientUnits="userSpaceOnUse">
<stop stop-color="white"/>
<stop offset="1" stop-color="white" stop-opacity="0.2"/>
</linearGradient>
<linearGradient id="paint10_linear_94_6513" x1="89.1679" y1="86.1549" x2="89.0261" y2="104.491" gradientUnits="userSpaceOnUse">
<stop stop-color="white"/>
<stop offset="1" stop-color="white" stop-opacity="0.2"/>
</linearGradient>
<linearGradient id="paint11_linear_94_6513" x1="100" y1="60" x2="100" y2="156" gradientUnits="userSpaceOnUse">
<stop stop-color="#64AD3B"/>
<stop offset="1" stop-color="#D4EDC7"/>
</linearGradient>
<linearGradient id="paint12_linear_94_6513" x1="100.5" y1="144" x2="100.5" y2="154" gradientUnits="userSpaceOnUse">
<stop stop-color="#FFEC7D"/>
<stop offset="1" stop-color="#FFF8D7"/>
</linearGradient>
<radialGradient id="paint13_radial_94_6513" cx="0" cy="0" r="1" gradientUnits="userSpaceOnUse" gradientTransform="translate(112 141) rotate(90) scale(10)">
<stop stop-color="#FFB1DB"/>
<stop offset="1" stop-color="#FFF7D3"/>
</radialGradient>
<radialGradient id="paint14_radial_94_6513" cx="0" cy="0" r="1" gradientUnits="userSpaceOnUse" gradientTransform="translate(88 141) rotate(90) scale(10)">
<stop stop-color="#FFB1DB"/>
<stop offset="1" stop-color="#FFF7D3"/>
</radialGradient>
<radialGradient id="paint15_radial_94_6513" cx="0" cy="0" r="1" gradientUnits="userSpaceOnUse" gradientTransform="translate(100.5 132) rotate(90) scale(10)">
<stop stop-color="#B1CEFF"/>
<stop offset="1" stop-color="#D3FAFF"/>
</radialGradient>
<linearGradient id="paint16_linear_94_6513" x1="89" y1="130" x2="89" y2="140" gradientUnits="userSpaceOnUse">
<stop stop-color="#FFEC7D"/>
<stop offset="1" stop-color="#FFF8D7"/>
</linearGradient>
<radialGradient id="paint17_radial_94_6513" cx="0" cy="0" r="1" gradientUnits="userSpaceOnUse" gradientTransform="translate(77 136) rotate(90) scale(10)">
<stop stop-color="#B1CEFF"/>
<stop offset="1" stop-color="#D3FAFF"/>
</radialGradient>
<radialGradient id="paint18_radial_94_6513" cx="0" cy="0" r="1" gradientUnits="userSpaceOnUse" gradientTransform="translate(113 130) rotate(90) scale(10)">
<stop stop-color="#FFB1DB"/>
<stop offset="1" stop-color="#FFF7D3"/>
</radialGradient>
<linearGradient id="paint19_linear_94_6513" x1="124" y1="136" x2="124" y2="146" gradientUnits="userSpaceOnUse">
<stop stop-color="#FFEC7D"/>
<stop offset="1" stop-color="#FFF8D7"/>
</linearGradient>
<linearGradient id="paint20_linear_94_6513" x1="100" y1="67" x2="100" y2="74.5" gradientUnits="userSpaceOnUse">
<stop stop-color="#FFFEF3"/>
<stop offset="1" stop-color="#FFFCE1"/>
</linearGradient>
</defs>
</svg>
