<svg width="200" height="200" viewBox="0 0 200 200" fill="none" xmlns="http://www.w3.org/2000/svg">
<style>
@keyframes float { 0%, 100% { transform: translateY(0); } 50% { transform: translateY(-5px); } }
#r46 { animation: float 3s ease-in-out 0s   infinite; }
#r47 { animation: float 3s ease-in-out -1s  infinite; }
#r48 { animation: float 3s ease-in-out -2s  infinite; }
#r95 { animation: float 3s ease-in-out -0.5s infinite; }
</style>
<path d="M64.6572 32.741C92.6344 26.2566 117.69 31.2496 120.62 43.8932C121.755 48.7884 119.405 54.1112 114.477 59.175C121.13 61.5544 125.582 65.3007 126.717 70.1959C127.851 75.0912 125.501 80.414 120.573 85.4777C127.226 87.8572 131.678 91.6034 132.813 96.4987C135.743 109.142 115.439 124.648 87.4617 131.133C59.4845 137.617 34.429 132.624 31.4985 119.981C30.364 115.086 32.7135 109.763 37.6413 104.699C30.9884 102.32 26.5368 98.5729 25.4023 93.6778C24.2677 88.7828 26.6172 83.4598 31.5451 78.3963C24.8921 76.0168 20.4406 72.2702 19.306 67.3751C16.3756 54.7315 36.68 39.2253 64.6572 32.741Z" fill="url(#paint0_linear_94_6519)"/>
<path d="M134.652 72.1694L139.468 105.675L169.731 90.0224L149.22 117.05L181.829 127.193L148.006 131.91L163.858 161.908L136.537 141.551L126.347 173.831L121.531 140.325L91.2683 155.978L111.779 128.95L79.1707 118.807L112.993 114.09L97.1409 84.0922L124.462 104.449L134.652 72.1694Z" fill="url(#paint1_linear_94_6519)"/>
<g filter="url(#filter0_i_94_6519)">
<path d="M66 46C66 44.8954 66.8954 44 68 44H132C133.105 44 134 44.8954 134 46V186C134 187.105 133.105 188 132 188H68C66.8954 188 66 187.105 66 186V46Z" fill="white" fill-opacity="0.05"/>
</g>
<path d="M128 58C129.105 58 130 58.8954 130 60V182C130 183.105 129.105 184 128 184H72C70.8954 184 70 183.105 70 182V60C70 58.8954 70.8954 58 72 58H128Z" fill="url(#paint2_linear_94_6519)"/>
<mask id="mask0_94_6519" style="mask-type:alpha" maskUnits="userSpaceOnUse" x="70" y="58" width="60" height="126">
<path d="M128 58C129.105 58 130 58.8954 130 60V182C130 183.105 129.105 184 128 184H72C70.8954 184 70 183.105 70 182V60C70 58.8954 70.8954 58 72 58H128Z" fill="url(#paint3_linear_94_6519)"/>
</mask>
<g mask="url(#mask0_94_6519)">
<g filter="url(#filter1_d_94_6519)">
<path d="M131.051 215.47C131.811 215.47 132.428 216.087 132.428 216.847C132.428 217.607 131.811 218.223 131.051 218.223C130.291 218.222 129.675 217.607 129.675 216.847C129.675 216.087 130.291 215.47 131.051 215.47Z" fill="white"/>
<path d="M93.4307 210.882C94.1908 210.882 94.8076 211.499 94.8076 212.259C94.8075 213.019 94.1907 213.635 93.4307 213.635C92.6708 213.635 92.0548 213.019 92.0547 212.259C92.0547 211.499 92.6707 210.882 93.4307 210.882Z" fill="white"/>
<path d="M117.286 210.882C118.046 210.882 118.663 211.499 118.663 212.259C118.663 213.019 118.046 213.635 117.286 213.635C116.526 213.635 115.91 213.019 115.91 212.259C115.91 211.499 116.526 210.882 117.286 210.882Z" fill="white"/>
<path d="M128.298 191.613C129.058 191.613 129.675 192.23 129.675 192.99C129.675 193.75 129.058 194.366 128.298 194.366C127.538 194.366 126.922 193.75 126.922 192.99C126.922 192.23 127.538 191.613 128.298 191.613Z" fill="white"/>
<path d="M117.286 182.438C118.046 182.438 118.663 183.054 118.663 183.814C118.663 184.575 118.046 185.19 117.286 185.19C116.526 185.19 115.91 184.574 115.91 183.814C115.91 183.054 116.526 182.439 117.286 182.438Z" fill="white"/>
<path d="M120.957 178.768C121.717 178.768 122.334 179.384 122.334 180.145C122.334 180.904 121.717 181.521 120.957 181.521C120.197 181.52 119.581 180.904 119.581 180.145C119.581 179.385 120.197 178.768 120.957 178.768Z" fill="white"/>
<path d="M88.8418 165.922C89.6019 165.922 90.2188 166.539 90.2188 167.299C90.2185 168.059 89.6018 168.675 88.8418 168.675C88.082 168.675 87.466 168.059 87.4658 167.299C87.4658 166.539 88.0818 165.922 88.8418 165.922Z" fill="white"/>
<path d="M130.132 165.005C130.892 165.005 131.509 165.621 131.509 166.381C131.509 167.141 130.892 167.757 130.132 167.757C129.372 167.757 128.756 167.141 128.756 166.381C128.756 165.621 129.372 165.005 130.132 165.005Z" fill="white"/>
<path d="M107.754 164.767C108.514 164.767 109.131 165.382 109.131 166.143C109.131 166.903 108.514 167.519 107.754 167.519C106.994 167.518 106.378 166.903 106.378 166.143C106.378 165.383 106.994 164.767 107.754 164.767Z" fill="white"/>
<path d="M85.1719 162.252C85.932 162.252 86.5488 162.868 86.5488 163.628C86.5488 164.388 85.932 165.004 85.1719 165.004C84.4119 165.004 83.7959 164.388 83.7959 163.628C83.796 162.868 84.4119 162.252 85.1719 162.252Z" fill="white"/>
<path d="M70.1338 160.179C70.8939 160.179 71.5107 160.795 71.5107 161.555C71.5107 162.315 70.8939 162.931 70.1338 162.931C69.3738 162.93 68.7578 162.315 68.7578 161.555C68.7578 160.795 69.3738 160.179 70.1338 160.179Z" fill="white"/>
<path d="M93.9902 160.179C94.7504 160.179 95.3672 160.795 95.3672 161.555C95.3672 162.315 94.7504 162.931 93.9902 162.931C93.2303 162.93 92.6143 162.315 92.6143 161.555C92.6143 160.795 93.2303 160.179 93.9902 160.179Z" fill="white"/>
<path d="M99.8525 147.571C100.613 147.571 101.229 148.187 101.229 148.947C101.229 149.707 100.613 150.323 99.8525 150.323C99.0926 150.323 98.4766 149.707 98.4766 148.947C98.4766 148.187 99.0926 147.571 99.8525 147.571Z" fill="white"/>
<path d="M105.001 140.91C105.761 140.91 106.378 141.526 106.378 142.286C106.378 143.046 105.761 143.662 105.001 143.662C104.241 143.662 103.625 143.046 103.625 142.286C103.625 141.526 104.241 140.91 105.001 140.91Z" fill="white"/>
<path d="M93.9902 131.734C94.7503 131.734 95.3671 132.35 95.3672 133.11C95.3672 133.87 94.7504 134.486 93.9902 134.486C93.2303 134.486 92.6143 133.87 92.6143 133.11C92.6143 132.35 93.2303 131.735 93.9902 131.734Z" fill="white"/>
<path d="M97.6611 128.064C98.4213 128.064 99.0381 128.68 99.0381 129.44C99.038 130.2 98.4212 130.816 97.6611 130.816C96.9012 130.816 96.2852 130.2 96.2852 129.44C96.2852 128.68 96.9012 128.065 97.6611 128.064Z" fill="white"/>
<path d="M131.967 127.385C132.727 127.385 133.344 128.001 133.344 128.761C133.344 129.521 132.727 130.138 131.967 130.138C131.207 130.138 130.591 129.521 130.591 128.761C130.591 128.001 131.207 127.385 131.967 127.385Z" fill="white"/>
<path d="M127.38 124.632C128.14 124.632 128.757 125.249 128.757 126.009C128.757 126.769 128.14 127.385 127.38 127.385C126.62 127.385 126.004 126.769 126.004 126.009C126.004 125.249 126.62 124.632 127.38 124.632Z" fill="white"/>
<path d="M65.5449 115.219C66.305 115.219 66.9219 115.835 66.9219 116.595C66.9218 117.355 66.305 117.971 65.5449 117.971C64.785 117.971 64.169 117.355 64.1689 116.595C64.1689 115.835 64.785 115.219 65.5449 115.219Z" fill="white"/>
<path d="M106.836 114.301C107.596 114.301 108.213 114.917 108.213 115.677C108.213 116.437 107.596 117.053 106.836 117.053C106.076 117.053 105.46 116.437 105.46 115.677C105.46 114.917 106.076 114.301 106.836 114.301Z" fill="white"/>
<path d="M100.771 112.704C101.531 112.704 102.147 113.32 102.147 114.08C102.147 114.84 101.531 115.456 100.771 115.456C100.011 115.456 99.3945 114.84 99.3945 114.08C99.3946 113.32 100.011 112.704 100.771 112.704Z" fill="white"/>
<path d="M61.876 111.548C62.636 111.548 63.2527 112.164 63.2529 112.924C63.2529 113.684 62.6361 114.301 61.876 114.301C61.116 114.301 60.5 113.684 60.5 112.924C60.5002 112.164 61.1161 111.548 61.876 111.548Z" fill="white"/>
<path d="M76.5566 96.8672C77.3167 96.8672 77.9335 97.4831 77.9336 98.2432C77.9336 99.0033 77.3168 99.6201 76.5566 99.6201C75.7967 99.6199 75.1807 99.0032 75.1807 98.2432C75.1808 97.4833 75.7968 96.8674 76.5566 96.8672Z" fill="white"/>
<path d="M108.671 76.6807C109.431 76.6807 110.048 77.2967 110.048 78.0566C110.048 78.8168 109.431 79.4336 108.671 79.4336C107.911 79.4334 107.295 78.8166 107.295 78.0566C107.295 77.2969 107.911 76.6809 108.671 76.6807Z" fill="white"/>
<path d="M104.083 73.9287C104.843 73.9287 105.46 74.5446 105.46 75.3047C105.46 76.0648 104.843 76.6807 104.083 76.6807C103.323 76.6805 102.707 76.0646 102.707 75.3047C102.707 74.5447 103.323 73.9289 104.083 73.9287Z" fill="white"/>
<path d="M77.4746 62C78.2346 62 78.8514 62.616 78.8516 63.376C78.8516 64.1361 78.2347 64.7529 77.4746 64.7529C76.7146 64.7527 76.0986 64.136 76.0986 63.376C76.0988 62.6161 76.7148 62.0002 77.4746 62Z" fill="white"/>
</g>
</g>
<g id="r46"><rect x="99.0002" y="66.7227" width="18.4643" height="18.4643" rx="2" transform="rotate(-21.3517 99.0002 66.7227)" fill="url(#paint4_linear_94_6519)"/></g>
<g id="r47"><rect x="104" y="89.6643" width="18.4643" height="18.4643" rx="2" transform="rotate(-11.4466 104 89.6643)" fill="url(#paint5_linear_94_6519)"/></g>
<g id="r48"><rect x="97.7732" y="107" width="18.4643" height="18.4643" rx="2" transform="rotate(21.52 97.7732 107)" fill="url(#paint6_linear_94_6519)"/></g>
<g id="r95"><rect x="80.0168" y="71" width="18.4643" height="18.4643" rx="2" transform="rotate(9.40333 80.0168 71)" fill="url(#paint7_linear_94_6519)"/></g>
<path d="M142.51 66.477L110.581 38.3785C110.692 38.2464 110.804 38.1147 110.919 37.9846C118.68 29.165 132.122 28.3073 140.942 36.0688C149.761 43.8304 150.619 57.2723 142.858 66.0919C142.743 66.222 142.627 66.3503 142.51 66.477Z" fill="url(#paint8_radial_94_6519)"/>
<path d="M140.224 64.3646L112.968 40.3781C113.063 40.2653 113.158 40.1524 113.256 40.0412C119.882 32.5125 131.357 31.7802 138.885 38.4058C146.414 45.0315 147.146 56.5064 140.521 64.0353C140.423 64.1465 140.324 64.2564 140.224 64.3646Z" fill="url(#paint9_radial_94_6519)"/>
<path d="M128.306 51.2124C129.057 46.8041 131.752 38.763 136.533 41.8645C140.217 46.2125 132.584 49.9081 128.306 51.2124Z" fill="url(#paint10_radial_94_6519)"/>
<path d="M126.047 48.6565C123.205 45.2042 118.889 37.9035 124.363 36.3186C130.062 36.3788 127.86 44.5689 126.047 48.6565Z" fill="url(#paint11_radial_94_6519)"/>
<path d="M130.129 52.9179C134.163 50.9884 142.286 48.553 142.51 54.2475C141.082 59.7646 133.661 55.66 130.129 52.9179Z" fill="url(#paint12_radial_94_6519)"/>
<rect x="75.5845" y="17.8469" width="8" height="159.897" transform="rotate(-4.1463 75.5845 17.8469)" fill="url(#paint13_linear_94_6519)"/>
<g filter="url(#filter2_i_94_6519)">
<path d="M66 46C66 44.8954 66.8954 44 68 44H132C133.105 44 134 44.8954 134 46V186C134 187.105 133.105 188 132 188H68C66.8954 188 66 187.105 66 186V46Z" fill="white" fill-opacity="0.05"/>
</g>
<path opacity="0.3" d="M77 58H86V184H77V58Z" fill="url(#paint14_linear_94_6519)"/>
<path opacity="0.3" d="M95 58H104V184H95V58Z" fill="url(#paint15_linear_94_6519)"/>
<path opacity="0.3" d="M113 58H122V184H113V58Z" fill="url(#paint16_linear_94_6519)"/>
<path opacity="0.4" d="M66 46C66 44.8954 66.8954 44 68 44H132C133.105 44 134 44.8954 134 46V58H66V46Z" fill="url(#paint17_linear_94_6519)"/>
<path d="M58 56C58 58.7614 60.2386 61 63 61C60.2386 61 58 63.2386 58 66C58 63.2386 55.7614 61 53 61C55.7614 61 58 58.7614 58 56Z" fill="white"/>
<g>
<animateTransform attributeName="transform" attributeType="XML" type="rotate" from="0 150 87" to="360 150 87" dur="6s" repeatCount="indefinite"/>
<path d="M153.045 94L149.965 88.7958L146.78 94L144.33 92.0576L148.075 87.5864L143 86.4136L143.945 83.4817L148.88 85.5707L148.425 80H151.575L151.12 85.5707L156.125 83.555L157 86.4503L151.855 87.5864L155.565 92.0942L153.045 94Z" fill="#F76513"/>
</g>
<mask id="path-24-outside-1_94_6519" maskUnits="userSpaceOnUse" x="31.0906" y="133.371" width="74.2325" height="40.6993" fill="black">
<rect fill="white" x="31.0906" y="133.371" width="74.2325" height="40.6993"/>
<path d="M41.7976 164.993C41.684 165.131 41.347 165.231 40.7864 165.294L40.557 165.32C40.2513 165.354 40.0419 165.328 39.9289 165.24C39.8441 165.175 39.781 164.956 39.7394 164.586C39.6813 164.067 39.6941 162.339 39.7779 159.402C39.7813 159.201 39.7578 157.84 39.7075 155.319C39.6445 153.374 39.6556 152.322 39.7409 152.162C39.8379 151.876 39.8136 150.853 39.668 149.092C39.5335 147.431 39.4975 146.534 39.5601 146.402C39.5828 146.375 40.0019 146.315 40.8173 146.224C43.1871 145.958 44.8331 145.911 45.7554 146.083C46.1205 146.118 46.3454 146.167 46.4301 146.233C46.4839 146.252 46.5218 146.36 46.544 146.558L46.5896 146.966L44.4409 147.131C44.237 147.154 43.9822 147.183 43.6764 147.217C43.3934 147.224 43.2009 147.233 43.0989 147.244C42.4109 147.321 42.0198 147.515 41.9256 147.826C41.8514 148.085 41.8622 148.872 41.9579 150.187C42.0315 151.305 42.034 152.018 41.9653 152.326C41.942 152.579 41.9869 152.749 42.0999 152.836C42.1846 152.902 42.4054 152.914 42.7621 152.874C43.0169 152.846 43.4698 152.858 44.1207 152.91C44.7943 152.935 45.5102 152.992 46.2686 153.082C47.0242 153.148 47.4798 153.184 47.6354 153.192C47.8421 153.194 47.985 153.203 48.0642 153.219C48.0897 153.216 48.1165 153.225 48.1448 153.247C48.173 153.269 48.1899 153.305 48.1955 153.354C48.1982 153.379 48.1896 153.417 48.1697 153.47C48.1752 153.519 48.1808 153.569 48.1863 153.618C48.1774 153.769 48.1772 153.882 48.1855 153.956C48.1855 153.956 48.1614 153.971 48.1132 154.002C48.0423 154.06 47.9813 154.091 47.9304 154.097C47.8539 154.106 47.6897 154.137 47.4376 154.19L47.2083 154.216C46.7241 154.27 45.94 154.295 44.856 154.291C43.6334 154.203 42.9457 154.168 42.7928 154.185C42.3851 154.23 42.1455 154.395 42.074 154.678C42.0197 154.884 41.9859 155.389 41.9726 156.191C41.9775 156.466 41.9775 157.041 41.9725 157.917C41.9674 158.794 41.9602 159.42 41.9508 159.796C41.938 160.373 41.8939 161.016 41.8186 161.725C41.7487 162.484 41.7512 163.197 41.8259 163.864C41.8924 164.457 41.8829 164.834 41.7976 164.993Z"/>
<path d="M55.5302 149.042C55.9889 148.991 56.3143 149.017 56.5065 149.12C56.645 149.205 56.7281 149.371 56.7558 149.618C56.7807 149.84 56.7887 150.027 56.7798 150.178C56.7582 150.906 56.7413 151.446 56.7291 151.798C56.7147 151.899 56.7144 152.012 56.7282 152.136C56.7559 152.383 56.9282 152.539 57.245 152.603C57.4854 152.676 58.023 152.754 58.8578 152.835C59.1974 152.872 59.62 153.075 60.1258 153.444C60.6315 153.813 61.032 154.393 61.3272 155.186C61.6224 155.979 61.7949 156.598 61.8448 157.042L61.8904 157.45L60.9731 157.553C60.2596 157.633 59.8874 157.649 59.8563 157.603C59.7943 157.51 59.6453 157.101 59.4094 156.377C59.0588 155.09 58.4423 154.308 57.5599 154.032C57.3195 153.959 57.0973 153.933 56.8935 153.956C56.5112 153.999 56.2611 154.415 56.1431 155.204C55.4239 158.687 55.0509 161.231 55.0243 162.836L55.0342 163.961L54.0828 164.105L53.6241 164.156C53.2164 164.202 52.997 164.202 52.966 164.155C52.8475 164.018 52.7716 163.801 52.7384 163.505C52.6692 162.887 52.7432 162.166 52.9604 161.341C53.1637 160.392 53.292 159.464 53.3452 158.558C53.4267 157.673 53.5015 157.189 53.5696 157.106C53.6322 156.974 53.7613 156.284 53.957 155.036C54.1526 153.788 54.2908 152.834 54.3717 152.174C54.512 150.432 54.6488 149.466 54.7824 149.276C54.8732 149.166 55.1225 149.088 55.5302 149.042Z"/>
<path d="M69.6193 148.364C69.2625 148.404 68.9972 148.684 68.8232 149.204C68.6747 149.721 68.6088 150.054 68.6254 150.202C68.6365 150.301 68.6093 150.404 68.544 150.512C68.4304 150.65 68.3276 150.999 68.2356 151.56C68.1691 152.118 68.1511 152.532 68.1816 152.804C68.212 153.076 68.3333 153.238 68.5455 153.289C68.7294 153.318 69.1271 153.299 69.7387 153.23L71.2676 153.059L71.1314 151.498C71.0815 151.053 71.0234 150.534 70.957 149.941C70.8739 149.2 70.6798 148.734 70.3746 148.543C70.1004 148.398 69.8486 148.339 69.6193 148.364ZM68.9637 147.349L69.6517 147.272C71.5457 147.135 72.6361 147.426 72.923 148.144C73.0072 148.435 73.1033 149.063 73.2112 150.026C73.4604 152.25 73.5451 153.467 73.4653 153.676C73.3999 153.784 72.515 153.945 70.8105 154.161L67.9862 154.515L68.0335 155.974C68.0373 156.699 68.0096 157.603 67.9502 158.685C67.8627 159.746 67.8327 160.4 67.8604 160.647C67.9075 161.067 68.0839 161.26 68.3897 161.226C68.67 161.195 68.9763 160.935 69.3087 160.447C69.5957 160.015 69.8475 159.499 70.0641 158.899L70.389 157.999L72.4148 157.772L72.3924 158.263C72.3596 158.892 72.0774 159.712 71.5455 160.722C71.2242 161.309 70.9062 161.695 70.5916 161.88C70.2514 162.068 69.675 162.221 68.8624 162.337L68.4037 162.388C67.6648 162.471 67.1778 162.5 66.943 162.477C66.6544 162.434 66.3746 162.24 66.1038 161.895C65.8102 161.578 65.6482 161.283 65.6177 161.011C65.615 160.986 65.6136 160.974 65.6136 160.974C65.6335 160.922 65.6421 160.883 65.6394 160.859C65.6948 160.202 65.7394 159.333 65.7733 158.254C65.8349 155.119 65.8965 153.135 65.958 152.303C66.0196 151.47 66.1645 150.691 66.3927 149.964C66.5268 149.549 66.5814 149.23 66.5565 149.008C66.5482 148.934 66.703 148.704 67.021 148.318C67.3617 147.904 67.6298 147.649 67.8254 147.552C67.9472 147.488 68.3267 147.421 68.9637 147.349Z"/>
<path d="M82.3698 146.448C83.5674 146.314 84.3795 146.423 84.806 146.776C85.0066 146.953 85.1165 147.129 85.1359 147.302C85.1608 147.524 84.8802 147.668 84.2941 147.734C84.0393 147.762 83.7817 147.766 83.5214 147.745C83.2073 147.705 82.9611 147.696 82.7827 147.716C82.5024 147.747 82.2997 147.895 82.1745 148.159C81.9501 148.459 81.8628 148.832 81.9127 149.277C82.0123 150.166 82.5903 151.065 83.6466 151.973C84.0194 152.306 84.4612 152.795 84.9719 153.438C85.7424 154.328 86.2079 155.489 86.3685 156.922C86.4654 157.787 86.4124 158.581 86.2096 159.305C86.0041 160.003 85.6803 160.453 85.2382 160.652C84.8444 160.821 84.2525 160.95 83.4625 161.039C82.8764 161.104 82.3754 161.123 81.9594 161.095C81.5434 161.066 80.9964 160.79 80.3184 160.265C79.8381 159.893 79.495 159.594 79.2889 159.367C79.1083 159.137 78.8956 158.735 78.6508 158.162C78.3949 157.49 78.036 156.705 77.5741 155.806C77.3038 155.235 77.1493 154.777 77.1105 154.431C77.0939 154.283 77.0814 154.172 77.0731 154.098C77.0731 154.098 77.0972 154.083 77.1454 154.052C77.2191 154.019 77.2928 153.986 77.3665 153.952C77.4684 153.941 77.6581 153.907 77.9356 153.851L78.3179 153.808C78.9804 153.734 79.331 153.87 79.3698 154.216C79.3947 154.438 79.6675 155.146 80.1881 156.339C80.7032 157.482 81.0835 158.228 81.3289 158.575C81.546 158.901 81.9301 159.221 82.4813 159.535L83.3546 160.075L83.8232 159.422C84.0448 159.097 84.1454 158.498 84.1249 157.624C84.1166 157.55 84.1183 157.45 84.13 157.323C84.1133 157.175 84.1009 157.064 84.0926 156.99C83.9625 155.828 83.4174 154.763 82.4575 153.795C81.4693 152.805 80.7764 152.031 80.3787 151.475C80.0092 150.941 79.7954 150.415 79.7373 149.896C79.7013 149.575 79.7149 149.235 79.778 148.878C79.9111 147.762 80.3714 147.035 81.1591 146.696C81.4821 146.585 81.8857 146.502 82.3698 146.448Z"/>
<path d="M91.6947 140.899C92.0032 140.89 92.2226 140.89 92.3527 140.901C92.432 140.917 92.4984 140.935 92.5522 140.954C92.5832 141 92.6325 141.095 92.7001 141.237C92.7449 141.407 92.7743 141.554 92.7881 141.678C92.8435 142.172 92.7301 143.348 92.4481 145.206C92.2442 146.38 92.1644 147.165 92.2086 147.56C92.2446 147.882 92.3319 148.085 92.4704 148.169C92.6061 148.229 92.865 148.237 93.2473 148.195C94.4449 148.061 95.3924 148.342 96.0898 149.04C96.6797 149.699 97.0985 150.328 97.346 150.926C97.5709 151.551 97.7747 152.679 97.9574 154.31L98.1526 156.053L98.5454 160.25L97.3987 160.378C96.991 160.424 96.7603 160.437 96.7066 160.418C96.5708 160.359 96.4075 159.476 96.2165 157.771L96.0628 156.399C95.8137 154.175 95.5966 152.698 95.4116 151.968C95.2011 151.241 94.7924 150.586 94.1853 150.004C93.6967 149.558 93.2868 149.354 92.9555 149.391L92.7262 149.417L92.0465 149.568L91.8927 151.649C91.815 153.26 91.833 155.147 91.9464 157.311C92.0737 159.599 92.1326 160.931 92.1232 161.307C92.1115 161.434 92.0561 161.515 91.957 161.551C91.8606 161.612 91.5576 161.671 91.0479 161.728L90.0924 161.835L89.8167 158.338C89.6717 156.352 89.6277 154.118 89.6849 151.634C89.7449 149.175 89.9098 147.192 90.1796 145.686C90.3985 144.185 90.5268 143.257 90.5645 142.903C90.6892 141.713 90.7743 141.09 90.8197 141.035C90.8878 140.952 91.1795 140.907 91.6947 140.899Z"/>
</mask>
<path d="M41.7976 164.993C41.684 165.131 41.347 165.231 40.7864 165.294L40.557 165.32C40.2513 165.354 40.0419 165.328 39.9289 165.24C39.8441 165.175 39.781 164.956 39.7394 164.586C39.6813 164.067 39.6941 162.339 39.7779 159.402C39.7813 159.201 39.7578 157.84 39.7075 155.319C39.6445 153.374 39.6556 152.322 39.7409 152.162C39.8379 151.876 39.8136 150.853 39.668 149.092C39.5335 147.431 39.4975 146.534 39.5601 146.402C39.5828 146.375 40.0019 146.315 40.8173 146.224C43.1871 145.958 44.8331 145.911 45.7554 146.083C46.1205 146.118 46.3454 146.167 46.4301 146.233C46.4839 146.252 46.5218 146.36 46.544 146.558L46.5896 146.966L44.4409 147.131C44.237 147.154 43.9822 147.183 43.6764 147.217C43.3934 147.224 43.2009 147.233 43.0989 147.244C42.4109 147.321 42.0198 147.515 41.9256 147.826C41.8514 148.085 41.8622 148.872 41.9579 150.187C42.0315 151.305 42.034 152.018 41.9653 152.326C41.942 152.579 41.9869 152.749 42.0999 152.836C42.1846 152.902 42.4054 152.914 42.7621 152.874C43.0169 152.846 43.4698 152.858 44.1207 152.91C44.7943 152.935 45.5102 152.992 46.2686 153.082C47.0242 153.148 47.4798 153.184 47.6354 153.192C47.8421 153.194 47.985 153.203 48.0642 153.219C48.0897 153.216 48.1165 153.225 48.1448 153.247C48.173 153.269 48.1899 153.305 48.1955 153.354C48.1982 153.379 48.1896 153.417 48.1697 153.47C48.1752 153.519 48.1808 153.569 48.1863 153.618C48.1774 153.769 48.1772 153.882 48.1855 153.956C48.1855 153.956 48.1614 153.971 48.1132 154.002C48.0423 154.06 47.9813 154.091 47.9304 154.097C47.8539 154.106 47.6897 154.137 47.4376 154.19L47.2083 154.216C46.7241 154.27 45.94 154.295 44.856 154.291C43.6334 154.203 42.9457 154.168 42.7928 154.185C42.3851 154.23 42.1455 154.395 42.074 154.678C42.0197 154.884 41.9859 155.389 41.9726 156.191C41.9775 156.466 41.9775 157.041 41.9725 157.917C41.9674 158.794 41.9602 159.42 41.9508 159.796C41.938 160.373 41.8939 161.016 41.8186 161.725C41.7487 162.484 41.7512 163.197 41.8259 163.864C41.8924 164.457 41.8829 164.834 41.7976 164.993Z" fill="#F76513"/>
<path d="M55.5302 149.042C55.9889 148.991 56.3143 149.017 56.5065 149.12C56.645 149.205 56.7281 149.371 56.7558 149.618C56.7807 149.84 56.7887 150.027 56.7798 150.178C56.7582 150.906 56.7413 151.446 56.7291 151.798C56.7147 151.899 56.7144 152.012 56.7282 152.136C56.7559 152.383 56.9282 152.539 57.245 152.603C57.4854 152.676 58.023 152.754 58.8578 152.835C59.1974 152.872 59.62 153.075 60.1258 153.444C60.6315 153.813 61.032 154.393 61.3272 155.186C61.6224 155.979 61.7949 156.598 61.8448 157.042L61.8904 157.45L60.9731 157.553C60.2596 157.633 59.8874 157.649 59.8563 157.603C59.7943 157.51 59.6453 157.101 59.4094 156.377C59.0588 155.09 58.4423 154.308 57.5599 154.032C57.3195 153.959 57.0973 153.933 56.8935 153.956C56.5112 153.999 56.2611 154.415 56.1431 155.204C55.4239 158.687 55.0509 161.231 55.0243 162.836L55.0342 163.961L54.0828 164.105L53.6241 164.156C53.2164 164.202 52.997 164.202 52.966 164.155C52.8475 164.018 52.7716 163.801 52.7384 163.505C52.6692 162.887 52.7432 162.166 52.9604 161.341C53.1637 160.392 53.292 159.464 53.3452 158.558C53.4267 157.673 53.5015 157.189 53.5696 157.106C53.6322 156.974 53.7613 156.284 53.957 155.036C54.1526 153.788 54.2908 152.834 54.3717 152.174C54.512 150.432 54.6488 149.466 54.7824 149.276C54.8732 149.166 55.1225 149.088 55.5302 149.042Z" fill="#F76513"/>
<path d="M69.6193 148.364C69.2625 148.404 68.9972 148.684 68.8232 149.204C68.6747 149.721 68.6088 150.054 68.6254 150.202C68.6365 150.301 68.6093 150.404 68.544 150.512C68.4304 150.65 68.3276 150.999 68.2356 151.56C68.1691 152.118 68.1511 152.532 68.1816 152.804C68.212 153.076 68.3333 153.238 68.5455 153.289C68.7294 153.318 69.1271 153.299 69.7387 153.23L71.2676 153.059L71.1314 151.498C71.0815 151.053 71.0234 150.534 70.957 149.941C70.8739 149.2 70.6798 148.734 70.3746 148.543C70.1004 148.398 69.8486 148.339 69.6193 148.364ZM68.9637 147.349L69.6517 147.272C71.5457 147.135 72.6361 147.426 72.923 148.144C73.0072 148.435 73.1033 149.063 73.2112 150.026C73.4604 152.25 73.5451 153.467 73.4653 153.676C73.3999 153.784 72.515 153.945 70.8105 154.161L67.9862 154.515L68.0335 155.974C68.0373 156.699 68.0096 157.603 67.9502 158.685C67.8627 159.746 67.8327 160.4 67.8604 160.647C67.9075 161.067 68.0839 161.26 68.3897 161.226C68.67 161.195 68.9763 160.935 69.3087 160.447C69.5957 160.015 69.8475 159.499 70.0641 158.899L70.389 157.999L72.4148 157.772L72.3924 158.263C72.3596 158.892 72.0774 159.712 71.5455 160.722C71.2242 161.309 70.9062 161.695 70.5916 161.88C70.2514 162.068 69.675 162.221 68.8624 162.337L68.4037 162.388C67.6648 162.471 67.1778 162.5 66.943 162.477C66.6544 162.434 66.3746 162.24 66.1038 161.895C65.8102 161.578 65.6482 161.283 65.6177 161.011C65.615 160.986 65.6136 160.974 65.6136 160.974C65.6335 160.922 65.6421 160.883 65.6394 160.859C65.6948 160.202 65.7394 159.333 65.7733 158.254C65.8349 155.119 65.8965 153.135 65.958 152.303C66.0196 151.47 66.1645 150.691 66.3927 149.964C66.5268 149.549 66.5814 149.23 66.5565 149.008C66.5482 148.934 66.703 148.704 67.021 148.318C67.3617 147.904 67.6298 147.649 67.8254 147.552C67.9472 147.488 68.3267 147.421 68.9637 147.349Z" fill="#F76513"/>
<path d="M82.3698 146.448C83.5674 146.314 84.3795 146.423 84.806 146.776C85.0066 146.953 85.1165 147.129 85.1359 147.302C85.1608 147.524 84.8802 147.668 84.2941 147.734C84.0393 147.762 83.7817 147.766 83.5214 147.745C83.2073 147.705 82.9611 147.696 82.7827 147.716C82.5024 147.747 82.2997 147.895 82.1745 148.159C81.9501 148.459 81.8628 148.832 81.9127 149.277C82.0123 150.166 82.5903 151.065 83.6466 151.973C84.0194 152.306 84.4612 152.795 84.9719 153.438C85.7424 154.328 86.2079 155.489 86.3685 156.922C86.4654 157.787 86.4124 158.581 86.2096 159.305C86.0041 160.003 85.6803 160.453 85.2382 160.652C84.8444 160.821 84.2525 160.95 83.4625 161.039C82.8764 161.104 82.3754 161.123 81.9594 161.095C81.5434 161.066 80.9964 160.79 80.3184 160.265C79.8381 159.893 79.495 159.594 79.2889 159.367C79.1083 159.137 78.8956 158.735 78.6508 158.162C78.3949 157.49 78.036 156.705 77.5741 155.806C77.3038 155.235 77.1493 154.777 77.1105 154.431C77.0939 154.283 77.0814 154.172 77.0731 154.098C77.0731 154.098 77.0972 154.083 77.1454 154.052C77.2191 154.019 77.2928 153.986 77.3665 153.952C77.4684 153.941 77.6581 153.907 77.9356 153.851L78.3179 153.808C78.9804 153.734 79.331 153.87 79.3698 154.216C79.3947 154.438 79.6675 155.146 80.1881 156.339C80.7032 157.482 81.0835 158.228 81.3289 158.575C81.546 158.901 81.9301 159.221 82.4813 159.535L83.3546 160.075L83.8232 159.422C84.0448 159.097 84.1454 158.498 84.1249 157.624C84.1166 157.55 84.1183 157.45 84.13 157.323C84.1133 157.175 84.1009 157.064 84.0926 156.99C83.9625 155.828 83.4174 154.763 82.4575 153.795C81.4693 152.805 80.7764 152.031 80.3787 151.475C80.0092 150.941 79.7954 150.415 79.7373 149.896C79.7013 149.575 79.7149 149.235 79.778 148.878C79.9111 147.762 80.3714 147.035 81.1591 146.696C81.4821 146.585 81.8857 146.502 82.3698 146.448Z" fill="#F76513"/>
<path d="M91.6947 140.899C92.0032 140.89 92.2226 140.89 92.3527 140.901C92.432 140.917 92.4984 140.935 92.5522 140.954C92.5832 141 92.6325 141.095 92.7001 141.237C92.7449 141.407 92.7743 141.554 92.7881 141.678C92.8435 142.172 92.7301 143.348 92.4481 145.206C92.2442 146.38 92.1644 147.165 92.2086 147.56C92.2446 147.882 92.3319 148.085 92.4704 148.169C92.6061 148.229 92.865 148.237 93.2473 148.195C94.4449 148.061 95.3924 148.342 96.0898 149.04C96.6797 149.699 97.0985 150.328 97.346 150.926C97.5709 151.551 97.7747 152.679 97.9574 154.31L98.1526 156.053L98.5454 160.25L97.3987 160.378C96.991 160.424 96.7603 160.437 96.7066 160.418C96.5708 160.359 96.4075 159.476 96.2165 157.771L96.0628 156.399C95.8137 154.175 95.5966 152.698 95.4116 151.968C95.2011 151.241 94.7924 150.586 94.1853 150.004C93.6967 149.558 93.2868 149.354 92.9555 149.391L92.7262 149.417L92.0465 149.568L91.8927 151.649C91.815 153.26 91.833 155.147 91.9464 157.311C92.0737 159.599 92.1326 160.931 92.1232 161.307C92.1115 161.434 92.0561 161.515 91.957 161.551C91.8606 161.612 91.5576 161.671 91.0479 161.728L90.0924 161.835L89.8167 158.338C89.6717 156.352 89.6277 154.118 89.6849 151.634C89.7449 149.175 89.9098 147.192 90.1796 145.686C90.3985 144.185 90.5268 143.257 90.5645 142.903C90.6892 141.713 90.7743 141.09 90.8197 141.035C90.8878 140.952 91.1795 140.907 91.6947 140.899Z" fill="#F76513"/>
<path d="M41.7976 164.993C41.684 165.131 41.347 165.231 40.7864 165.294L40.557 165.32C40.2513 165.354 40.0419 165.328 39.9289 165.24C39.8441 165.175 39.781 164.956 39.7394 164.586C39.6813 164.067 39.6941 162.339 39.7779 159.402C39.7813 159.201 39.7578 157.84 39.7075 155.319C39.6445 153.374 39.6556 152.322 39.7409 152.162C39.8379 151.876 39.8136 150.853 39.668 149.092C39.5335 147.431 39.4975 146.534 39.5601 146.402C39.5828 146.375 40.0019 146.315 40.8173 146.224C43.1871 145.958 44.8331 145.911 45.7554 146.083C46.1205 146.118 46.3454 146.167 46.4301 146.233C46.4839 146.252 46.5218 146.36 46.544 146.558L46.5896 146.966L44.4409 147.131C44.237 147.154 43.9822 147.183 43.6764 147.217C43.3934 147.224 43.2009 147.233 43.0989 147.244C42.4109 147.321 42.0198 147.515 41.9256 147.826C41.8514 148.085 41.8622 148.872 41.9579 150.187C42.0315 151.305 42.034 152.018 41.9653 152.326C41.942 152.579 41.9869 152.749 42.0999 152.836C42.1846 152.902 42.4054 152.914 42.7621 152.874C43.0169 152.846 43.4698 152.858 44.1207 152.91C44.7943 152.935 45.5102 152.992 46.2686 153.082C47.0242 153.148 47.4798 153.184 47.6354 153.192C47.8421 153.194 47.985 153.203 48.0642 153.219C48.0897 153.216 48.1165 153.225 48.1448 153.247C48.173 153.269 48.1899 153.305 48.1955 153.354C48.1982 153.379 48.1896 153.417 48.1697 153.47C48.1752 153.519 48.1808 153.569 48.1863 153.618C48.1774 153.769 48.1772 153.882 48.1855 153.956C48.1855 153.956 48.1614 153.971 48.1132 154.002C48.0423 154.06 47.9813 154.091 47.9304 154.097C47.8539 154.106 47.6897 154.137 47.4376 154.19L47.2083 154.216C46.7241 154.27 45.94 154.295 44.856 154.291C43.6334 154.203 42.9457 154.168 42.7928 154.185C42.3851 154.23 42.1455 154.395 42.074 154.678C42.0197 154.884 41.9859 155.389 41.9726 156.191C41.9775 156.466 41.9775 157.041 41.9725 157.917C41.9674 158.794 41.9602 159.42 41.9508 159.796C41.938 160.373 41.8939 161.016 41.8186 161.725C41.7487 162.484 41.7512 163.197 41.8259 163.864C41.8924 164.457 41.8829 164.834 41.7976 164.993Z" stroke="#F5F0F0" stroke-width="12" stroke-linejoin="round" mask="url(#path-24-outside-1_94_6519)"/>
<path d="M55.5302 149.042C55.9889 148.991 56.3143 149.017 56.5065 149.12C56.645 149.205 56.7281 149.371 56.7558 149.618C56.7807 149.84 56.7887 150.027 56.7798 150.178C56.7582 150.906 56.7413 151.446 56.7291 151.798C56.7147 151.899 56.7144 152.012 56.7282 152.136C56.7559 152.383 56.9282 152.539 57.245 152.603C57.4854 152.676 58.023 152.754 58.8578 152.835C59.1974 152.872 59.62 153.075 60.1258 153.444C60.6315 153.813 61.032 154.393 61.3272 155.186C61.6224 155.979 61.7949 156.598 61.8448 157.042L61.8904 157.45L60.9731 157.553C60.2596 157.633 59.8874 157.649 59.8563 157.603C59.7943 157.51 59.6453 157.101 59.4094 156.377C59.0588 155.09 58.4423 154.308 57.5599 154.032C57.3195 153.959 57.0973 153.933 56.8935 153.956C56.5112 153.999 56.2611 154.415 56.1431 155.204C55.4239 158.687 55.0509 161.231 55.0243 162.836L55.0342 163.961L54.0828 164.105L53.6241 164.156C53.2164 164.202 52.997 164.202 52.966 164.155C52.8475 164.018 52.7716 163.801 52.7384 163.505C52.6692 162.887 52.7432 162.166 52.9604 161.341C53.1637 160.392 53.292 159.464 53.3452 158.558C53.4267 157.673 53.5015 157.189 53.5696 157.106C53.6322 156.974 53.7613 156.284 53.957 155.036C54.1526 153.788 54.2908 152.834 54.3717 152.174C54.512 150.432 54.6488 149.466 54.7824 149.276C54.8732 149.166 55.1225 149.088 55.5302 149.042Z" stroke="#F5F0F0" stroke-width="12" stroke-linejoin="round" mask="url(#path-24-outside-1_94_6519)"/>
<path d="M69.6193 148.364C69.2625 148.404 68.9972 148.684 68.8232 149.204C68.6747 149.721 68.6088 150.054 68.6254 150.202C68.6365 150.301 68.6093 150.404 68.544 150.512C68.4304 150.65 68.3276 150.999 68.2356 151.56C68.1691 152.118 68.1511 152.532 68.1816 152.804C68.212 153.076 68.3333 153.238 68.5455 153.289C68.7294 153.318 69.1271 153.299 69.7387 153.23L71.2676 153.059L71.1314 151.498C71.0815 151.053 71.0234 150.534 70.957 149.941C70.8739 149.2 70.6798 148.734 70.3746 148.543C70.1004 148.398 69.8486 148.339 69.6193 148.364ZM68.9637 147.349L69.6517 147.272C71.5457 147.135 72.6361 147.426 72.923 148.144C73.0072 148.435 73.1033 149.063 73.2112 150.026C73.4604 152.25 73.5451 153.467 73.4653 153.676C73.3999 153.784 72.515 153.945 70.8105 154.161L67.9862 154.515L68.0335 155.974C68.0373 156.699 68.0096 157.603 67.9502 158.685C67.8627 159.746 67.8327 160.4 67.8604 160.647C67.9075 161.067 68.0839 161.26 68.3897 161.226C68.67 161.195 68.9763 160.935 69.3087 160.447C69.5957 160.015 69.8475 159.499 70.0641 158.899L70.389 157.999L72.4148 157.772L72.3924 158.263C72.3596 158.892 72.0774 159.712 71.5455 160.722C71.2242 161.309 70.9062 161.695 70.5916 161.88C70.2514 162.068 69.675 162.221 68.8624 162.337L68.4037 162.388C67.6648 162.471 67.1778 162.5 66.943 162.477C66.6544 162.434 66.3746 162.24 66.1038 161.895C65.8102 161.578 65.6482 161.283 65.6177 161.011C65.615 160.986 65.6136 160.974 65.6136 160.974C65.6335 160.922 65.6421 160.883 65.6394 160.859C65.6948 160.202 65.7394 159.333 65.7733 158.254C65.8349 155.119 65.8965 153.135 65.958 152.303C66.0196 151.47 66.1645 150.691 66.3927 149.964C66.5268 149.549 66.5814 149.23 66.5565 149.008C66.5482 148.934 66.703 148.704 67.021 148.318C67.3617 147.904 67.6298 147.649 67.8254 147.552C67.9472 147.488 68.3267 147.421 68.9637 147.349Z" stroke="#F5F0F0" stroke-width="12" stroke-linejoin="round" mask="url(#path-24-outside-1_94_6519)"/>
<path d="M82.3698 146.448C83.5674 146.314 84.3795 146.423 84.806 146.776C85.0066 146.953 85.1165 147.129 85.1359 147.302C85.1608 147.524 84.8802 147.668 84.2941 147.734C84.0393 147.762 83.7817 147.766 83.5214 147.745C83.2073 147.705 82.9611 147.696 82.7827 147.716C82.5024 147.747 82.2997 147.895 82.1745 148.159C81.9501 148.459 81.8628 148.832 81.9127 149.277C82.0123 150.166 82.5903 151.065 83.6466 151.973C84.0194 152.306 84.4612 152.795 84.9719 153.438C85.7424 154.328 86.2079 155.489 86.3685 156.922C86.4654 157.787 86.4124 158.581 86.2096 159.305C86.0041 160.003 85.6803 160.453 85.2382 160.652C84.8444 160.821 84.2525 160.95 83.4625 161.039C82.8764 161.104 82.3754 161.123 81.9594 161.095C81.5434 161.066 80.9964 160.79 80.3184 160.265C79.8381 159.893 79.495 159.594 79.2889 159.367C79.1083 159.137 78.8956 158.735 78.6508 158.162C78.3949 157.49 78.036 156.705 77.5741 155.806C77.3038 155.235 77.1493 154.777 77.1105 154.431C77.0939 154.283 77.0814 154.172 77.0731 154.098C77.0731 154.098 77.0972 154.083 77.1454 154.052C77.2191 154.019 77.2928 153.986 77.3665 153.952C77.4684 153.941 77.6581 153.907 77.9356 153.851L78.3179 153.808C78.9804 153.734 79.331 153.87 79.3698 154.216C79.3947 154.438 79.6675 155.146 80.1881 156.339C80.7032 157.482 81.0835 158.228 81.3289 158.575C81.546 158.901 81.9301 159.221 82.4813 159.535L83.3546 160.075L83.8232 159.422C84.0448 159.097 84.1454 158.498 84.1249 157.624C84.1166 157.55 84.1183 157.45 84.13 157.323C84.1133 157.175 84.1009 157.064 84.0926 156.99C83.9625 155.828 83.4174 154.763 82.4575 153.795C81.4693 152.805 80.7764 152.031 80.3787 151.475C80.0092 150.941 79.7954 150.415 79.7373 149.896C79.7013 149.575 79.7149 149.235 79.778 148.878C79.9111 147.762 80.3714 147.035 81.1591 146.696C81.4821 146.585 81.8857 146.502 82.3698 146.448Z" stroke="#F5F0F0" stroke-width="12" stroke-linejoin="round" mask="url(#path-24-outside-1_94_6519)"/>
<path d="M91.6947 140.899C92.0032 140.89 92.2226 140.89 92.3527 140.901C92.432 140.917 92.4984 140.935 92.5522 140.954C92.5832 141 92.6325 141.095 92.7001 141.237C92.7449 141.407 92.7743 141.554 92.7881 141.678C92.8435 142.172 92.7301 143.348 92.4481 145.206C92.2442 146.38 92.1644 147.165 92.2086 147.56C92.2446 147.882 92.3319 148.085 92.4704 148.169C92.6061 148.229 92.865 148.237 93.2473 148.195C94.4449 148.061 95.3924 148.342 96.0898 149.04C96.6797 149.699 97.0985 150.328 97.346 150.926C97.5709 151.551 97.7747 152.679 97.9574 154.31L98.1526 156.053L98.5454 160.25L97.3987 160.378C96.991 160.424 96.7603 160.437 96.7066 160.418C96.5708 160.359 96.4075 159.476 96.2165 157.771L96.0628 156.399C95.8137 154.175 95.5966 152.698 95.4116 151.968C95.2011 151.241 94.7924 150.586 94.1853 150.004C93.6967 149.558 93.2868 149.354 92.9555 149.391L92.7262 149.417L92.0465 149.568L91.8927 151.649C91.815 153.26 91.833 155.147 91.9464 157.311C92.0737 159.599 92.1326 160.931 92.1232 161.307C92.1115 161.434 92.0561 161.515 91.957 161.551C91.8606 161.612 91.5576 161.671 91.0479 161.728L90.0924 161.835L89.8167 158.338C89.6717 156.352 89.6277 154.118 89.6849 151.634C89.7449 149.175 89.9098 147.192 90.1796 145.686C90.3985 144.185 90.5268 143.257 90.5645 142.903C90.6892 141.713 90.7743 141.09 90.8197 141.035C90.8878 140.952 91.1795 140.907 91.6947 140.899Z" stroke="#F5F0F0" stroke-width="12" stroke-linejoin="round" mask="url(#path-24-outside-1_94_6519)"/>
<defs>
<filter id="filter0_i_94_6519" x="66" y="44" width="68" height="144" filterUnits="userSpaceOnUse" color-interpolation-filters="sRGB">
<feFlood flood-opacity="0" result="BackgroundImageFix"/>
<feBlend mode="normal" in="SourceGraphic" in2="BackgroundImageFix" result="shape"/>
<feColorMatrix in="SourceAlpha" type="matrix" values="0 0 0 0 0 0 0 0 0 0 0 0 0 0 0 0 0 0 127 0" result="hardAlpha"/>
<feOffset/>
<feGaussianBlur stdDeviation="6"/>
<feComposite in2="hardAlpha" operator="arithmetic" k2="-1" k3="1"/>
<feColorMatrix type="matrix" values="0 0 0 0 0.749005 0 0 0 0 0.966534 0 0 0 0 1 0 0 0 1 0"/>
<feBlend mode="normal" in2="shape" result="effect1_innerShadow_94_6519"/>
</filter>
<filter id="filter1_d_94_6519" x="57.8217" y="59.3217" width="78.2003" height="161.579" filterUnits="userSpaceOnUse" color-interpolation-filters="sRGB">
<feFlood flood-opacity="0" result="BackgroundImageFix"/>
<feColorMatrix in="SourceAlpha" type="matrix" values="0 0 0 0 0 0 0 0 0 0 0 0 0 0 0 0 0 0 127 0" result="hardAlpha"/>
<feOffset/>
<feGaussianBlur stdDeviation="1.33913"/>
<feComposite in2="hardAlpha" operator="out"/>
<feColorMatrix type="matrix" values="0 0 0 0 1 0 0 0 0 1 0 0 0 0 1 0 0 0 0.75 0"/>
<feBlend mode="normal" in2="BackgroundImageFix" result="effect1_dropShadow_94_6519"/>
<feBlend mode="normal" in="SourceGraphic" in2="effect1_dropShadow_94_6519" result="shape"/>
</filter>
<filter id="filter2_i_94_6519" x="66" y="44" width="68" height="144" filterUnits="userSpaceOnUse" color-interpolation-filters="sRGB">
<feFlood flood-opacity="0" result="BackgroundImageFix"/>
<feBlend mode="normal" in="SourceGraphic" in2="BackgroundImageFix" result="shape"/>
<feColorMatrix in="SourceAlpha" type="matrix" values="0 0 0 0 0 0 0 0 0 0 0 0 0 0 0 0 0 0 127 0" result="hardAlpha"/>
<feOffset/>
<feGaussianBlur stdDeviation="6"/>
<feComposite in2="hardAlpha" operator="arithmetic" k2="-1" k3="1"/>
<feColorMatrix type="matrix" values="0 0 0 0 0.749005 0 0 0 0 0.966534 0 0 0 0 1 0 0 0 1 0"/>
<feBlend mode="normal" in2="shape" result="effect1_innerShadow_94_6519"/>
</filter>
<linearGradient id="paint0_linear_94_6519" x1="64.6572" y1="32.741" x2="87.4617" y2="131.133" gradientUnits="userSpaceOnUse">
<stop stop-color="#9CFFB2"/>
<stop offset="1" stop-color="#FC8ABE"/>
</linearGradient>
<linearGradient id="paint1_linear_94_6519" x1="134.652" y1="72.1694" x2="126.347" y2="173.831" gradientUnits="userSpaceOnUse">
<stop stop-color="#FFE66A"/>
<stop offset="1" stop-color="#FFE66A" stop-opacity="0"/>
</linearGradient>
<linearGradient id="paint2_linear_94_6519" x1="100" y1="58" x2="100" y2="184" gradientUnits="userSpaceOnUse">
<stop stop-color="#FB73BF"/>
<stop offset="1" stop-color="#FB4F13"/>
</linearGradient>
<linearGradient id="paint3_linear_94_6519" x1="100" y1="58" x2="100" y2="184" gradientUnits="userSpaceOnUse">
<stop stop-color="#FB73BF"/>
<stop offset="1" stop-color="#FB4F13" stop-opacity="0"/>
</linearGradient>
<linearGradient id="paint4_linear_94_6519" x1="116.168" y1="66.7525" x2="107.976" y2="87.7082" gradientUnits="userSpaceOnUse">
<stop stop-color="white"/>
<stop offset="1" stop-color="white" stop-opacity="0.2"/>
</linearGradient>
<linearGradient id="paint5_linear_94_6519" x1="113.151" y1="89.8192" x2="113.009" y2="108.156" gradientUnits="userSpaceOnUse">
<stop stop-color="white"/>
<stop offset="1" stop-color="white" stop-opacity="0.2"/>
</linearGradient>
<linearGradient id="paint6_linear_94_6519" x1="106.924" y1="107.155" x2="106.783" y2="125.491" gradientUnits="userSpaceOnUse">
<stop stop-color="white"/>
<stop offset="1" stop-color="white" stop-opacity="0.2"/>
</linearGradient>
<linearGradient id="paint7_linear_94_6519" x1="89.168" y1="71.1549" x2="89.0262" y2="89.4915" gradientUnits="userSpaceOnUse">
<stop stop-color="white"/>
<stop offset="1" stop-color="white" stop-opacity="0.2"/>
</linearGradient>
<radialGradient id="paint8_radial_94_6519" cx="0" cy="0" r="1" gradientUnits="userSpaceOnUse" gradientTransform="translate(126.935 52.7702) rotate(-48.651) scale(21.7913 20.7538)">
<stop offset="0.817308" stop-color="#FFDFCF"/>
<stop offset="1" stop-color="#FF9D69"/>
</radialGradient>
<radialGradient id="paint9_radial_94_6519" cx="0" cy="0" r="1" gradientUnits="userSpaceOnUse" gradientTransform="translate(126.928 52.6635) rotate(-48.651) scale(18.6028 17.7167)">
<stop stop-color="#FFD1B8"/>
<stop offset="1" stop-color="#F485C7"/>
</radialGradient>
<radialGradient id="paint10_radial_94_6519" cx="0" cy="0" r="1" gradientUnits="userSpaceOnUse" gradientTransform="translate(128.192 51.3418) rotate(-48.651) scale(12.6246 13.044)">
<stop stop-color="#FFF6FE" stop-opacity="0.1"/>
<stop offset="1" stop-color="#FFD2FA"/>
</radialGradient>
<radialGradient id="paint11_radial_94_6519" cx="0" cy="0" r="1" gradientUnits="userSpaceOnUse" gradientTransform="translate(126.07 48.8273) rotate(-97.7708) scale(12.6246 13.044)">
<stop stop-color="#FFF6FE" stop-opacity="0.1"/>
<stop offset="1" stop-color="#FFD2FA"/>
</radialGradient>
<radialGradient id="paint12_radial_94_6519" cx="0" cy="0" r="1" gradientUnits="userSpaceOnUse" gradientTransform="translate(129.957 52.8995) rotate(6.12936) scale(12.6246 13.044)">
<stop stop-color="#FFF6FE" stop-opacity="0.1"/>
<stop offset="1" stop-color="#FFD2FA"/>
</radialGradient>
<linearGradient id="paint13_linear_94_6519" x1="79.5845" y1="17.8469" x2="79.5845" y2="177.744" gradientUnits="userSpaceOnUse">
<stop stop-color="#DD3655"/>
<stop offset="1" stop-color="#DD3655" stop-opacity="0.2"/>
</linearGradient>
<linearGradient id="paint14_linear_94_6519" x1="77" y1="121" x2="86" y2="121" gradientUnits="userSpaceOnUse">
<stop stop-color="#FFDD42"/>
<stop offset="1" stop-color="#FFDD42" stop-opacity="0"/>
</linearGradient>
<linearGradient id="paint15_linear_94_6519" x1="95" y1="121" x2="104" y2="121" gradientUnits="userSpaceOnUse">
<stop stop-color="#FFDD42"/>
<stop offset="1" stop-color="#FFDD42" stop-opacity="0"/>
</linearGradient>
<linearGradient id="paint16_linear_94_6519" x1="113" y1="121" x2="122" y2="121" gradientUnits="userSpaceOnUse">
<stop stop-color="#FFDD42"/>
<stop offset="1" stop-color="#FFDD42" stop-opacity="0"/>
</linearGradient>
<linearGradient id="paint17_linear_94_6519" x1="100" y1="44" x2="100" y2="58" gradientUnits="userSpaceOnUse">
<stop stop-color="#F58EC5"/>
<stop offset="1" stop-color="#F58EC5" stop-opacity="0"/>
</linearGradient>
</defs>
</svg>
