<svg width="161" height="171" viewBox="0 0 161 171" fill="none" xmlns="http://www.w3.org/2000/svg">
<path d="M30.7666 24.6649C33.9284 24.1111 37.4353 25.974 38.0495 29.4806C38.0588 29.534 38.1507 29.9296 38.9834 30.3353C39.8107 30.7383 41.1002 30.9767 42.6154 30.7114C44.1305 30.446 45.2622 29.7835 45.9034 29.1232C46.5486 28.4587 46.5016 28.0552 46.4922 28.0019C45.878 24.4953 48.5422 21.5516 51.7038 20.9977L57.9716 19.8999C61.1333 19.3462 64.6393 21.2092 65.2535 24.7158C65.2628 24.7692 65.3557 25.1646 66.1884 25.5703C67.0158 25.9734 68.3052 26.2118 69.8204 25.9464C71.3356 25.681 72.4673 25.0185 73.1084 24.3583C73.7537 23.6937 73.7066 23.2903 73.6972 23.2369C73.083 19.7303 75.7471 16.7866 78.9088 16.2328L85.1767 15.135C88.3383 14.5813 91.8443 16.4443 92.4585 19.9509C92.4678 20.0042 92.5607 20.3997 93.3934 20.8053C94.2208 21.2084 95.5103 21.4468 97.0254 21.1814C98.5406 20.916 99.6723 20.2536 100.313 19.5933C100.959 18.9288 100.911 18.5255 100.901 18.4721C100.287 14.9655 102.952 12.0216 106.114 11.4678L112.382 10.37C115.543 9.81643 119.049 11.6794 119.663 15.1859C119.673 15.2393 119.766 15.6347 120.598 16.0404C121.426 16.4434 122.715 16.6819 124.23 16.4165C125.512 16.192 126.944 16.2653 128.245 16.7414C129.442 17.1796 131.435 18.3549 131.874 20.8618L150.611 127.839C151.05 130.346 149.576 132.128 148.599 132.947C147.537 133.837 146.215 134.393 144.933 134.617C143.418 134.882 142.286 135.545 141.645 136.205C141 136.87 141.047 137.273 141.056 137.327C141.671 140.833 139.006 143.777 135.845 144.331L129.577 145.429C126.415 145.982 122.908 144.119 122.294 140.613C122.285 140.559 122.193 140.164 121.36 139.758C120.533 139.355 119.243 139.117 117.728 139.382C116.213 139.647 115.081 140.31 114.44 140.97C113.795 141.635 113.842 142.038 113.851 142.092C114.466 145.598 111.802 148.542 108.64 149.096L102.372 150.194C99.2103 150.747 95.7044 148.884 95.0902 145.378C95.0808 145.324 94.988 144.929 94.1553 144.523C93.3279 144.12 92.0384 143.882 90.5233 144.147C89.0081 144.412 87.8764 145.075 87.2353 145.735C86.59 146.4 86.6371 146.803 86.6464 146.857C87.2606 150.363 84.5965 153.307 81.4349 153.861L75.167 154.958C72.0053 155.512 68.4993 153.649 67.8852 150.143C67.8758 150.089 67.783 149.694 66.9503 149.288C66.1229 148.885 64.8334 148.647 63.3183 148.912C61.8031 149.177 60.6714 149.84 60.0303 150.5C59.385 151.165 59.4331 151.568 59.4424 151.621C60.0566 155.128 57.3916 158.072 54.2299 158.626L47.962 159.723C44.8004 160.277 41.2943 158.414 40.6802 154.908C40.6708 154.854 40.578 154.459 39.7453 154.053C38.9179 153.65 37.6283 153.412 36.1133 153.677C34.8314 153.901 33.3997 153.828 32.0986 153.352C30.9012 152.914 28.9091 151.739 28.47 149.232L9.73299 42.2547C9.29391 39.7478 10.768 37.9655 11.7451 37.1464C12.807 36.2564 14.1286 35.7009 15.4104 35.4763C16.9255 35.2109 18.0572 34.5484 18.6984 33.8882C19.3436 33.2236 19.2966 32.8202 19.2872 32.7668C18.673 29.2603 21.3372 26.3166 24.4988 25.7627L30.7666 24.6649Z" fill="#2E53C6" stroke="#F5F0F0" stroke-width="8"/>
<path d="M45.8749 124.269C46.3333 124.123 49.2326 121.772 54.244 116.293C60.6984 109.235 68.0585 101.951 72.6033 93.4417C75.6543 87.7292 78.0267 81.017 78.565 74.544C79.0107 69.1846 77.803 55.2409 70.5849 54.3925C58.9518 53.0251 57.5587 68.5744 58.3982 76.4849C59.0356 82.4904 59.7789 88.7705 62.4768 94.2135C67.1445 103.631 78.8506 107.27 88.4781 107.23C90.1879 107.223 93.7964 106.579 98.6372 105.575C107.071 103.826 113.711 93.7178 117.124 86.4096C118.884 82.0285 121.701 76.9643 121.975 72.0939" stroke="#FFF8E1" stroke-width="4" stroke-linecap="round"/>
<path d="M58.8338 129.074C58.868 128.954 59.0099 128.217 59.7011 126.598C60.8222 123.972 61.6143 123.073 61.9924 122.34C62.8313 120.713 64.3532 117.824 65.7901 115.711C66.4036 114.809 67.2307 113.793 68.2757 112.387C69.2794 111.036 71.0753 109.017 72.8496 107.094C74.0422 105.802 76.1602 104.029 77.3574 102.98C77.9088 102.497 80.2175 100.83 81.7519 99.7532C82.0758 99.5259 83.0063 98.895 84.5164 97.9924C85.8437 97.1991 87.5173 96.5077 89.281 95.7538C91.624 94.7522 94.4981 94.1971 96.0476 93.8448C96.24 93.7907 96.4296 93.7375 97.5208 93.5361C98.6121 93.3346 100.599 92.9866 102.64 92.5902" stroke="#F76513" stroke-width="4" stroke-linecap="round"/>
<path d="M86.8841 76.4924C86.1677 72.4024 84.1123 45.1593 95.8632 49.3982C104.217 52.4117 93.5524 75.4398 87.7132 76.6797" stroke="#F76513" stroke-width="4" stroke-linecap="round"/>
<path d="M95.2324 82.4167C97.174 79.2271 114.726 66.9911 111.837 77.9601C110.561 82.805 98.7959 87.0588 94.5808 84.6198" stroke="#FFF8E1" stroke-width="4" stroke-linecap="round"/>
<path d="M39.9042 51.4907C40.0892 51.4802 41.3495 51.8779 42.4803 52.5555C44.0026 53.4677 45.9588 54.8378 47.7804 56.1239C49.4701 57.3167 51.0148 58.8079 52.9572 60.5579C55.1397 62.5242 56.8082 64.5186 57.9215 66.0232C59.4569 68.0985 59.8939 69.5073 60.5817 70.8934C61.2409 72.2216 62.6499 75.943 63.437 78.3062C64.1381 80.4107 64.3482 85.149 64.1871 86.8342C64.0472 88.2964 63.578 89.4108 63.2736 90.524C62.9369 91.7554 62.2062 92.9682 60.8872 95.0012C59.7236 96.7948 58.6559 97.7888 57.3998 99.1389C54.0856 102.701 52.0811 104.495 50.936 105.611C50.1111 106.415 48.0085 108.291 46.5228 109.496C45.6288 110.222 44.6353 111.132 43.8659 111.85C43.138 112.528 42.3932 113.183 41.7456 113.886C41.5991 114.056 41.4539 114.212 41.3027 114.367C41.1514 114.523 40.9986 114.673 40.667 114.535" stroke="#F76513" stroke-width="4" stroke-linecap="round"/>
</svg>
