<svg width="150" height="116" viewBox="0 0 150 116" fill="none" xmlns="http://www.w3.org/2000/svg">
<g clip-path="url(#clip0_100_6558)">
<path d="M129.931 42.6362C130.495 42.7765 130.838 43.3474 130.698 43.9115L126.127 62.3082C126.043 62.2845 125.959 62.2602 125.874 62.239C121.501 61.1524 117.075 63.8169 115.988 68.1899C114.902 72.5629 117.566 76.9881 121.939 78.0747C122.025 78.0959 122.11 78.1125 122.196 78.1309L117.624 96.53C117.484 97.0939 116.913 97.4376 116.349 97.2976L19.2863 73.1801C18.7223 73.0398 18.3787 72.4688 18.5186 71.9047L23.09 53.5069C27.3783 54.4292 31.654 51.7872 32.7195 47.4998C33.7847 43.2122 31.2432 38.8751 27.0218 37.683L31.5929 19.2863C31.7332 18.7222 32.3041 18.3786 32.8683 18.5186L129.931 42.6362Z" fill="#F76513"/>
<path d="M125.201 63.3586C125.205 63.3593 125.209 63.3609 125.216 63.3621C125.225 63.3641 125.24 63.3664 125.259 63.3704C125.231 63.3643 125.211 63.3606 125.201 63.3586ZM32.7195 47.4997C31.654 51.7872 27.3784 54.4292 23.0901 53.5068L18.5187 71.9047C18.3788 72.4687 18.7224 73.0398 19.2864 73.18L116.349 97.2975C116.913 97.4375 117.484 97.0938 117.624 96.5299L122.196 78.1308C122.11 78.1125 122.024 78.0958 121.939 78.0746C117.566 76.9881 114.901 72.5628 115.988 68.1898C117.075 63.8168 121.501 61.1523 125.874 62.2389C125.959 62.2601 126.043 62.2844 126.127 62.3082L130.698 43.9115C130.838 43.3474 130.495 42.7765 129.931 42.6362L32.8683 18.5186C32.3042 18.3786 31.7333 18.7222 31.593 19.2863L27.0219 37.683C31.2433 38.8751 33.7848 43.2121 32.7195 47.4997ZM132.252 100.171C130.102 108.806 121.361 114.073 112.717 111.928L15.6489 87.8091C7.00392 85.6594 1.74571 76.9115 3.88749 68.2755L16.9639 15.6488C19.1128 7.00751 27.8589 1.7427 36.5011 3.88834L133.569 28.0073C142.208 30.1564 147.475 38.9008 145.329 47.5442L132.252 100.171Z" fill="#F5F0F0"/>
</g>
<defs>
<clipPath id="clip0_100_6558">
<rect width="149.217" height="115.816" fill="white"/>
</clipPath>
</defs>
</svg>
