<svg width="375" height="22" viewBox="0 0 375 22" fill="none" xmlns="http://www.w3.org/2000/svg">
<path d="M375 21.1154H0V1.11542L13.5 13.1154L27 1.11542L40.5 13.1154L54 1.11542L67 13.1154L80 1.11542L93.5 13.1154L107 1.11542L120.5 13.1154L134 1.11542L147.5 13.1154L161 1.11542L174 13.1154L187 1.11542H188L201 13.1154L214 1.11542L227.5 13.1154L241 1.11542L254.5 13.1154L268 1.11542L281.5 13.1154L295 1.11542L308 13.1154L321 1.11542L334.5 13.1154L348 1.11542L361.5 13.1154L375 1.11542V21.1154Z" fill="#FEFEFE"/>
<path d="M374.5 21.1154V1.11542L361.036 13.1154L347.572 1.11542L334.108 13.1154L320.644 1.11542L307.679 13.1154L294.713 1.11542L281.249 13.1154L267.785 1.11542L254.321 13.1154L240.857 1.11542L227.393 13.1154L213.929 1.11542L200.964 13.1154L187.999 1.11542H187.001L174.036 13.1154L161.071 1.11542L147.607 13.1154L134.143 1.11542L120.679 13.1154L107.215 1.11542L93.7507 13.1154L80.2867 1.11542L67.3213 13.1154L54.356 1.11542L40.892 13.1154L27.428 1.11542L13.964 13.1154L0.5 1.11542V21.1154" stroke="#ECE8E5"/>
</svg>
