<svg width="151" height="151" viewBox="0 0 151 151" fill="none" xmlns="http://www.w3.org/2000/svg">
<g filter="url(#filter0_i_86_3408)">
<path d="M83.1855 12C85.3207 12 87.0703 13.6816 87.3945 15.792C87.5975 17.1131 87.881 18.5416 88.2568 20.0186C89.24 20.1447 90 20.9825 90 22C90 22.6053 89.7295 23.1459 89.3047 23.5127C90.515 26.9832 92.2703 30.4655 94.7354 33.2461C98.0654 37.0024 101.5 41.3327 101.5 46.3525V135C101.5 137.209 99.7091 139 97.5 139H53.5C51.2909 139 49.5 137.209 49.5 135V46.3525C49.5 41.3327 52.9346 37.0024 56.2646 33.2461C58.7296 30.4656 60.484 26.9831 61.6943 23.5127C61.2698 23.1459 61 22.605 61 22C61 20.9829 61.7595 20.1452 62.7422 20.0186C63.118 18.5415 63.4025 17.1132 63.6055 15.792C63.9297 13.6816 65.6793 12 67.8145 12H83.1855Z" fill="#F6F6F6"/>
</g>
<g filter="url(#filter1_i_86_3408)">
<rect x="61" y="12" width="29" height="7" rx="2" fill="#FF7E7E"/>
</g>
<g filter="url(#filter2_i_86_3408)">
<path d="M93.4355 37C96.2506 40.5721 98.9997 44.5249 99 48.999V132C98.9998 134.209 97.209 136 95 136H55.999C53.7901 136 51.9992 134.209 51.999 132V48.999C51.9993 44.5251 54.7485 40.5721 57.5635 37H93.4355Z" fill="white"/>
</g>
<path d="M59.3438 80.5859C59.6562 79.8672 59.8125 79.4844 59.8125 79.4375C59.8125 79.375 59.8438 79.2891 59.9062 79.1797C60.3125 78.1953 60.6406 77.5703 60.8906 77.3047C61.0625 77.1016 61.2578 77 61.4766 77C61.5078 77 61.5547 77.0078 61.6172 77.0234C61.6797 77.0234 61.7344 77.0234 61.7812 77.0234L62.3203 77.0703V78.2188C62.3203 79.0312 62.2891 79.7969 62.2266 80.5156C62.2109 80.6719 62.2031 80.8594 62.2031 81.0781C62.2031 81.2969 62.25 81.4062 62.3438 81.4062C62.4375 81.4062 62.6016 81.1016 62.8359 80.4922C63.3984 78.8047 63.7812 77.8828 63.9844 77.7266C64.125 77.6328 64.375 77.5859 64.7344 77.5859C64.9844 77.5859 65.1406 77.6094 65.2031 77.6562C65.2656 77.7031 65.5312 78.4219 66 79.8125C66.4688 81.2344 66.7031 82.0391 66.7031 82.2266C66.7031 82.3516 66.7656 82.5859 66.8906 82.9297C67 83.2578 67.0547 83.4844 67.0547 83.6094C67.0547 83.7344 67.1172 83.9453 67.2422 84.2422C67.3516 84.5078 67.4062 84.6797 67.4062 84.7578C67.4062 84.8984 67.5312 85.3203 67.7812 86.0234C68.0312 86.7266 68.2109 87.1562 68.3203 87.3125C68.4141 87.4531 68.4609 87.5938 68.4609 87.7344C68.4609 87.8281 68.4219 87.8906 68.3438 87.9219C68.2344 87.9688 68.0781 87.9922 67.875 87.9922C67.6094 87.9922 67.3828 87.9453 67.1953 87.8516C67.0234 87.7578 66.9375 87.6484 66.9375 87.5234C66.9375 87.3672 66.8984 87.25 66.8203 87.1719C66.7578 87.1094 66.6641 86.8984 66.5391 86.5391C66.4141 86.1641 66.3516 85.9219 66.3516 85.8125C66.3516 85.625 66.3047 85.4766 66.2109 85.3672C66.1328 85.3047 66.0469 85.0625 65.9531 84.6406C65.8906 84.3125 65.7422 83.7266 65.5078 82.8828C65.2734 82.0547 65.1406 81.5703 65.1094 81.4297C64.8906 80.5078 64.6797 80.0469 64.4766 80.0469C64.3828 80.0469 64.2109 80.4375 63.9609 81.2188C63.7109 81.9375 63.4297 82.8047 63.1172 83.8203C62.8047 84.8516 62.5938 85.5078 62.4844 85.7891C62.3594 86.1953 62.2656 86.5312 62.2031 86.7969C62.1719 87.0312 62.125 87.1875 62.0625 87.2656C62.0156 87.3281 61.8828 87.7734 61.6641 88.6016C61.5391 89.1328 61.4219 89.4766 61.3125 89.6328C61.2188 89.7891 61.0781 89.8672 60.8906 89.8672C60.8438 89.8672 60.7109 89.8516 60.4922 89.8203C60.2578 89.7734 60.125 89.6797 60.0938 89.5391C60.0938 89.5391 60.0859 89.5078 60.0703 89.4453C60.0703 89.3984 60.0703 89.3516 60.0703 89.3047C60.0703 88.7891 60.125 87.875 60.2344 86.5625C60.3438 85.2344 60.4297 84.3906 60.4922 84.0312C60.5547 83.75 60.6172 83.1875 60.6797 82.3438L60.75 81.1719L60.5391 81.1016L60.2812 81.6406C59.9688 82.3594 59.75 82.8906 59.625 83.2344C58.9219 85.0938 58.4141 86.1953 58.1016 86.5391C58.0078 86.6484 57.8047 86.7031 57.4922 86.7031C57.1641 86.7031 57 86.6094 57 86.4219C57 86.2969 57.0938 85.9922 57.2812 85.5078C57.4688 85.0234 57.6094 84.7344 57.7031 84.6406C57.7812 84.5156 57.8203 84.3906 57.8203 84.2656C57.8203 84.2031 57.8984 83.9922 58.0547 83.6328C58.0859 83.5391 58.1562 83.375 58.2656 83.1406C58.375 82.8906 58.4453 82.7266 58.4766 82.6484C58.5859 82.3828 58.6797 82.1875 58.7578 82.0625C58.8359 81.9375 58.875 81.8125 58.875 81.6875C58.875 81.6562 59.0312 81.2891 59.3438 80.5859Z" fill="#FF7E7E"/>
<path d="M71.9531 78.5C71.9531 78.375 71.9688 78.2969 72 78.2656C72.0469 78.2188 72.1562 78.1875 72.3281 78.1719C72.375 78.1562 72.5391 78.1484 72.8203 78.1484C73.3828 78.1484 74.0156 78.1719 74.7188 78.2188L76.6172 78.3125V78.5469C76.6172 78.7031 76.5781 78.7969 76.5 78.8281C76.3906 78.875 76.0625 78.9219 75.5156 78.9688L74.6016 79.0625L74.4375 80.1406C74.3594 80.5781 74.2656 81.2812 74.1562 82.25C73.875 85.2969 73.6797 86.9922 73.5703 87.3359C73.4766 87.6484 73.4688 87.8516 73.5469 87.9453C73.6094 88.0547 73.9844 88.1094 74.6719 88.1094C75.1562 88.1094 75.4766 88.1406 75.6328 88.2031C75.7422 88.25 75.7969 88.3672 75.7969 88.5547C75.7969 88.6328 75.7734 88.6797 75.7266 88.6953C75.6328 88.7266 75.125 88.7969 74.2031 88.9062C73.75 88.9844 73.0078 89.0234 71.9766 89.0234C71.1641 89.0234 70.7188 89 70.6406 88.9531C70.5625 88.8906 70.5312 88.7812 70.5469 88.625C70.5625 88.5156 70.5859 88.4531 70.6172 88.4375C70.6797 88.4219 70.9062 88.3984 71.2969 88.3672C71.875 88.3359 72.1641 88.2422 72.1641 88.0859C72.1641 88.0234 72.25 87.3203 72.4219 85.9766C72.4531 85.5859 72.5234 84.9062 72.6328 83.9375C72.7266 82.9531 72.7891 82.3047 72.8203 81.9922C72.9141 80.6953 73 79.9844 73.0781 79.8594C73.1875 79.7031 73.2422 79.5078 73.2422 79.2734C73.2422 79.1172 73.2031 79.0078 73.125 78.9453C73.0625 78.8984 72.9453 78.875 72.7734 78.875C72.2266 78.875 71.9531 78.75 71.9531 78.5Z" fill="#FF7E7E"/>
<path d="M79.8047 78.4297H80.1094L80.6484 78.4531L80.625 79.6953C80.5938 80.4453 80.5312 81.2891 80.4375 82.2266C80.3438 83.1641 80.2734 83.9141 80.2266 84.4766C80.1328 86.1328 80.0781 86.9922 80.0625 87.0547C80.0312 87.4141 80.0156 87.6094 80.0156 87.6406C80.0156 87.7969 80.0469 87.8984 80.1094 87.9453C80.1562 87.9766 80.2344 87.9922 80.3438 87.9922C80.7812 87.9922 81.5859 87.8672 82.7578 87.6172L83.2734 87.5V86.375C83.2734 85.7188 83.3047 85.3438 83.3672 85.25C83.3828 85.2188 83.5078 85.2031 83.7422 85.2031H84L84.5156 85.25L84.6328 86.2109C84.7109 86.9766 84.7891 87.3906 84.8672 87.4531C84.8984 87.4844 84.9141 87.5547 84.9141 87.6641C84.9141 87.8359 84.8906 87.9375 84.8438 87.9688C84.7344 88.0625 84.5391 88.1328 84.2578 88.1797C83.6797 88.2578 82.7188 88.4297 81.375 88.6953C80.4844 88.8359 79.8516 88.9062 79.4766 88.9062H79.3359L78.6797 88.8828L78.6562 87.8281V87.5703C78.6562 86.9766 78.6875 86.5078 78.75 86.1641C78.8438 85.5703 78.9688 84.1641 79.125 81.9453C79.2656 80.2891 79.3672 79.3047 79.4297 78.9922C79.5078 78.6016 79.5469 78.3828 79.5469 78.3359C79.5469 78.3984 79.6328 78.4297 79.8047 78.4297Z" fill="#FF7E7E"/>
<path d="M89.2266 77.3516C89.5391 77.3516 89.7266 77.3984 89.7891 77.4922C89.8203 77.5234 89.8359 77.6641 89.8359 77.9141C89.8359 78.7422 89.6562 79.9844 89.2969 81.6406C89.2031 82.0312 89.2109 82.2734 89.3203 82.3672H89.3906C89.4844 82.3672 89.6484 82.2344 89.8828 81.9688C90.0859 81.7344 90.2422 81.5078 90.3516 81.2891C90.4453 81.0859 90.5859 80.8906 90.7734 80.7031C90.8047 80.6719 91.0391 80.3984 91.4766 79.8828C91.8359 79.4453 92.0859 79.1641 92.2266 79.0391C92.3516 78.9297 92.5 78.875 92.6719 78.875C92.6719 78.875 92.7031 78.8828 92.7656 78.8984C92.8281 78.8984 92.875 78.8984 92.9062 78.8984C93.0781 78.9141 93.1875 78.9297 93.2344 78.9453C93.2656 78.9453 93.2969 78.9609 93.3281 78.9922C93.3438 79.0234 93.3594 79.0703 93.375 79.1328V79.2734C93.375 79.4766 93.0391 79.9844 92.3672 80.7969C91.9922 81.25 91.625 81.7109 91.2656 82.1797C90.8906 82.6641 90.7031 82.9766 90.7031 83.1172L91.5 83.3047C91.9688 83.4141 92.5078 83.5703 93.1172 83.7734C93.9922 84.0703 94.5391 84.2656 94.7578 84.3594C94.9297 84.4375 95.0156 84.5234 95.0156 84.6172C95.0156 84.6484 95 84.7344 94.9688 84.875C94.9531 84.9688 94.9297 85.0234 94.8984 85.0391C94.8359 85.0547 94.6484 85.0625 94.3359 85.0625C93.9297 85.0625 93.7031 85.0391 93.6562 84.9922C93.3125 84.7266 92.3984 84.4062 90.9141 84.0312L89.8125 83.7266L89.2734 84.2656C88.9766 84.5625 88.7734 84.8828 88.6641 85.2266C88.5703 85.5703 88.4688 86.3281 88.3594 87.5C88.3438 87.6406 88.3203 87.8281 88.2891 88.0625C88.2266 88.625 88.1719 88.9609 88.125 89.0703C88.0938 89.1328 87.9844 89.1641 87.7969 89.1641H87.5391C87.1484 89.1641 86.9297 89.1172 86.8828 89.0234C86.8828 89.0078 86.8828 88.9453 86.8828 88.8359C86.8828 88.3359 87.0234 87.2031 87.3047 85.4375C87.3672 85.125 87.4688 84.4844 87.6094 83.5156C87.75 82.5469 87.8828 81.7734 88.0078 81.1953C88.1328 80.6172 88.3125 79.5547 88.5469 78.0078C88.5781 77.7266 88.6328 77.5469 88.7109 77.4688C88.7891 77.3906 88.9609 77.3516 89.2266 77.3516Z" fill="#FF7E7E"/>
<path d="M54 29C54 33.4183 57.5817 37 62 37C57.5817 37 54 40.5817 54 45C54 40.5817 50.4183 37 46 37C50.4183 37 54 33.4183 54 29Z" fill="url(#paint0_linear_86_3408)"/>
<path d="M47 24C47 26.2091 48.7909 28 51 28C48.7909 28 47 29.7909 47 32C47 29.7909 45.2091 28 43 28C45.2091 28 47 26.2091 47 24Z" fill="url(#paint1_linear_86_3408)"/>
<path d="M88.1982 112.863C89.9662 111.118 92.0434 109.878 94.2504 109.14C92.3356 114.628 93.5479 120.971 97.9064 125.387C102.265 129.803 108.591 131.099 114.104 129.256C113.337 131.454 112.071 133.515 110.302 135.26C104.118 141.363 94.1557 141.297 88.0519 135.113C81.9483 128.928 82.0138 118.967 88.1982 112.863Z" fill="url(#paint2_radial_86_3408)"/>
<defs>
<filter id="filter0_i_86_3408" x="49.5" y="12" width="52" height="127" filterUnits="userSpaceOnUse" color-interpolation-filters="sRGB">
<feFlood flood-opacity="0" result="BackgroundImageFix"/>
<feBlend mode="normal" in="SourceGraphic" in2="BackgroundImageFix" result="shape"/>
<feColorMatrix in="SourceAlpha" type="matrix" values="0 0 0 0 0 0 0 0 0 0 0 0 0 0 0 0 0 0 127 0" result="hardAlpha"/>
<feOffset/>
<feGaussianBlur stdDeviation="6"/>
<feComposite in2="hardAlpha" operator="arithmetic" k2="-1" k3="1"/>
<feColorMatrix type="matrix" values="0 0 0 0 0.895527 0 0 0 0 0.957312 0 0 0 0 1 0 0 0 1 0"/>
<feBlend mode="normal" in2="shape" result="effect1_innerShadow_86_3408"/>
</filter>
<filter id="filter1_i_86_3408" x="61" y="12" width="29" height="7" filterUnits="userSpaceOnUse" color-interpolation-filters="sRGB">
<feFlood flood-opacity="0" result="BackgroundImageFix"/>
<feBlend mode="normal" in="SourceGraphic" in2="BackgroundImageFix" result="shape"/>
<feColorMatrix in="SourceAlpha" type="matrix" values="0 0 0 0 0 0 0 0 0 0 0 0 0 0 0 0 0 0 127 0" result="hardAlpha"/>
<feOffset/>
<feGaussianBlur stdDeviation="2"/>
<feComposite in2="hardAlpha" operator="arithmetic" k2="-1" k3="1"/>
<feColorMatrix type="matrix" values="0 0 0 0 1 0 0 0 0 1 0 0 0 0 1 0 0 0 0.7 0"/>
<feBlend mode="normal" in2="shape" result="effect1_innerShadow_86_3408"/>
</filter>
<filter id="filter2_i_86_3408" x="51.999" y="37" width="47.001" height="99" filterUnits="userSpaceOnUse" color-interpolation-filters="sRGB">
<feFlood flood-opacity="0" result="BackgroundImageFix"/>
<feBlend mode="normal" in="SourceGraphic" in2="BackgroundImageFix" result="shape"/>
<feColorMatrix in="SourceAlpha" type="matrix" values="0 0 0 0 0 0 0 0 0 0 0 0 0 0 0 0 0 0 127 0" result="hardAlpha"/>
<feOffset/>
<feGaussianBlur stdDeviation="6"/>
<feComposite in2="hardAlpha" operator="arithmetic" k2="-1" k3="1"/>
<feColorMatrix type="matrix" values="0 0 0 0 1 0 0 0 0 0.986394 0 0 0 0 0.883376 0 0 0 0.5 0"/>
<feBlend mode="normal" in2="shape" result="effect1_innerShadow_86_3408"/>
</filter>
<linearGradient id="paint0_linear_86_3408" x1="46.8087" y1="32.5583" x2="58.3455" y2="44.2736" gradientUnits="userSpaceOnUse">
<stop stop-color="#FFF873"/>
<stop offset="1" stop-color="#FFFEE8"/>
</linearGradient>
<linearGradient id="paint1_linear_86_3408" x1="43.4044" y1="25.7791" x2="49.1728" y2="31.6368" gradientUnits="userSpaceOnUse">
<stop stop-color="#FFF873"/>
<stop offset="1" stop-color="#FFFEE8"/>
</linearGradient>
<radialGradient id="paint2_radial_86_3408" cx="0" cy="0" r="1" gradientUnits="userSpaceOnUse" gradientTransform="translate(96.115 127.156) rotate(45.3767) scale(15.7339 11.3281)">
<stop stop-color="#FFF200"/>
<stop offset="1" stop-color="#FFFBAC"/>
</radialGradient>
</defs>
</svg>
