<svg width="151" height="151" viewBox="0 0 151 151" fill="none" xmlns="http://www.w3.org/2000/svg">
<path d="M77.2888 54.7454C74.1231 48.7197 64.0184 39.4493 48.9252 50.5727C52.9196 57.0502 64.1845 66.9532 77.2888 54.7454Z" fill="url(#paint0_linear_86_3714)"/>
<path d="M80.6686 79.3229C86.5195 82.801 99.9814 85.4131 107.022 68.0361C100.229 64.6066 85.4473 62.0626 80.6686 79.3229Z" fill="url(#paint1_linear_86_3714)"/>
<path d="M81.8721 85.4729C78.0024 87.7733 69.099 89.5009 64.4423 78.0081C68.9353 75.7398 78.7116 74.0573 81.8721 85.4729Z" fill="url(#paint2_linear_86_3714)"/>
<path d="M70.6454 45.6643C82.6121 60.2985 95.7744 151.263 56.8061 129.593C42.2796 121.515 72.1703 108.842 61.5194 128.112C54.8588 140.162 40.0561 135.237 34 126.486" stroke="#3D851E" stroke-width="2" stroke-linecap="round" stroke-linejoin="round"/>
<path d="M66.3765 105.579C66.3765 106.267 66.5373 108.332 66.7688 109.183C67.0038 110.045 67.3197 110.881 67.6354 111.758C67.9813 112.718 68.5276 114.278 69.2163 116.142C69.8679 117.905 70.4116 119.268 70.7485 120.086C71.0521 120.823 71.3486 121.296 71.7433 121.978C72.0536 122.515 72.6707 123.288 73.1716 123.898C73.5887 124.406 76.667 127.172 77 127.5" stroke="#3D851E" stroke-width="2" stroke-linecap="round" stroke-linejoin="round"/>
<g filter="url(#filter0_i_86_3714)">
<ellipse cx="68.4888" cy="30.6132" rx="11.8466" ry="14.8082" transform="rotate(-12.7682 68.4888 30.6132)" fill="#C9C4FF"/>
</g>
<mask id="mask0_86_3714" style="mask-type:alpha" maskUnits="userSpaceOnUse" x="56" y="15" width="25" height="31">
<ellipse cx="68.4888" cy="30.6132" rx="11.8466" ry="14.8082" transform="rotate(-12.7682 68.4888 30.6132)" fill="#C9C4FF"/>
</mask>
<g mask="url(#mask0_86_3714)">
<g filter="url(#filter1_f_86_3714)">
<ellipse cx="69.1" cy="34.6502" rx="8.58875" ry="10.7359" transform="rotate(-12.7682 69.1 34.6502)" fill="#9E95FF"/>
</g>
<g filter="url(#filter2_f_86_3714)">
<ellipse cx="69.7545" cy="37.5386" rx="6.21944" ry="7.7743" transform="rotate(-12.7682 69.7545 37.5386)" fill="#7468FF"/>
</g>
</g>
<g filter="url(#filter3_i_86_3714)">
<ellipse cx="11.8466" cy="14.8082" rx="11.8466" ry="14.8082" transform="matrix(-0.734107 0.679034 0.679034 0.734107 57.6481 17.9919)" fill="#C9C4FF"/>
</g>
<mask id="mask1_86_3714" style="mask-type:alpha" maskUnits="userSpaceOnUse" x="45" y="23" width="28" height="28">
<ellipse cx="11.8466" cy="14.8082" rx="11.8466" ry="14.8082" transform="matrix(-0.734107 0.679034 0.679034 0.734107 57.6481 17.9919)" fill="#C9C4FF"/>
</mask>
<g mask="url(#mask1_86_3714)">
<g filter="url(#filter4_f_86_3714)">
<ellipse cx="8.58875" cy="10.7359" rx="8.58875" ry="10.7359" transform="matrix(-0.734107 0.679034 0.679034 0.734107 61.0043 25.9819)" fill="#9E95FF"/>
</g>
<g filter="url(#filter5_f_86_3714)">
<ellipse cx="6.21944" cy="7.7743" rx="6.21944" ry="7.7743" transform="matrix(-0.734107 0.679034 0.679034 0.734107 63.287 31.9392)" fill="#7468FF"/>
</g>
</g>
<g filter="url(#filter6_i_86_3714)">
<ellipse cx="79.3879" cy="32.2884" rx="11.8466" ry="14.8082" transform="rotate(17.2318 79.3879 32.2884)" fill="#C9C4FF"/>
</g>
<mask id="mask2_86_3714" style="mask-type:alpha" maskUnits="userSpaceOnUse" x="67" y="17" width="25" height="30">
<ellipse cx="79.3879" cy="32.2884" rx="11.8466" ry="14.8082" transform="rotate(17.2318 79.3879 32.2884)" fill="#C9C4FF"/>
</mask>
<g mask="url(#mask2_86_3714)">
<g filter="url(#filter7_f_86_3714)">
<ellipse cx="77.8983" cy="36.0904" rx="8.58875" ry="10.7359" transform="rotate(17.2318 77.8983 36.0904)" fill="#9E95FF"/>
</g>
<g filter="url(#filter8_f_86_3714)">
<ellipse cx="77.0211" cy="38.9191" rx="6.21944" ry="7.7743" transform="rotate(17.2318 77.0211 38.9191)" fill="#7468FF"/>
</g>
</g>
<circle cx="68.1616" cy="29.1691" r="8.88491" transform="rotate(-12.7682 68.1616 29.1691)" fill="url(#paint3_linear_86_3714)"/>
<g filter="url(#filter9_i_86_3714)">
<ellipse cx="70.1252" cy="37.8344" rx="11.8466" ry="14.8082" transform="rotate(-12.7682 70.1252 37.8344)" fill="#C9C4FF"/>
</g>
<mask id="mask3_86_3714" style="mask-type:alpha" maskUnits="userSpaceOnUse" x="58" y="23" width="25" height="30">
<ellipse cx="70.1252" cy="37.8344" rx="11.8466" ry="14.8082" transform="rotate(-12.7682 70.1252 37.8344)" fill="#C9C4FF"/>
</mask>
<g mask="url(#mask3_86_3714)">
<g filter="url(#filter10_f_86_3714)">
<ellipse cx="70.7364" cy="41.8714" rx="8.58875" ry="10.7359" transform="rotate(-12.7682 70.7364 41.8714)" fill="#9E95FF"/>
</g>
<g filter="url(#filter11_f_86_3714)">
<ellipse cx="71.3909" cy="44.7598" rx="6.21944" ry="7.7743" transform="rotate(-12.7682 71.3909 44.7598)" fill="#7468FF"/>
</g>
</g>
<g filter="url(#filter12_i_86_3714)">
<ellipse cx="97.1732" cy="51.9099" rx="11.8466" ry="14.8082" transform="rotate(20.8447 97.1732 51.9099)" fill="#FFC4E1"/>
</g>
<mask id="mask4_86_3714" style="mask-type:alpha" maskUnits="userSpaceOnUse" x="84" y="37" width="26" height="30">
<ellipse cx="97.1732" cy="51.9099" rx="11.8466" ry="14.8082" transform="rotate(20.8447 97.1732 51.9099)" fill="#C9C4FF"/>
</mask>
<g mask="url(#mask4_86_3714)">
<g filter="url(#filter13_f_86_3714)">
<ellipse cx="95.4475" cy="55.6102" rx="8.58875" ry="10.7359" transform="rotate(20.8447 95.4475 55.6102)" fill="#FF95BE"/>
</g>
<g filter="url(#filter14_f_86_3714)">
<ellipse cx="94.3935" cy="58.378" rx="6.21944" ry="7.7743" transform="rotate(20.8447 94.3935 58.378)" fill="#FF2C92"/>
</g>
</g>
<g filter="url(#filter15_i_86_3714)">
<ellipse cx="11.8466" cy="14.8082" rx="11.8466" ry="14.8082" transform="matrix(-0.987261 0.159111 0.159111 0.987261 95.132 35.3977)" fill="#FFC4E1"/>
</g>
<mask id="mask5_86_3714" style="mask-type:alpha" maskUnits="userSpaceOnUse" x="73" y="37" width="25" height="30">
<ellipse cx="11.8466" cy="14.8082" rx="11.8466" ry="14.8082" transform="matrix(-0.987261 0.159111 0.159111 0.987261 95.132 35.3977)" fill="#C9C4FF"/>
</mask>
<g mask="url(#mask5_86_3714)">
<g filter="url(#filter16_f_86_3714)">
<ellipse cx="8.58875" cy="10.7359" rx="8.58875" ry="10.7359" transform="matrix(-0.987261 0.159111 0.159111 0.987261 93.5039 43.9097)" fill="#FF95BE"/>
</g>
<g filter="url(#filter17_f_86_3714)">
<ellipse cx="6.21944" cy="7.7743" rx="6.21944" ry="7.7743" transform="matrix(-0.987261 0.159111 0.159111 0.987261 92.1072 50.1345)" fill="#FF2C92"/>
</g>
</g>
<g filter="url(#filter18_i_86_3714)">
<ellipse cx="105.323" cy="59.3383" rx="11.8466" ry="14.8082" transform="rotate(50.8447 105.323 59.3383)" fill="#FFC4E1"/>
</g>
<mask id="mask6_86_3714" style="mask-type:alpha" maskUnits="userSpaceOnUse" x="91" y="46" width="29" height="27">
<ellipse cx="105.323" cy="59.3383" rx="11.8466" ry="14.8082" transform="rotate(50.8447 105.323 59.3383)" fill="#C9C4FF"/>
</mask>
<g mask="url(#mask6_86_3714)">
<g filter="url(#filter19_f_86_3714)">
<ellipse cx="101.977" cy="61.6799" rx="8.58875" ry="10.7359" transform="rotate(50.8447 101.977 61.6799)" fill="#FF95BE"/>
</g>
<g filter="url(#filter20_f_86_3714)">
<ellipse cx="99.6811" cy="63.55" rx="6.21944" ry="7.7743" transform="rotate(50.8447 99.6811 63.55)" fill="#FF2C92"/>
</g>
</g>
<circle cx="97.7002" cy="50.526" r="8.88491" transform="rotate(20.8447 97.7002 50.526)" fill="url(#paint4_linear_86_3714)"/>
<g filter="url(#filter21_i_86_3714)">
<ellipse cx="94.5386" cy="58.8293" rx="11.8466" ry="14.8082" transform="rotate(20.8447 94.5386 58.8293)" fill="#FFC4E1"/>
</g>
<mask id="mask7_86_3714" style="mask-type:alpha" maskUnits="userSpaceOnUse" x="82" y="44" width="25" height="30">
<ellipse cx="94.5386" cy="58.8293" rx="11.8466" ry="14.8082" transform="rotate(20.8447 94.5386 58.8293)" fill="#C9C4FF"/>
</mask>
<g mask="url(#mask7_86_3714)">
<g filter="url(#filter22_f_86_3714)">
<ellipse cx="92.8128" cy="62.5296" rx="8.58875" ry="10.7359" transform="rotate(20.8447 92.8128 62.5296)" fill="#FF95BE"/>
</g>
<g filter="url(#filter23_f_86_3714)">
<ellipse cx="91.7589" cy="65.2974" rx="6.21944" ry="7.7743" transform="rotate(20.8447 91.7589 65.2974)" fill="#FF2C92"/>
</g>
</g>
<g filter="url(#filter24_i_86_3714)">
<ellipse cx="11.8466" cy="14.8082" rx="11.8466" ry="14.8082" transform="matrix(-0.628163 0.778082 0.778082 0.628163 53.7728 77.137)" fill="#C4D9FF"/>
</g>
<mask id="mask8_86_3714" style="mask-type:alpha" maskUnits="userSpaceOnUse" x="44" y="82" width="28" height="27">
<ellipse cx="11.8466" cy="14.8082" rx="11.8466" ry="14.8082" transform="matrix(-0.628163 0.778082 0.778082 0.628163 53.7728 77.137)" fill="#C9C4FF"/>
</mask>
<g mask="url(#mask8_86_3714)">
<g filter="url(#filter25_f_86_3714)">
<ellipse cx="8.58875" cy="10.7359" rx="8.58875" ry="10.7359" transform="matrix(-0.628163 0.778082 0.778082 0.628163 58.2495 84.5574)" fill="#95AAFF"/>
</g>
<g filter="url(#filter26_f_86_3714)">
<ellipse cx="6.21944" cy="7.7743" rx="6.21944" ry="7.7743" transform="matrix(-0.628163 0.778082 0.778082 0.628163 61.37 90.1216)" fill="#2C60FF"/>
</g>
</g>
<g filter="url(#filter27_i_86_3714)">
<ellipse cx="67.6259" cy="91.8467" rx="11.8466" ry="14.8082" transform="rotate(8.91473 67.6259 91.8467)" fill="#C4D9FF"/>
</g>
<mask id="mask9_86_3714" style="mask-type:alpha" maskUnits="userSpaceOnUse" x="55" y="77" width="25" height="30">
<ellipse cx="67.6259" cy="91.8467" rx="11.8466" ry="14.8082" transform="rotate(8.91473 67.6259 91.8467)" fill="#C9C4FF"/>
</mask>
<g mask="url(#mask9_86_3714)">
<g filter="url(#filter28_f_86_3714)">
<ellipse cx="66.7019" cy="95.8239" rx="8.58875" ry="10.7359" transform="rotate(8.91473 66.7019 95.8239)" fill="#95AAFF"/>
</g>
<g filter="url(#filter29_f_86_3714)">
<ellipse cx="66.2432" cy="98.7496" rx="6.21944" ry="7.7743" transform="rotate(8.91473 66.2432 98.7496)" fill="#2C60FF"/>
</g>
</g>
<g filter="url(#filter30_i_86_3714)">
<ellipse cx="63.2877" cy="94.9074" rx="11.8466" ry="14.8082" transform="rotate(-21.0853 63.2877 94.9074)" fill="#C4D9FF"/>
</g>
<mask id="mask10_86_3714" style="mask-type:alpha" maskUnits="userSpaceOnUse" x="51" y="80" width="25" height="30">
<ellipse cx="63.2877" cy="94.9074" rx="11.8466" ry="14.8082" transform="rotate(-21.0853 63.2877 94.9074)" fill="#C9C4FF"/>
</mask>
<g mask="url(#mask10_86_3714)">
<g filter="url(#filter31_f_86_3714)">
<ellipse cx="64.4765" cy="98.8135" rx="8.58875" ry="10.7359" transform="rotate(-21.0853 64.4765 98.8135)" fill="#95AAFF"/>
</g>
<g filter="url(#filter32_f_86_3714)">
<ellipse cx="65.542" cy="101.577" rx="6.21944" ry="7.7743" transform="rotate(-21.0853 65.542 101.577)" fill="#2C60FF"/>
</g>
</g>
<path d="M76.6592 127.229C79.3443 120.974 88.6937 110.942 104.61 120.852C101.134 127.622 90.6774 138.375 76.6592 127.229Z" fill="url(#paint5_linear_86_3714)"/>
<path d="M53.25 63.5C53.25 67.9183 56.8317 71.5 61.25 71.5C56.8317 71.5 53.25 75.0817 53.25 79.5C53.25 75.0817 49.6683 71.5 45.25 71.5C49.6683 71.5 53.25 67.9183 53.25 63.5Z" fill="url(#paint6_linear_86_3714)"/>
<path d="M44.25 54.5C44.25 56.7091 46.0409 58.5 48.25 58.5C46.0409 58.5 44.25 60.2909 44.25 62.5C44.25 60.2909 42.4591 58.5 40.25 58.5C42.4591 58.5 44.25 56.7091 44.25 54.5Z" fill="url(#paint7_linear_86_3714)"/>
<path d="M116.25 32.5C116.25 34.7091 118.041 36.5 120.25 36.5C118.041 36.5 116.25 38.2909 116.25 40.5C116.25 38.2909 114.459 36.5 112.25 36.5C114.459 36.5 116.25 34.7091 116.25 32.5Z" fill="url(#paint8_linear_86_3714)"/>
<defs>
<filter id="filter0_i_86_3714" x="56.4775" y="15.9331" width="24.0226" height="29.3601" filterUnits="userSpaceOnUse" color-interpolation-filters="sRGB">
<feFlood flood-opacity="0" result="BackgroundImageFix"/>
<feBlend mode="normal" in="SourceGraphic" in2="BackgroundImageFix" result="shape"/>
<feColorMatrix in="SourceAlpha" type="matrix" values="0 0 0 0 0 0 0 0 0 0 0 0 0 0 0 0 0 0 127 0" result="hardAlpha"/>
<feOffset/>
<feGaussianBlur stdDeviation="2"/>
<feComposite in2="hardAlpha" operator="arithmetic" k2="-1" k3="1"/>
<feColorMatrix type="matrix" values="0 0 0 0 1 0 0 0 0 1 0 0 0 0 1 0 0 0 1 0"/>
<feBlend mode="normal" in2="shape" result="effect1_innerShadow_86_3714"/>
</filter>
<filter id="filter1_f_86_3714" x="52.3918" y="16.0073" width="33.4164" height="37.2859" filterUnits="userSpaceOnUse" color-interpolation-filters="sRGB">
<feFlood flood-opacity="0" result="BackgroundImageFix"/>
<feBlend mode="normal" in="SourceGraphic" in2="BackgroundImageFix" result="shape"/>
<feGaussianBlur stdDeviation="4" result="effect1_foregroundBlur_86_3714"/>
</filter>
<filter id="filter2_f_86_3714" x="55.4486" y="21.8315" width="28.6118" height="31.4141" filterUnits="userSpaceOnUse" color-interpolation-filters="sRGB">
<feFlood flood-opacity="0" result="BackgroundImageFix"/>
<feBlend mode="normal" in="SourceGraphic" in2="BackgroundImageFix" result="shape"/>
<feGaussianBlur stdDeviation="4" result="effect1_foregroundBlur_86_3714"/>
</filter>
<filter id="filter3_i_86_3714" x="45.7122" y="23.3826" width="26.5891" height="27.0486" filterUnits="userSpaceOnUse" color-interpolation-filters="sRGB">
<feFlood flood-opacity="0" result="BackgroundImageFix"/>
<feBlend mode="normal" in="SourceGraphic" in2="BackgroundImageFix" result="shape"/>
<feColorMatrix in="SourceAlpha" type="matrix" values="0 0 0 0 0 0 0 0 0 0 0 0 0 0 0 0 0 0 127 0" result="hardAlpha"/>
<feOffset/>
<feGaussianBlur stdDeviation="2"/>
<feComposite in2="hardAlpha" operator="arithmetic" k2="-1" k3="1"/>
<feColorMatrix type="matrix" values="0 0 0 0 1 0 0 0 0 1 0 0 0 0 1 0 0 0 1 0"/>
<feBlend mode="normal" in2="shape" result="effect1_innerShadow_86_3714"/>
</filter>
<filter id="filter4_f_86_3714" x="44.3507" y="21.8901" width="35.2771" height="35.6104" filterUnits="userSpaceOnUse" color-interpolation-filters="sRGB">
<feFlood flood-opacity="0" result="BackgroundImageFix"/>
<feBlend mode="normal" in="SourceGraphic" in2="BackgroundImageFix" result="shape"/>
<feGaussianBlur stdDeviation="4" result="effect1_foregroundBlur_86_3714"/>
</filter>
<filter id="filter5_f_86_3714" x="49.0206" y="26.7693" width="29.9592" height="30.2007" filterUnits="userSpaceOnUse" color-interpolation-filters="sRGB">
<feFlood flood-opacity="0" result="BackgroundImageFix"/>
<feBlend mode="normal" in="SourceGraphic" in2="BackgroundImageFix" result="shape"/>
<feGaussianBlur stdDeviation="4" result="effect1_foregroundBlur_86_3714"/>
</filter>
<filter id="filter6_i_86_3714" x="67.2491" y="17.7126" width="24.2775" height="29.1516" filterUnits="userSpaceOnUse" color-interpolation-filters="sRGB">
<feFlood flood-opacity="0" result="BackgroundImageFix"/>
<feBlend mode="normal" in="SourceGraphic" in2="BackgroundImageFix" result="shape"/>
<feColorMatrix in="SourceAlpha" type="matrix" values="0 0 0 0 0 0 0 0 0 0 0 0 0 0 0 0 0 0 127 0" result="hardAlpha"/>
<feOffset/>
<feGaussianBlur stdDeviation="2"/>
<feComposite in2="hardAlpha" operator="arithmetic" k2="-1" k3="1"/>
<feColorMatrix type="matrix" values="0 0 0 0 1 0 0 0 0 1 0 0 0 0 1 0 0 0 1 0"/>
<feBlend mode="normal" in2="shape" result="effect1_innerShadow_86_3714"/>
</filter>
<filter id="filter7_f_86_3714" x="61.0978" y="17.5229" width="33.6011" height="37.1348" filterUnits="userSpaceOnUse" color-interpolation-filters="sRGB">
<feFlood flood-opacity="0" result="BackgroundImageFix"/>
<feBlend mode="normal" in="SourceGraphic" in2="BackgroundImageFix" result="shape"/>
<feGaussianBlur stdDeviation="4" result="effect1_foregroundBlur_86_3714"/>
</filter>
<filter id="filter8_f_86_3714" x="62.6483" y="23.2668" width="28.7456" height="31.3047" filterUnits="userSpaceOnUse" color-interpolation-filters="sRGB">
<feFlood flood-opacity="0" result="BackgroundImageFix"/>
<feBlend mode="normal" in="SourceGraphic" in2="BackgroundImageFix" result="shape"/>
<feGaussianBlur stdDeviation="4" result="effect1_foregroundBlur_86_3714"/>
</filter>
<filter id="filter9_i_86_3714" x="58.1139" y="23.1543" width="24.0226" height="29.3601" filterUnits="userSpaceOnUse" color-interpolation-filters="sRGB">
<feFlood flood-opacity="0" result="BackgroundImageFix"/>
<feBlend mode="normal" in="SourceGraphic" in2="BackgroundImageFix" result="shape"/>
<feColorMatrix in="SourceAlpha" type="matrix" values="0 0 0 0 0 0 0 0 0 0 0 0 0 0 0 0 0 0 127 0" result="hardAlpha"/>
<feOffset/>
<feGaussianBlur stdDeviation="2"/>
<feComposite in2="hardAlpha" operator="arithmetic" k2="-1" k3="1"/>
<feColorMatrix type="matrix" values="0 0 0 0 1 0 0 0 0 1 0 0 0 0 1 0 0 0 1 0"/>
<feBlend mode="normal" in2="shape" result="effect1_innerShadow_86_3714"/>
</filter>
<filter id="filter10_f_86_3714" x="54.0282" y="23.2285" width="33.4164" height="37.2859" filterUnits="userSpaceOnUse" color-interpolation-filters="sRGB">
<feFlood flood-opacity="0" result="BackgroundImageFix"/>
<feBlend mode="normal" in="SourceGraphic" in2="BackgroundImageFix" result="shape"/>
<feGaussianBlur stdDeviation="4" result="effect1_foregroundBlur_86_3714"/>
</filter>
<filter id="filter11_f_86_3714" x="57.085" y="29.0527" width="28.6118" height="31.4141" filterUnits="userSpaceOnUse" color-interpolation-filters="sRGB">
<feFlood flood-opacity="0" result="BackgroundImageFix"/>
<feBlend mode="normal" in="SourceGraphic" in2="BackgroundImageFix" result="shape"/>
<feGaussianBlur stdDeviation="4" result="effect1_foregroundBlur_86_3714"/>
</filter>
<filter id="filter12_i_86_3714" x="84.9092" y="37.4392" width="24.5281" height="28.9412" filterUnits="userSpaceOnUse" color-interpolation-filters="sRGB">
<feFlood flood-opacity="0" result="BackgroundImageFix"/>
<feBlend mode="normal" in="SourceGraphic" in2="BackgroundImageFix" result="shape"/>
<feColorMatrix in="SourceAlpha" type="matrix" values="0 0 0 0 0 0 0 0 0 0 0 0 0 0 0 0 0 0 127 0" result="hardAlpha"/>
<feOffset/>
<feGaussianBlur stdDeviation="2"/>
<feComposite in2="hardAlpha" operator="arithmetic" k2="-1" k3="1"/>
<feColorMatrix type="matrix" values="0 0 0 0 1 0 0 0 0 1 0 0 0 0 1 0 0 0 1 0"/>
<feBlend mode="normal" in2="shape" result="effect1_innerShadow_86_3714"/>
</filter>
<filter id="filter13_f_86_3714" x="78.556" y="37.1191" width="33.7828" height="36.9822" filterUnits="userSpaceOnUse" color-interpolation-filters="sRGB">
<feFlood flood-opacity="0" result="BackgroundImageFix"/>
<feBlend mode="normal" in="SourceGraphic" in2="BackgroundImageFix" result="shape"/>
<feGaussianBlur stdDeviation="4" result="effect1_foregroundBlur_86_3714"/>
</filter>
<filter id="filter14_f_86_3714" x="79.955" y="42.781" width="28.8772" height="31.1941" filterUnits="userSpaceOnUse" color-interpolation-filters="sRGB">
<feFlood flood-opacity="0" result="BackgroundImageFix"/>
<feBlend mode="normal" in="SourceGraphic" in2="BackgroundImageFix" result="shape"/>
<feGaussianBlur stdDeviation="4" result="effect1_foregroundBlur_86_3714"/>
</filter>
<filter id="filter15_i_86_3714" x="73.8595" y="37.1599" width="23.8658" height="29.4844" filterUnits="userSpaceOnUse" color-interpolation-filters="sRGB">
<feFlood flood-opacity="0" result="BackgroundImageFix"/>
<feBlend mode="normal" in="SourceGraphic" in2="BackgroundImageFix" result="shape"/>
<feColorMatrix in="SourceAlpha" type="matrix" values="0 0 0 0 0 0 0 0 0 0 0 0 0 0 0 0 0 0 127 0" result="hardAlpha"/>
<feOffset/>
<feGaussianBlur stdDeviation="2"/>
<feComposite in2="hardAlpha" operator="arithmetic" k2="-1" k3="1"/>
<feColorMatrix type="matrix" values="0 0 0 0 1 0 0 0 0 1 0 0 0 0 1 0 0 0 1 0"/>
<feBlend mode="normal" in2="shape" result="effect1_innerShadow_86_3714"/>
</filter>
<filter id="filter16_f_86_3714" x="70.0814" y="37.1873" width="33.3027" height="37.3762" filterUnits="userSpaceOnUse" color-interpolation-filters="sRGB">
<feFlood flood-opacity="0" result="BackgroundImageFix"/>
<feBlend mode="normal" in="SourceGraphic" in2="BackgroundImageFix" result="shape"/>
<feGaussianBlur stdDeviation="4" result="effect1_foregroundBlur_86_3714"/>
</filter>
<filter id="filter17_f_86_3714" x="72.9392" y="43.0598" width="28.5295" height="31.4792" filterUnits="userSpaceOnUse" color-interpolation-filters="sRGB">
<feFlood flood-opacity="0" result="BackgroundImageFix"/>
<feBlend mode="normal" in="SourceGraphic" in2="BackgroundImageFix" result="shape"/>
<feGaussianBlur stdDeviation="4" result="effect1_foregroundBlur_86_3714"/>
</filter>
<filter id="filter18_i_86_3714" x="91.6168" y="46.2305" width="27.4117" height="26.2156" filterUnits="userSpaceOnUse" color-interpolation-filters="sRGB">
<feFlood flood-opacity="0" result="BackgroundImageFix"/>
<feBlend mode="normal" in="SourceGraphic" in2="BackgroundImageFix" result="shape"/>
<feColorMatrix in="SourceAlpha" type="matrix" values="0 0 0 0 0 0 0 0 0 0 0 0 0 0 0 0 0 0 127 0" result="hardAlpha"/>
<feOffset/>
<feGaussianBlur stdDeviation="2"/>
<feComposite in2="hardAlpha" operator="arithmetic" k2="-1" k3="1"/>
<feColorMatrix type="matrix" values="0 0 0 0 1 0 0 0 0 1 0 0 0 0 1 0 0 0 1 0"/>
<feBlend mode="normal" in2="shape" result="effect1_innerShadow_86_3714"/>
</filter>
<filter id="filter19_f_86_3714" x="84.0406" y="44.1768" width="35.8737" height="35.0063" filterUnits="userSpaceOnUse" color-interpolation-filters="sRGB">
<feFlood flood-opacity="0" result="BackgroundImageFix"/>
<feBlend mode="normal" in="SourceGraphic" in2="BackgroundImageFix" result="shape"/>
<feGaussianBlur stdDeviation="4" result="effect1_foregroundBlur_86_3714"/>
</filter>
<filter id="filter20_f_86_3714" x="84.4855" y="48.6685" width="30.3912" height="29.7632" filterUnits="userSpaceOnUse" color-interpolation-filters="sRGB">
<feFlood flood-opacity="0" result="BackgroundImageFix"/>
<feBlend mode="normal" in="SourceGraphic" in2="BackgroundImageFix" result="shape"/>
<feGaussianBlur stdDeviation="4" result="effect1_foregroundBlur_86_3714"/>
</filter>
<filter id="filter21_i_86_3714" x="82.2745" y="44.3586" width="24.5281" height="28.9412" filterUnits="userSpaceOnUse" color-interpolation-filters="sRGB">
<feFlood flood-opacity="0" result="BackgroundImageFix"/>
<feBlend mode="normal" in="SourceGraphic" in2="BackgroundImageFix" result="shape"/>
<feColorMatrix in="SourceAlpha" type="matrix" values="0 0 0 0 0 0 0 0 0 0 0 0 0 0 0 0 0 0 127 0" result="hardAlpha"/>
<feOffset/>
<feGaussianBlur stdDeviation="2"/>
<feComposite in2="hardAlpha" operator="arithmetic" k2="-1" k3="1"/>
<feColorMatrix type="matrix" values="0 0 0 0 1 0 0 0 0 1 0 0 0 0 1 0 0 0 1 0"/>
<feBlend mode="normal" in2="shape" result="effect1_innerShadow_86_3714"/>
</filter>
<filter id="filter22_f_86_3714" x="75.9214" y="44.0386" width="33.7828" height="36.9822" filterUnits="userSpaceOnUse" color-interpolation-filters="sRGB">
<feFlood flood-opacity="0" result="BackgroundImageFix"/>
<feBlend mode="normal" in="SourceGraphic" in2="BackgroundImageFix" result="shape"/>
<feGaussianBlur stdDeviation="4" result="effect1_foregroundBlur_86_3714"/>
</filter>
<filter id="filter23_f_86_3714" x="77.3203" y="49.7004" width="28.8772" height="31.1941" filterUnits="userSpaceOnUse" color-interpolation-filters="sRGB">
<feFlood flood-opacity="0" result="BackgroundImageFix"/>
<feBlend mode="normal" in="SourceGraphic" in2="BackgroundImageFix" result="shape"/>
<feGaussianBlur stdDeviation="4" result="effect1_foregroundBlur_86_3714"/>
</filter>
<filter id="filter24_i_86_3714" x="44.1355" y="82.561" width="27.4355" height="26.1909" filterUnits="userSpaceOnUse" color-interpolation-filters="sRGB">
<feFlood flood-opacity="0" result="BackgroundImageFix"/>
<feBlend mode="normal" in="SourceGraphic" in2="BackgroundImageFix" result="shape"/>
<feColorMatrix in="SourceAlpha" type="matrix" values="0 0 0 0 0 0 0 0 0 0 0 0 0 0 0 0 0 0 127 0" result="hardAlpha"/>
<feOffset/>
<feGaussianBlur stdDeviation="2"/>
<feComposite in2="hardAlpha" operator="arithmetic" k2="-1" k3="1"/>
<feColorMatrix type="matrix" values="0 0 0 0 1 0 0 0 0 1 0 0 0 0 1 0 0 0 1 0"/>
<feBlend mode="normal" in2="shape" result="effect1_innerShadow_86_3714"/>
</filter>
<filter id="filter25_f_86_3714" x="43.2625" y="80.4897" width="35.8907" height="34.9885" filterUnits="userSpaceOnUse" color-interpolation-filters="sRGB">
<feFlood flood-opacity="0" result="BackgroundImageFix"/>
<feBlend mode="normal" in="SourceGraphic" in2="BackgroundImageFix" result="shape"/>
<feGaussianBlur stdDeviation="4" result="effect1_foregroundBlur_86_3714"/>
</filter>
<filter id="filter26_f_86_3714" x="48.3103" y="84.9692" width="30.4038" height="29.7502" filterUnits="userSpaceOnUse" color-interpolation-filters="sRGB">
<feFlood flood-opacity="0" result="BackgroundImageFix"/>
<feBlend mode="normal" in="SourceGraphic" in2="BackgroundImageFix" result="shape"/>
<feGaussianBlur stdDeviation="4" result="effect1_foregroundBlur_86_3714"/>
</filter>
<filter id="filter27_i_86_3714" x="55.6973" y="77.1011" width="23.8572" height="29.4912" filterUnits="userSpaceOnUse" color-interpolation-filters="sRGB">
<feFlood flood-opacity="0" result="BackgroundImageFix"/>
<feBlend mode="normal" in="SourceGraphic" in2="BackgroundImageFix" result="shape"/>
<feColorMatrix in="SourceAlpha" type="matrix" values="0 0 0 0 0 0 0 0 0 0 0 0 0 0 0 0 0 0 127 0" result="hardAlpha"/>
<feOffset/>
<feGaussianBlur stdDeviation="2"/>
<feComposite in2="hardAlpha" operator="arithmetic" k2="-1" k3="1"/>
<feColorMatrix type="matrix" values="0 0 0 0 1 0 0 0 0 1 0 0 0 0 1 0 0 0 1 0"/>
<feBlend mode="normal" in2="shape" result="effect1_innerShadow_86_3714"/>
</filter>
<filter id="filter28_f_86_3714" x="50.0537" y="77.1333" width="33.2964" height="37.3811" filterUnits="userSpaceOnUse" color-interpolation-filters="sRGB">
<feFlood flood-opacity="0" result="BackgroundImageFix"/>
<feBlend mode="normal" in="SourceGraphic" in2="BackgroundImageFix" result="shape"/>
<feGaussianBlur stdDeviation="4" result="effect1_foregroundBlur_86_3714"/>
</filter>
<filter id="filter29_f_86_3714" x="51.9807" y="83.0083" width="28.5249" height="31.4829" filterUnits="userSpaceOnUse" color-interpolation-filters="sRGB">
<feFlood flood-opacity="0" result="BackgroundImageFix"/>
<feBlend mode="normal" in="SourceGraphic" in2="BackgroundImageFix" result="shape"/>
<feGaussianBlur stdDeviation="4" result="effect1_foregroundBlur_86_3714"/>
</filter>
<filter id="filter30_i_86_3714" x="51.0146" y="80.4443" width="24.5461" height="28.926" filterUnits="userSpaceOnUse" color-interpolation-filters="sRGB">
<feFlood flood-opacity="0" result="BackgroundImageFix"/>
<feBlend mode="normal" in="SourceGraphic" in2="BackgroundImageFix" result="shape"/>
<feColorMatrix in="SourceAlpha" type="matrix" values="0 0 0 0 0 0 0 0 0 0 0 0 0 0 0 0 0 0 127 0" result="hardAlpha"/>
<feOffset/>
<feGaussianBlur stdDeviation="2"/>
<feComposite in2="hardAlpha" operator="arithmetic" k2="-1" k3="1"/>
<feColorMatrix type="matrix" values="0 0 0 0 1 0 0 0 0 1 0 0 0 0 1 0 0 0 1 0"/>
<feBlend mode="normal" in2="shape" result="effect1_innerShadow_86_3714"/>
</filter>
<filter id="filter31_f_86_3714" x="47.5785" y="80.3279" width="33.7959" height="36.9712" filterUnits="userSpaceOnUse" color-interpolation-filters="sRGB">
<feFlood flood-opacity="0" result="BackgroundImageFix"/>
<feBlend mode="normal" in="SourceGraphic" in2="BackgroundImageFix" result="shape"/>
<feGaussianBlur stdDeviation="4" result="effect1_foregroundBlur_86_3714"/>
</filter>
<filter id="filter32_f_86_3714" x="51.0986" y="85.9839" width="28.8867" height="31.186" filterUnits="userSpaceOnUse" color-interpolation-filters="sRGB">
<feFlood flood-opacity="0" result="BackgroundImageFix"/>
<feBlend mode="normal" in="SourceGraphic" in2="BackgroundImageFix" result="shape"/>
<feGaussianBlur stdDeviation="4" result="effect1_foregroundBlur_86_3714"/>
</filter>
<linearGradient id="paint0_linear_86_3714" x1="75.9058" y1="53.2429" x2="47.0202" y2="50.8197" gradientUnits="userSpaceOnUse">
<stop stop-color="#3D851D"/>
<stop offset="1" stop-color="#51A12E"/>
</linearGradient>
<linearGradient id="paint1_linear_86_3714" x1="82.6334" y1="79.8795" x2="108.516" y2="66.8287" gradientUnits="userSpaceOnUse">
<stop stop-color="#3D851D"/>
<stop offset="1" stop-color="#51A12E"/>
</linearGradient>
<linearGradient id="paint2_linear_86_3714" x1="80.5726" y1="85.841" x2="63.4541" y2="77.2095" gradientUnits="userSpaceOnUse">
<stop stop-color="#3D851D"/>
<stop offset="1" stop-color="#51A12E"/>
</linearGradient>
<linearGradient id="paint3_linear_86_3714" x1="68.1616" y1="20.2842" x2="68.1616" y2="24.3565" gradientUnits="userSpaceOnUse">
<stop stop-color="#FFF9B5"/>
<stop offset="1" stop-color="#FFEA00" stop-opacity="0.917647"/>
</linearGradient>
<linearGradient id="paint4_linear_86_3714" x1="97.7002" y1="41.6411" x2="97.7002" y2="45.7133" gradientUnits="userSpaceOnUse">
<stop stop-color="#FFF9B5"/>
<stop offset="1" stop-color="#FFEA00" stop-opacity="0.917647"/>
</linearGradient>
<linearGradient id="paint5_linear_86_3714" x1="77.9206" y1="125.623" x2="106.528" y2="120.95" gradientUnits="userSpaceOnUse">
<stop stop-color="#3D851D"/>
<stop offset="1" stop-color="#51A12E"/>
</linearGradient>
<linearGradient id="paint6_linear_86_3714" x1="46.0587" y1="67.0583" x2="57.5955" y2="78.7736" gradientUnits="userSpaceOnUse">
<stop stop-color="#FFF873"/>
<stop offset="1" stop-color="#FFFEE8"/>
</linearGradient>
<linearGradient id="paint7_linear_86_3714" x1="40.6544" y1="56.2791" x2="46.4228" y2="62.1368" gradientUnits="userSpaceOnUse">
<stop stop-color="#FFF873"/>
<stop offset="1" stop-color="#FFFEE8"/>
</linearGradient>
<linearGradient id="paint8_linear_86_3714" x1="112.654" y1="34.2791" x2="118.423" y2="40.1368" gradientUnits="userSpaceOnUse">
<stop stop-color="#FFF873"/>
<stop offset="1" stop-color="#FFFEE8"/>
</linearGradient>
</defs>
</svg>
